<svg width="25" height="24" viewBox="0 0 25 24" fill="none" xmlns="http://www.w3.org/2000/svg">
<g clip-path="url(#clip0)">
<path d="M6.32482 17.9668H0.640625V23.651H6.32482V17.9668Z" fill="white"/>
<path d="M6.32482 9.03516H0.640625V14.7194H6.32482V9.03516Z" fill="white"/>
<path d="M6.32482 0.101562H0.640625V5.78576H6.32482V0.101562Z" fill="white"/>
<path d="M15.2582 17.9668H9.57397V23.651H15.2582V17.9668Z" fill="white"/>
<path d="M15.2582 9.03516H9.57397V14.7194H15.2582V9.03516Z" fill="white"/>
<path d="M15.2582 0.101562H9.57397V5.78576H15.2582V0.101562Z" fill="white"/>
<path d="M24.1898 17.9668H18.5056V23.651H24.1898V17.9668Z" fill="white"/>
<path d="M24.1898 9.03516H18.5056V14.7194H24.1898V9.03516Z" fill="white"/>
<path d="M24.1898 0.101562H18.5056V5.78576H24.1898V0.101562Z" fill="white"/>
</g>
<defs>
<clipPath id="clip0">
<rect width="23.5488" height="23.5488" fill="white" transform="translate(0.640625 0.101562)"/>
</clipPath>
</defs>
</svg>
