<svg width="18" height="15" viewBox="0 0 18 15" fill="none" xmlns="http://www.w3.org/2000/svg">
<path fill-rule="evenodd" clip-rule="evenodd" d="M15.9008 3.86183C15.907 4.01359 15.9105 4.16624 15.9105 4.31978C15.9105 8.99032 12.4027 14.375 5.98781 14.375C4.01807 14.375 2.18488 13.7903 0.640625 12.7878C0.91371 12.8199 1.1912 12.8369 1.47309 12.8369C3.1072 12.8369 4.61093 12.2718 5.80458 11.3238C4.27794 11.2952 2.99004 10.2731 2.54694 8.86891C2.75924 8.91087 2.97771 8.93318 3.20234 8.93318C3.52035 8.93318 3.82868 8.88944 4.12114 8.8091C2.52579 8.48416 1.32422 7.05586 1.32422 5.34369C1.32422 5.32852 1.32422 5.31334 1.32422 5.29906C1.79463 5.56329 2.33199 5.72219 2.90371 5.74094C1.96817 5.10713 1.35241 4.02519 1.35241 2.79954C1.35241 2.15145 1.52419 1.54442 1.82458 1.0222C3.54502 3.16018 6.11466 4.56795 9.01289 4.71524C8.95387 4.45636 8.92304 4.18677 8.92304 3.90915C8.92304 1.95773 10.484 0.375 12.4106 0.375C13.414 0.375 14.3204 0.804382 14.9565 1.49175C15.7511 1.33285 16.4972 1.03916 17.1711 0.633879C16.9112 1.45872 16.358 2.15145 15.6374 2.58886C16.343 2.50406 17.0152 2.31391 17.6406 2.03272C17.1729 2.74151 16.5818 3.36371 15.9008 3.86183Z" fill="white"/>
</svg>
