<svg width="26" height="19" viewBox="0 0 26 19" fill="none" xmlns="http://www.w3.org/2000/svg">
<path fill-rule="evenodd" clip-rule="evenodd" d="M5.1087 14.2663C1.61721 12.2051 0 9.375 0 9.375C0 9.375 4 2.375 13 2.375C14.3045 2.375 15.504 2.52206 16.6014 2.77356L15.7519 3.6231C14.8971 3.46505 13.9801 3.375 13 3.375C5 3.375 1.19995 9.375 1.19995 9.375C1.19995 9.375 2.71473 11.7667 5.84493 13.5301L5.1087 14.2663ZM9.39856 15.9764C10.496 16.2279 11.6955 16.375 13 16.375C22 16.375 26 9.375 26 9.375C26 9.375 24.3828 6.54489 20.8913 4.4837L20.1551 5.21993C23.2853 6.98328 24.8 9.375 24.8 9.375C24.8 9.375 21 15.375 13 15.375C12.0199 15.375 11.1029 15.2849 10.2481 15.1269L9.39856 15.9764ZM16.8987 8.47635C16.965 8.76521 17 9.06601 17 9.375C17 11.5841 15.2091 13.375 13 13.375C12.691 13.375 12.3902 13.34 12.1013 13.2737L13 12.375C13.7678 12.375 14.5355 12.0821 15.1213 11.4963C15.7071 10.9105 16 10.1428 16 9.375L16.8987 8.47635ZM13.8987 5.47635C13.6098 5.41003 13.309 5.375 13 5.375C10.7909 5.375 9 7.16586 9 9.375C9 9.68399 9.03503 9.98479 9.10135 10.2737L10 9.375C10 8.60723 10.2929 7.83947 10.8787 7.25368C11.4645 6.66789 12.2322 6.375 13 6.375L13.8987 5.47635ZM21 0.375L4 17.375L5 18.375L22 1.375L21 0.375Z" fill="#9B9B9B"/>
</svg>
