<svg width="21" height="15" viewBox="0 0 21 15" fill="none" xmlns="http://www.w3.org/2000/svg">
<path fill-rule="evenodd" clip-rule="evenodd" d="M8.57562 9.95673L8.575 4.36407L13.9788 7.17004L8.57562 9.95673ZM20.4406 3.39495C20.4406 3.39495 20.245 2.02338 19.6456 1.41939C18.885 0.6263 18.0325 0.622567 17.6419 0.576537C14.8431 0.375 10.645 0.375 10.645 0.375H10.6362C10.6362 0.375 6.43812 0.375 3.63937 0.576537C3.24813 0.622567 2.39625 0.6263 1.635 1.41939C1.03562 2.02338 0.840625 3.39495 0.840625 3.39495C0.840625 3.39495 0.640625 5.006 0.640625 6.61644V8.12672C0.640625 9.73778 0.840625 11.3482 0.840625 11.3482C0.840625 11.3482 1.03562 12.7198 1.635 13.3238C2.39625 14.1169 3.39563 14.092 3.84063 14.1747C5.44063 14.3277 10.6406 14.375 10.6406 14.375C10.6406 14.375 14.8431 14.3688 17.6419 14.1672C18.0325 14.1206 18.885 14.1169 19.6456 13.3238C20.245 12.7198 20.4406 11.3482 20.4406 11.3482C20.4406 11.3482 20.6406 9.73778 20.6406 8.12672V6.61644C20.6406 5.006 20.4406 3.39495 20.4406 3.39495Z" fill="white"/>
</svg>
