<svg width="25" height="24" viewBox="0 0 25 24" fill="none" xmlns="http://www.w3.org/2000/svg">
<path fill-rule="evenodd" clip-rule="evenodd" d="M5.79858 14C6.90315 14 7.79858 13.1046 7.79858 12C7.79858 10.8954 6.90315 10 5.79858 10C4.69401 10 3.79858 10.8954 3.79858 12C3.79858 13.1046 4.69401 14 5.79858 14ZM12.7986 14C13.9032 14 14.7986 13.1046 14.7986 12C14.7986 10.8954 13.9032 10 12.7986 10C11.694 10 10.7986 10.8954 10.7986 12C10.7986 13.1046 11.694 14 12.7986 14ZM21.7986 12C21.7986 13.1046 20.9032 14 19.7986 14C18.694 14 17.7986 13.1046 17.7986 12C17.7986 10.8954 18.694 10 19.7986 10C20.9032 10 21.7986 10.8954 21.7986 12Z" fill="#A0A7BA"/>
</svg>
