<svg width="43" height="14" viewBox="0 0 43 14" fill="none" xmlns="http://www.w3.org/2000/svg">
<path d="M17.4744 0.326172L15.3145 13.0014H18.7689L20.9306 0.326172H17.4744Z" fill="white"/>
<path d="M12.4179 0.340556L9.03456 8.98467L8.67383 7.67948C8.00658 6.10685 6.11232 3.84831 3.88843 2.42495L6.98215 12.9953L10.6374 12.9891L16.0776 0.337891L12.4179 0.340556Z" fill="white"/>
<path d="M7.36237 1.24851C7.16157 0.476412 6.57961 0.246293 5.85727 0.21875H0.501456L0.457031 0.471081C4.62494 1.48218 7.38281 3.91842 8.52718 6.84777L7.36237 1.24851Z" fill="white"/>
<path d="M27.9317 2.75707C29.0619 2.7393 29.8811 2.9863 30.5172 3.24219L30.8291 3.38879L31.2964 0.64158C30.6123 0.384807 29.5399 0.109375 28.2018 0.109375C24.7882 0.109375 22.3822 1.8286 22.3636 4.29238C22.3413 6.1129 24.0774 7.12933 25.3889 7.73617C26.7349 8.35811 27.1863 8.75349 27.1801 9.30879C27.1694 10.1573 26.1068 10.5465 25.1143 10.5465C23.7309 10.5465 22.9962 10.3554 21.8616 9.88276L21.4164 9.68018L20.9304 12.5171C21.7389 12.8716 23.2307 13.1764 24.7794 13.1924C28.4106 13.1924 30.7704 11.4936 30.7953 8.861C30.8104 7.42076 29.8891 6.32169 27.8926 5.41988C26.6843 4.8317 25.9451 4.44076 25.9522 3.84725C25.9522 3.32038 26.5794 2.75707 27.9317 2.75707Z" fill="white"/>
<path fill-rule="evenodd" clip-rule="evenodd" d="M37.4928 0.341797H40.1618L42.957 13.0099H39.7522C39.7522 13.0099 39.4342 11.5536 39.3311 11.1112C39.0654 11.1112 37.9531 11.1097 36.9058 11.1083C35.9743 11.107 35.0943 11.1058 34.9073 11.1058C34.7731 11.4479 34.1814 13.0099 34.1814 13.0099H30.5537L35.683 1.39377C36.0472 0.567473 36.6639 0.341797 37.4928 0.341797ZM37.2779 4.96907C37.2779 4.96907 36.1859 7.7838 35.9016 8.51147H38.7714L37.9709 4.85179L37.7381 3.75894C37.6508 3.99233 37.5343 4.29523 37.4403 4.53974C37.3421 4.79509 37.2683 4.98677 37.2779 4.96907Z" fill="white"/>
</svg>
