<svg width="65" height="35" viewBox="0 0 65 35" fill="none" xmlns="http://www.w3.org/2000/svg">
<path d="M13.8337 17.2941L13.8344 17.3411L13.8357 20.217H50.5502L50.5522 17.2986C50.6443 13.9765 52.7445 11.2177 55.6818 10.1561C54.1351 4.67299 49.1005 0.652344 43.1223 0.652344H21.2636C15.2856 0.652344 10.2508 4.67283 8.7041 10.1561C11.6414 11.2174 13.7416 13.9755 13.8337 17.2941Z" fill="white"/>
<path d="M58.3709 11.7559C55.1068 11.7559 52.4527 14.3569 52.3629 17.5992L52.3606 22.2848H12.0222L12.0201 17.5992C11.9303 14.3569 9.27599 11.7559 6.01211 11.7559C2.69169 11.7559 0 14.4477 0 17.7683C0 21.0887 2.69169 23.7802 6.01211 23.7802C6.1184 23.7802 6.21547 23.7773 6.32028 23.7718C6.32028 23.7718 6.32374 27.1123 6.32374 27.1732C6.32374 29.8731 8.51247 32.0615 11.2121 32.0615H12.2887V33.4723C12.2887 33.7723 12.5321 34.0157 12.8321 34.0157H16.448C16.7479 34.0157 16.9913 33.7723 16.9913 33.4723V32.0615H47.3913V33.4723C47.3913 33.7723 47.6347 34.0157 47.9347 34.0157H51.5506C51.8505 34.0157 52.0939 33.7723 52.0939 33.4723V32.0615H53.1678C55.8677 32.0615 58.0561 29.8731 58.0561 27.1732C58.0561 27.1488 58.0545 27.1245 58.0541 27.1002V23.772C58.1591 23.7774 58.2644 23.7804 58.3707 23.7804C61.691 23.7804 64.3828 21.0889 64.3828 17.7685C64.3831 14.4477 61.6913 11.7559 58.3709 11.7559Z" fill="white"/>
</svg>
