<svg width="208" height="120" viewBox="0 0 208 120" fill="none" xmlns="http://www.w3.org/2000/svg">
<path opacity="0.1" d="M153.018 118.998C155.225 118.998 157.015 116.642 157.015 113.736C157.015 110.831 155.225 108.475 153.018 108.475C150.81 108.475 149.021 110.831 149.021 113.736C149.021 116.642 150.81 118.998 153.018 118.998Z" fill="#3F3D56"/>
<path opacity="0.1" d="M156.181 91.2289C156.741 90.2515 157.031 89.1414 157.022 88.0133C157.022 85.1016 155.232 82.7522 153.025 82.7522C150.817 82.7522 149.03 85.107 149.03 88.0133C149.018 89.1407 149.306 90.2507 149.864 91.2289C148.752 93.2261 148.752 95.6612 149.864 97.6584C148.752 99.6562 148.752 102.092 149.864 104.09C149.306 105.068 149.018 106.178 149.03 107.305C149.03 110.217 150.819 112.566 153.025 112.566C155.231 112.566 157.022 110.212 157.022 107.305C157.033 106.178 156.745 105.068 156.188 104.09C157.3 102.092 157.3 99.6562 156.188 97.6584C157.3 95.6612 157.3 93.2261 156.188 91.2289H156.181Z" fill="#3F3D56"/>
<path opacity="0.1" d="M153.018 86.845C155.225 86.845 157.015 84.4895 157.015 81.5839C157.015 78.6782 155.225 76.3228 153.018 76.3228C150.81 76.3228 149.021 78.6782 149.021 81.5839C149.021 84.4895 150.81 86.845 153.018 86.845Z" fill="#3F3D56"/>
<path opacity="0.1" d="M153.018 80.4138C155.225 80.4138 157.015 78.0583 157.015 75.1527C157.015 72.2471 155.225 69.8916 153.018 69.8916C150.81 69.8916 149.021 72.2471 149.021 75.1527C149.021 78.0583 150.81 80.4138 153.018 80.4138Z" fill="#3F3D56"/>
<path opacity="0.1" d="M167.978 31.1456C168.524 30.4462 169.021 29.7099 169.466 28.9418L158.971 27.2075L170.329 27.2931C172.529 22.4746 172.66 16.9578 170.691 12.0393L155.451 19.9847L169.507 9.60076C165.917 3.36929 159.169 -0.325969 152.016 0.0226646C144.864 0.371298 138.503 4.70553 135.528 11.257C132.554 17.8084 133.464 25.4815 137.887 31.1456C137.036 32.2337 136.305 33.4106 135.705 34.6561L149.335 41.7789L134.802 36.8653C132.724 43.027 133.881 49.8272 137.878 54.9435C131.705 62.8359 132.601 74.1742 139.935 80.9876C147.269 87.801 158.578 87.801 165.912 80.9876C173.246 74.1742 174.142 62.8359 167.969 54.9435C173.432 47.9593 173.432 38.1225 167.969 31.1384L167.978 31.1456Z" fill="#F8765E"/>
<path opacity="0.1" d="M40.2933 111.947C41.6412 111.947 42.7339 110.533 42.7339 108.788C42.7339 107.043 41.6412 105.629 40.2933 105.629C38.9455 105.629 37.8528 107.043 37.8528 108.788C37.8528 110.533 38.9455 111.947 40.2933 111.947Z" fill="#3F3D56"/>
<path opacity="0.1" d="M42.2345 95.2727C42.5751 94.6852 42.7513 94.0184 42.7447 93.3412C42.7447 91.5964 41.6552 90.1819 40.3024 90.1819C38.9495 90.1819 37.8618 91.5964 37.8618 93.3412C37.8547 94.0183 38.0302 94.685 38.3702 95.2727C37.6925 96.4726 37.6925 97.9341 38.3702 99.134C37.6925 100.334 37.6925 101.795 38.3702 102.995C38.0299 103.582 37.8544 104.248 37.8618 104.925C37.8618 106.672 38.9513 108.086 40.3024 108.086C41.6534 108.086 42.7447 106.672 42.7447 104.925C42.7516 104.248 42.5754 103.582 42.2345 102.995C42.9143 101.796 42.9143 100.333 42.2345 99.134C42.9143 97.9346 42.9143 96.4721 42.2345 95.2727Z" fill="#3F3D56"/>
<path opacity="0.1" d="M40.2933 92.6395C41.6412 92.6395 42.7339 91.225 42.7339 89.4801C42.7339 87.7353 41.6412 86.3208 40.2933 86.3208C38.9455 86.3208 37.8528 87.7353 37.8528 89.4801C37.8528 91.225 38.9455 92.6395 40.2933 92.6395Z" fill="#3F3D56"/>
<path opacity="0.1" d="M40.2933 88.7782C41.6412 88.7782 42.7339 87.3637 42.7339 85.6188C42.7339 83.874 41.6412 82.4595 40.2933 82.4595C38.9455 82.4595 37.8528 83.874 37.8528 85.6188C37.8528 87.3637 38.9455 88.7782 40.2933 88.7782Z" fill="#3F3D56"/>
<path opacity="0.1" d="M31.1577 59.1917C30.8244 58.772 30.521 58.33 30.2498 57.8687L36.6653 56.8275L29.7268 56.8796C28.3843 53.9876 28.3036 50.6773 29.5035 47.7247L38.8063 52.5014L30.2225 46.2545C32.4169 42.5151 36.5384 40.2985 40.9064 40.5086C45.2743 40.7187 49.1587 43.3203 50.9755 47.2526C52.7922 51.1849 52.2378 55.7907 49.5382 59.1917C50.0577 59.8441 50.5046 60.5501 50.871 61.2973L42.5434 65.5768L51.423 62.631C52.69 66.3324 51.9811 70.4158 49.5382 73.4877C53.3087 78.227 52.7614 85.0351 48.281 89.1262C43.8005 93.2173 36.8917 93.2173 32.4113 89.1262C27.9308 85.0351 27.3835 78.227 31.1541 73.4877C27.8174 69.2931 27.8174 63.3862 31.1541 59.1917H31.1577Z" fill="#F8765E"/>
<path opacity="0.1" d="M95.2843 114.955C97.092 114.955 98.5574 113.051 98.5574 110.704C98.5574 108.356 97.092 106.453 95.2843 106.453C93.4766 106.453 92.0112 108.356 92.0112 110.704C92.0112 113.051 93.4766 114.955 95.2843 114.955Z" fill="#3F3D56"/>
<path opacity="0.1" d="M97.8751 92.5155C98.3313 91.7245 98.5668 90.8273 98.5574 89.9161C98.5574 87.5694 97.1019 85.665 95.2825 85.665C93.4631 85.665 92.0076 87.5694 92.0076 89.9161C91.998 90.8276 92.2342 91.725 92.6917 92.5155C91.7797 94.1296 91.7797 96.0982 92.6917 97.7124C91.7797 99.3259 91.7797 101.294 92.6917 102.908C92.2342 103.698 91.998 104.595 92.0076 105.507C92.0076 107.854 93.474 109.758 95.2825 109.758C97.091 109.758 98.5574 107.854 98.5574 105.507C98.5668 104.596 98.3313 103.698 97.8751 102.908C98.785 101.293 98.785 99.3265 97.8751 97.7124C98.785 96.0977 98.785 94.1302 97.8751 92.5155Z" fill="#3F3D56"/>
<path opacity="0.1" d="M95.2843 88.9718C97.092 88.9718 98.5574 87.0686 98.5574 84.7208C98.5574 82.373 97.092 80.4697 95.2843 80.4697C93.4766 80.4697 92.0112 82.373 92.0112 84.7208C92.0112 87.0686 93.4766 88.9718 95.2843 88.9718Z" fill="#3F3D56"/>
<path opacity="0.1" d="M95.2843 83.7751C97.092 83.7751 98.5574 81.8718 98.5574 79.524C98.5574 77.1762 97.092 75.2729 95.2843 75.2729C93.4766 75.2729 92.0112 77.1762 92.0112 79.524C92.0112 81.8718 93.4766 83.7751 95.2843 83.7751Z" fill="#3F3D56"/>
<path opacity="0.1" d="M83.038 43.9632C82.5906 43.3986 82.1833 42.8039 81.819 42.1833L90.4193 40.7826L81.1186 40.8512C79.315 36.9577 79.2064 32.4993 80.8184 28.524L93.2994 34.9466L81.7881 26.5528C84.7196 21.4983 90.2539 18.4947 96.125 18.7718C101.996 19.049 107.218 22.5603 109.653 27.8682C112.087 33.176 111.326 39.389 107.68 43.9632C108.376 44.8427 108.975 45.7941 109.466 46.8008L98.3027 52.5556L110.207 48.5843C111.906 53.5648 110.955 59.0597 107.68 63.1931C112.735 69.5707 112.001 78.7323 105.994 84.2376C99.9868 89.7429 90.7237 89.7429 84.7164 84.2376C78.7092 78.7323 77.9753 69.5707 83.0307 63.1931C78.5576 57.5486 78.5576 49.6005 83.0307 43.956L83.038 43.9632Z" fill="#F8765E"/>
<path d="M207.541 115.069C207.541 116.297 198.451 117.42 183.423 118.288C180.69 118.443 177.762 118.592 174.656 118.731C171.972 118.85 169.16 118.963 166.218 119.069C163.368 119.169 160.408 119.262 157.34 119.348C147.649 119.622 136.936 119.818 125.555 119.917C122.793 119.942 119.994 119.961 117.159 119.974C114.205 119.987 111.217 119.993 108.196 119.992C53.3287 119.992 8.85254 117.79 8.85254 115.074C8.85254 112.357 53.3287 110.156 108.196 110.156C131.818 110.156 153.51 110.566 170.56 111.245L172.424 111.32H172.435C193.912 112.22 207.541 113.574 207.541 115.069Z" fill="#3F3D56"/>
<path opacity="0.15" d="M207.541 115.069C207.541 116.297 198.451 117.42 183.423 118.288C180.69 118.443 177.762 118.592 174.656 118.731C171.972 118.85 169.16 118.963 166.218 119.069C163.368 119.169 160.408 119.262 157.34 119.348C147.649 119.622 136.936 119.818 125.555 119.917C122.793 119.942 119.994 119.961 117.159 119.974C114.205 119.987 111.217 119.993 108.196 119.992C53.3287 119.992 8.85254 117.79 8.85254 115.074C8.85254 112.357 53.3287 110.156 108.196 110.156C131.818 110.156 153.51 110.566 170.56 111.245L172.424 111.32H172.435C193.912 112.22 207.541 113.574 207.541 115.069Z" fill="black"/>
<path d="M198.689 114.588C198.689 115.693 189.599 116.705 174.571 117.475C171.84 117.615 168.909 117.748 165.805 117.873C163.12 117.981 160.308 118.082 157.367 118.177C154.517 118.267 151.558 118.351 148.489 118.429C138.797 118.676 128.084 118.853 116.703 118.941C113.943 118.963 111.144 118.98 108.306 118.991C105.352 119.003 102.365 119.008 99.3452 119.008C44.478 119.008 0 117.028 0 114.582C0 112.136 44.478 110.156 99.3452 110.156C122.965 110.156 144.658 110.524 161.707 111.136L163.572 111.203H163.584C185.069 112.025 198.689 113.235 198.689 114.588Z" fill="#3F3D56"/>
<path d="M26.1317 75.7299L23.6064 67.5752L84.0797 66.8774L86.5573 74.951L26.1317 75.7299Z" fill="#3F3D56"/>
<path opacity="0.15" d="M26.1317 75.7299L23.6064 67.5752L84.0797 66.8774L86.5573 74.951L26.1317 75.7299Z" fill="black"/>
<path d="M22.1973 75.7299L19.6721 67.5752L80.1454 66.8774L82.6229 74.951L22.1973 75.7299Z" fill="#9BDBE7"/>
<path d="M124.165 64.8773C118.001 64.8773 113.142 62.429 109.59 57.5324C106.038 52.6357 104.262 46.7038 104.262 39.7367C104.262 32.7225 105.98 26.8027 109.415 21.9772C112.85 17.1516 117.696 14.7413 123.952 14.7461C130.586 14.7461 135.585 17.2884 138.948 22.3731C142.311 27.4577 143.993 33.3426 143.994 40.0277C143.994 46.6647 142.254 52.4664 138.773 57.4329C135.292 62.3995 130.423 64.8809 124.165 64.8773ZM124.346 59.369C128.401 59.369 131.433 57.6005 133.439 54.0633C135.446 50.5261 136.449 46.0669 136.449 40.6858C136.449 34.696 135.422 29.7916 133.369 25.9723C131.315 22.1531 128.165 20.2429 123.92 20.2417C115.849 20.2417 111.814 26.6557 111.814 39.4836C111.814 52.7418 115.99 59.3703 124.342 59.369H124.346ZM126.377 112.118H117.46L175.832 15.7277H184.581L126.377 112.118ZM178.017 113.107C171.759 113.107 166.881 110.636 163.382 105.695C159.883 100.754 158.126 94.8212 158.112 87.8974C158.112 80.9303 159.818 75.034 163.229 70.2084C166.64 65.3829 171.498 62.9725 177.802 62.9773C184.389 62.9773 189.353 65.5197 192.693 70.6043C196.033 75.689 197.704 81.5733 197.705 88.2572C197.705 94.8507 195.976 100.642 192.518 105.63C189.06 110.618 184.225 113.11 178.013 113.107H178.017ZM178.122 107.457C182.158 107.457 185.173 105.719 187.166 102.242C189.16 98.7651 190.156 94.324 190.156 88.9188C190.156 83.134 189.148 78.2825 187.13 74.3645C185.112 70.4465 181.969 68.4844 177.701 68.4784C169.584 68.4784 165.525 74.8923 165.525 87.7203C165.523 100.88 169.72 107.459 178.118 107.457H178.122Z" fill="#3F3D56"/>
<path d="M124.165 64.8773C118.001 64.8773 113.142 62.429 109.59 57.5324C106.038 52.6357 104.262 46.7038 104.262 39.7367C104.262 32.7225 105.98 26.8027 109.415 21.9772C112.85 17.1516 117.696 14.7413 123.952 14.7461C130.586 14.7461 135.585 17.2884 138.948 22.3731C142.311 27.4577 143.993 33.3426 143.994 40.0277C143.994 46.6647 142.254 52.4664 138.773 57.4329C135.292 62.3995 130.423 64.8809 124.165 64.8773ZM124.346 59.369C128.401 59.369 131.433 57.6005 133.439 54.0633C135.446 50.5261 136.449 46.0669 136.449 40.6858C136.449 34.696 135.422 29.7916 133.369 25.9723C131.315 22.1531 128.165 20.2429 123.92 20.2417C115.849 20.2417 111.814 26.6557 111.814 39.4836C111.814 52.7418 115.99 59.3703 124.342 59.369H124.346ZM126.377 112.118H117.46L175.832 15.7277H184.581L126.377 112.118ZM178.017 113.107C171.759 113.107 166.881 110.636 163.382 105.695C159.883 100.754 158.126 94.8212 158.112 87.8974C158.112 80.9303 159.818 75.034 163.229 70.2084C166.64 65.3829 171.498 62.9725 177.802 62.9773C184.389 62.9773 189.353 65.5197 192.693 70.6043C196.033 75.689 197.704 81.5733 197.705 88.2572C197.705 94.8507 195.976 100.642 192.518 105.63C189.06 110.618 184.225 113.11 178.013 113.107H178.017ZM178.122 107.457C182.158 107.457 185.173 105.719 187.166 102.242C189.16 98.7651 190.156 94.324 190.156 88.9188C190.156 83.134 189.148 78.2825 187.13 74.3645C185.112 70.4465 181.969 68.4844 177.701 68.4784C169.584 68.4784 165.525 74.8923 165.525 87.7203C165.523 100.88 169.72 107.459 178.118 107.457H178.122Z" fill="#3F3D56"/>
<path opacity="0.15" d="M124.165 64.8773C118.001 64.8773 113.142 62.429 109.59 57.5324C106.038 52.6357 104.262 46.7038 104.262 39.7367C104.262 32.7225 105.98 26.8027 109.415 21.9772C112.85 17.1516 117.696 14.7413 123.952 14.7461C130.586 14.7461 135.585 17.2884 138.948 22.3731C142.311 27.4577 143.993 33.3426 143.994 40.0277C143.994 46.6647 142.254 52.4664 138.773 57.4329C135.292 62.3995 130.423 64.8809 124.165 64.8773ZM124.346 59.369C128.401 59.369 131.433 57.6005 133.439 54.0633C135.446 50.5261 136.449 46.0669 136.449 40.6858C136.449 34.696 135.422 29.7916 133.369 25.9723C131.315 22.1531 128.165 20.2429 123.92 20.2417C115.849 20.2417 111.814 26.6557 111.814 39.4836C111.814 52.7418 115.99 59.3703 124.342 59.369H124.346ZM126.377 112.118H117.46L175.832 15.7277H184.581L126.377 112.118ZM178.017 113.107C171.759 113.107 166.881 110.636 163.382 105.695C159.883 100.754 158.126 94.8212 158.112 87.8974C158.112 80.9303 159.818 75.034 163.229 70.2084C166.64 65.3829 171.498 62.9725 177.802 62.9773C184.389 62.9773 189.353 65.5197 192.693 70.6043C196.033 75.689 197.704 81.5733 197.705 88.2572C197.705 94.8507 195.976 100.642 192.518 105.63C189.06 110.618 184.225 113.11 178.013 113.107H178.017ZM178.122 107.457C182.158 107.457 185.173 105.719 187.166 102.242C189.16 98.7651 190.156 94.324 190.156 88.9188C190.156 83.134 189.148 78.2825 187.13 74.3645C185.112 70.4465 181.969 68.4844 177.701 68.4784C169.584 68.4784 165.525 74.8923 165.525 87.7203C165.523 100.88 169.72 107.459 178.118 107.457H178.122Z" fill="black"/>
<path d="M118.264 64.8773C112.099 64.8773 107.241 62.429 103.689 57.5324C100.137 52.6357 98.3606 46.7038 98.3606 39.7367C98.3606 32.7225 100.078 26.8027 103.513 21.9772C106.949 17.1516 111.794 14.7413 118.05 14.7461C124.685 14.7461 129.683 17.2884 133.046 22.3731C136.409 27.4577 138.091 33.3426 138.093 40.0277C138.093 46.6647 136.352 52.4664 132.871 57.4329C129.39 62.3995 124.521 64.8809 118.264 64.8773ZM118.444 59.369C122.5 59.369 125.531 57.6005 127.538 54.0633C129.544 50.5261 130.548 46.0669 130.548 40.6858C130.548 34.696 129.521 29.7916 127.467 25.9723C125.413 22.1531 122.264 20.2429 118.018 20.2417C109.948 20.2417 105.913 26.6557 105.913 39.4836C105.913 52.7418 110.089 59.3703 118.441 59.369H118.444ZM120.475 112.118H111.559L169.931 15.7277H178.679L120.475 112.118ZM172.115 113.107C165.858 113.107 160.98 110.636 157.481 105.695C153.982 100.754 152.225 94.8212 152.21 87.8974C152.21 80.9303 153.916 75.034 157.327 70.2084C160.738 65.3829 165.596 62.9725 171.9 62.9773C178.488 62.9773 183.451 65.5197 186.791 70.6043C190.131 75.689 191.802 81.5733 191.803 88.2572C191.803 94.8507 190.074 100.642 186.616 105.63C183.158 110.618 178.323 113.11 172.112 113.107H172.115ZM172.22 107.457C176.256 107.457 179.271 105.719 181.265 102.242C183.258 98.7651 184.255 94.324 184.255 88.9188C184.255 83.134 183.246 78.2825 181.228 74.3645C179.211 70.4465 176.067 68.4844 171.795 68.4784C163.678 68.4784 159.62 74.8923 159.62 87.7203C159.62 100.88 163.819 107.459 172.216 107.457H172.22Z" fill="#9BDBE7"/>
<path d="M137.97 114.09C138.717 112.706 137.869 111.009 136.894 109.773C135.918 108.537 134.729 107.253 134.755 105.678C134.791 103.418 137.191 102.082 139.105 100.882C140.529 99.9926 141.842 98.9375 143.017 97.7388C143.509 97.2771 143.916 96.7322 144.219 96.1292C144.616 95.2447 144.603 94.2387 144.581 93.2707C144.498 90.0419 144.339 86.8178 144.103 83.5986" stroke="#3F3D56" stroke-width="4"/>
<path d="M147.537 82.946C147.483 81.7745 146.836 80.7115 145.819 80.1261L145.048 81.651L145.071 79.8041C144.703 79.6966 144.32 79.6506 143.937 79.6679C142.038 79.7569 140.571 81.3686 140.66 83.2678C140.749 85.167 142.36 86.6346 144.259 86.5457C146.158 86.4569 147.626 84.8452 147.537 82.946Z" fill="#F8765E"/>
<path d="M142.237 107.305C141.493 108.752 139.837 109.48 138.269 109.049C136.7 108.619 135.647 107.148 135.744 105.524C135.841 103.899 137.063 102.565 138.672 102.325C140.281 102.085 141.838 103.006 142.404 104.532L140.253 106.282L142.623 105.73C142.622 106.278 142.49 106.818 142.237 107.305Z" fill="#F8765E"/>
<path d="M140.333 100.316C139.419 100.359 138.526 100.038 137.849 99.4237C137.172 98.8094 136.768 97.9523 136.725 97.041C136.699 96.5022 136.801 95.9648 137.023 95.4731C137.44 94.543 138.249 93.8447 139.232 93.5659L139.213 94.98L139.995 93.4386C141.898 93.3498 143.513 94.8162 143.603 96.714C143.692 98.6117 142.221 100.222 140.317 100.311L140.333 100.316Z" fill="#F8765E"/>
<path d="M149.208 95.3943C147.977 95.4768 146.798 94.8814 146.125 93.8375C145.453 92.7936 145.391 91.4641 145.964 90.3613C146.537 89.2585 147.656 88.5545 148.889 88.5206C149.526 88.4893 150.158 88.6407 150.713 88.9572L150.111 90.6221L151.35 89.422C152.016 90.0342 152.413 90.888 152.455 91.7957C152.47 92.1141 152.441 92.4331 152.367 92.7431C152.019 94.2404 150.729 95.3228 149.208 95.3943Z" fill="#F8765E"/>
<path opacity="0.1" d="M147.146 83.9082C146.342 83.9935 145.562 84.2372 144.755 84.286C143.948 84.3347 143.062 84.1467 142.552 83.5357C142.277 83.2085 142.141 82.7924 141.908 82.4338C141.689 82.1 141.387 81.8243 141.031 81.6313C140.421 82.8035 140.563 84.2133 141.395 85.2483C142.227 86.2834 143.599 86.7571 144.915 86.4637C146.232 86.1703 147.255 85.1628 147.541 83.8786C147.409 83.8856 147.278 83.8943 147.146 83.9082Z" fill="black"/>
<path opacity="0.1" d="M149.222 95.3983C148 95.4534 146.838 94.8722 146.16 93.8665C145.481 92.8608 145.385 91.5774 145.906 90.4839C146.183 90.6689 146.42 90.9044 146.607 91.1779C146.856 91.5479 147.006 91.9763 147.298 92.3162C147.836 92.9482 148.769 93.1535 149.609 93.1164C150.449 93.0792 151.262 92.842 152.101 92.7623C152.217 92.7517 152.335 92.7446 152.459 92.7411C152.103 94.2428 150.781 95.3281 149.222 95.3983Z" fill="black"/>
<path opacity="0.1" d="M140.407 100.316C139.474 100.359 138.562 100.034 137.872 99.4103C137.181 98.7871 136.769 97.9174 136.725 96.9927C136.698 96.446 136.802 95.9007 137.029 95.4019C137.32 95.5936 137.572 95.8368 137.773 96.1193C138.046 96.5013 138.218 96.9425 138.538 97.2958C139.131 97.9504 140.13 98.1818 141.029 98.1603C141.928 98.1387 142.74 97.9307 143.606 97.8643C143.166 99.2678 141.887 100.248 140.407 100.316Z" fill="black"/>
<path opacity="0.1" d="M140.656 107.199C139.902 108.914 138.118 109.643 136.6 108.857C135.083 108.071 134.364 106.047 134.967 104.254C135.224 104.45 135.455 104.688 135.652 104.961C135.948 105.38 136.144 105.855 136.487 106.244C137.128 106.968 138.155 107.266 139.072 107.294C139.601 107.299 140.13 107.267 140.656 107.199Z" fill="black"/>
<path d="M192.069 114.09C192.816 112.706 191.967 111.009 190.992 109.773C190.017 108.537 188.828 107.253 188.853 105.678C188.889 103.418 191.289 102.082 193.204 100.882C194.627 99.9926 195.94 98.9375 197.115 97.7388C197.607 97.2771 198.014 96.7322 198.317 96.1292C198.714 95.2447 198.702 94.2387 198.68 93.2707C198.596 90.0419 198.437 86.8178 198.201 83.5986" stroke="#3F3D56" stroke-width="4"/>
<path d="M202.619 82.946C202.565 81.7745 201.918 80.7115 200.901 80.1261L200.13 81.651L200.153 79.8041C199.785 79.6966 199.402 79.6506 199.019 79.6679C197.12 79.7569 195.653 81.3686 195.742 83.2678C195.831 85.167 197.442 86.6346 199.341 86.5457C201.24 86.4569 202.708 84.8452 202.619 82.946Z" fill="#F8765E"/>
<path d="M196.336 107.305C195.591 108.752 193.935 109.48 192.367 109.049C190.798 108.619 189.745 107.148 189.842 105.524C189.94 103.899 191.161 102.565 192.77 102.325C194.379 102.085 195.936 103.006 196.502 104.532L194.351 106.282L196.721 105.73C196.72 106.278 196.588 106.818 196.336 107.305Z" fill="#F8765E"/>
<path d="M194.427 100.316C193.514 100.359 192.622 100.038 191.946 99.4237C191.27 98.8094 190.866 97.9523 190.824 97.0409C190.797 96.5022 190.899 95.9648 191.121 95.4731C191.538 94.5429 192.346 93.8446 193.327 93.5659L193.308 94.9799L194.089 93.4386H194.098C195.328 93.3811 196.495 93.983 197.159 95.0174C197.824 96.0518 197.885 97.3617 197.32 98.4536C196.755 99.5455 195.65 100.254 194.42 100.311L194.427 100.316Z" fill="#F8765E"/>
<path d="M203.306 95.3943C202.075 95.4768 200.896 94.8814 200.224 93.8375C199.551 92.7936 199.489 91.4641 200.063 90.3613C200.636 89.2585 201.755 88.5545 202.988 88.5206C203.624 88.4893 204.257 88.6407 204.812 88.9572L204.209 90.6221L205.449 89.422C206.114 90.0342 206.511 90.888 206.553 91.7957C206.569 92.1141 206.539 92.4331 206.466 92.7431C206.118 94.2404 204.828 95.3228 203.306 95.3943Z" fill="#F8765E"/>
<path opacity="0.1" d="M202.228 83.9082C201.424 83.9935 200.644 84.2372 199.837 84.286C199.03 84.3347 198.144 84.1467 197.634 83.5357C197.359 83.2085 197.223 82.7924 196.99 82.4338C196.771 82.1 196.469 81.8243 196.113 81.6313C195.503 82.8035 195.645 84.2133 196.477 85.2483C197.309 86.2834 198.681 86.7571 199.997 86.4637C201.314 86.1703 202.337 85.1628 202.623 83.8786C202.491 83.8856 202.36 83.8943 202.228 83.9082Z" fill="black"/>
<path opacity="0.1" d="M203.32 94.4147C202.099 94.4697 200.937 93.8885 200.258 92.8828C199.58 91.8772 199.484 90.5938 200.005 89.5002C200.281 89.6852 200.519 89.9208 200.705 90.1942C200.954 90.5642 201.105 90.9926 201.397 91.3325C201.934 91.9646 202.867 92.1699 203.707 92.1327C204.548 92.0956 205.361 91.8583 206.199 91.7787C206.316 91.768 206.434 91.761 206.557 91.7574C206.201 93.2591 204.879 94.3444 203.32 94.4147Z" fill="black"/>
<path opacity="0.1" d="M194.505 100.316C193.572 100.359 192.66 100.034 191.97 99.4103C191.28 98.7871 190.867 97.9174 190.824 96.9927C190.796 96.446 190.901 95.9007 191.128 95.4019C191.418 95.5936 191.67 95.8368 191.871 96.1193C192.144 96.5013 192.316 96.9425 192.636 97.2958C193.23 97.9504 194.228 98.1818 195.127 98.1603C195.999 98.1423 196.838 97.9307 197.705 97.8643C197.265 99.2678 195.986 100.248 194.505 100.316Z" fill="black"/>
<path opacity="0.1" d="M196.721 107.199C195.967 108.914 194.183 109.643 192.666 108.857C191.148 108.071 190.43 106.047 191.033 104.254C191.289 104.45 191.52 104.688 191.717 104.961C192.014 105.38 192.209 105.855 192.553 106.244C193.194 106.968 194.22 107.266 195.137 107.294C195.666 107.299 196.195 107.267 196.721 107.199Z" fill="black"/>
<path d="M20.3904 111.14C19.6435 109.755 20.4919 108.058 21.4671 106.822C22.4424 105.586 23.6316 104.303 23.6062 102.727C23.5699 100.467 21.1698 99.1312 19.2556 97.9312C17.8319 97.0419 16.5188 95.9869 15.3437 94.7882C14.8516 94.3264 14.4448 93.7815 14.1419 93.1786C13.7449 92.294 13.7576 91.288 13.7793 90.3201C13.8627 87.0912 14.0222 83.8672 14.2579 80.6479" stroke="#3F3D56" stroke-width="4"/>
<path d="M9.84001 80.9787C9.89408 79.8073 10.5416 78.7442 11.5577 78.1588L12.329 79.6837L12.306 77.8368C12.674 77.7293 13.0571 77.6833 13.44 77.7006C15.3391 77.7896 16.8065 79.4013 16.7176 81.3006C16.6286 83.1998 15.017 84.6673 13.1179 84.5784C11.2188 84.4896 9.75123 82.878 9.84001 80.9787Z" fill="#F8765E"/>
<path d="M16.1234 104.354C16.8678 105.801 18.5235 106.529 20.0923 106.099C21.6611 105.668 22.7142 104.197 22.6168 102.573C22.5194 100.948 21.2981 99.6138 19.6891 99.3742C18.0801 99.1345 16.5233 100.055 15.9571 101.581L18.1081 103.331L15.7378 102.779C15.7388 103.327 15.871 103.868 16.1234 104.354Z" fill="#F8765E"/>
<path d="M18.0273 97.3654C18.9414 97.4081 19.8351 97.087 20.5117 96.4727C21.1883 95.8585 21.5925 95.0014 21.6352 94.09C21.662 93.5513 21.5599 93.0139 21.3373 92.5222C20.9201 91.592 20.1113 90.8937 19.1283 90.615L19.1478 92.029L18.3659 90.4877C16.4624 90.3989 14.8471 91.8653 14.758 93.763C14.6689 95.6608 16.1397 97.2712 18.0432 97.3601L18.0273 97.3654Z" fill="#F8765E"/>
<path d="M9.1528 92.4436C10.3836 92.5261 11.5625 91.9307 12.2353 90.8867C12.9081 89.8427 12.9697 88.5132 12.3964 87.4103C11.8231 86.3075 10.7045 85.6035 9.47139 85.5696C8.83769 85.5399 8.20855 85.6913 7.65612 86.0062L8.2583 87.6712L7.01019 86.4763C6.34627 87.0873 5.9491 87.9389 5.90562 88.8448C5.89012 89.1632 5.91959 89.4822 5.99315 89.7923C6.34123 91.2897 7.63114 92.3721 9.1528 92.4436Z" fill="#F8765E"/>
<path opacity="0.1" d="M10.2316 81.9412C11.035 82.0265 11.8152 82.2702 12.6222 82.3189C13.4292 82.3677 14.3149 82.1797 14.8248 81.5687C15.1004 81.2414 15.2364 80.8254 15.469 80.4668C15.6887 80.133 15.9899 79.8573 16.3458 79.6643C16.956 80.8365 16.8143 82.2462 15.9824 83.2813C15.1505 84.3164 13.7784 84.7901 12.4619 84.4967C11.1454 84.2033 10.122 83.1958 9.83618 81.9116C9.96859 81.9186 10.0992 81.9273 10.2316 81.9412Z" fill="black"/>
<path opacity="0.1" d="M9.13851 91.464C10.3603 91.519 11.5221 90.9378 12.2006 89.9322C12.8792 88.9265 12.9754 87.6431 12.4542 86.5496C12.1781 86.7345 11.9403 86.9701 11.7538 87.2435C11.5048 87.6135 11.3544 88.0419 11.0624 88.3819C10.525 89.0139 9.59172 89.2192 8.75159 89.182C7.91147 89.1449 7.09821 88.9076 6.25987 88.828C6.14344 88.8174 6.02521 88.8103 5.90161 88.8067C6.25749 90.3085 7.5795 91.3937 9.13851 91.464Z" fill="black"/>
<path opacity="0.1" d="M17.9541 98.349C18.8867 98.3924 19.7985 98.0666 20.4888 97.4433C21.1792 96.82 21.5915 95.9504 21.6351 95.0257C21.6625 94.479 21.5583 93.9337 21.3312 93.4348C21.041 93.6265 20.7889 93.8697 20.5878 94.1522C20.3146 94.5342 20.1428 94.9754 19.8226 95.3288C19.2293 95.9834 18.2308 96.2148 17.3318 96.1932C16.4599 96.1753 15.6206 95.9637 14.7542 95.8973C15.1941 97.3008 16.4733 98.2809 17.9541 98.349Z" fill="black"/>
<path opacity="0.1" d="M17.7048 104.248C18.4589 105.963 20.2426 106.692 21.7603 105.906C23.278 105.12 23.9963 103.096 23.3935 101.303C23.1367 101.499 22.906 101.737 22.7089 102.01C22.4123 102.429 22.2167 102.904 21.8736 103.293C21.2322 104.017 20.2061 104.315 19.2889 104.343C18.7598 104.348 18.2308 104.316 17.7048 104.248Z" fill="black"/>
<path d="M121.967 94.7729C121.974 93.8632 121.559 93.0039 120.849 92.4562C120.806 90.7593 119.622 89.3733 118.101 89.1587C117.862 87.9853 117.028 87.0316 115.915 86.6569C115.782 86.6138 115.646 86.581 115.508 86.5588H115.468L115.398 86.5496H115.338H115.278H115.201H115.154H115.025C113.473 86.5496 112.181 87.7634 111.915 89.3641C110.911 89.1272 109.99 89.4344 109.826 90.0839C109.783 90.2561 109.793 90.4373 109.853 90.6039C110.023 91.1072 110.576 91.5883 111.327 91.827L111.425 91.8566C111.474 91.8714 111.523 91.8825 111.572 91.8936H111.604C111.031 93.1438 111.517 94.6342 112.709 95.2818C112.687 95.2945 112.665 95.3087 112.644 95.3243C112.552 95.4114 112.478 95.5173 112.427 95.6352C112.246 95.9608 112.105 96.3083 112.008 96.6696C111.935 96.9786 111.922 97.3025 111.827 97.6078C111.662 98.1629 111.239 98.6496 111.19 99.2399C111.168 99.5026 111.21 99.8117 111.027 99.9912C110.981 100.031 110.933 100.068 110.882 100.1C110.754 100.19 110.646 100.306 110.564 100.441C110.51 100.552 110.439 100.654 110.352 100.741C110.187 100.868 109.916 100.855 109.835 101.051C109.753 101.248 109.963 101.479 109.914 101.694C109.874 101.868 109.688 101.947 109.552 102.064C109.401 102.232 109.295 102.438 109.245 102.661C108.698 102.769 108.132 102.622 107.702 102.26C107.775 102.45 107.828 102.648 107.861 102.85C107.646 102.615 107.291 102.547 107.029 102.424C106.69 102.266 106.388 102.036 106.142 101.751L106.616 101.684L104.518 98.4275L103.899 98.298L104.454 99.3879C104.362 99.4331 104.295 99.5191 104.273 99.6211C104.243 99.7419 104.236 99.8675 104.252 99.9912C104.281 100.283 104.329 100.573 104.395 100.859L104.556 101.625C104.569 101.697 104.587 101.768 104.608 101.838C104.398 101.83 104.188 101.854 103.986 101.91C103.57 101.753 103.136 101.648 102.696 101.597C102.599 101.58 102.499 101.585 102.404 101.612C102.297 101.663 102.204 101.741 102.133 101.838C101.771 102.266 101.45 102.728 101.174 103.218C100.047 105.224 98.5418 106.975 97.1325 108.788C96.1591 109.193 95.1786 109.578 94.1962 109.959L92.0849 110.783C91.6633 110.948 91.2255 111.116 90.7768 111.086C90.5742 111.073 90.3282 111.042 90.2142 111.218C90.1587 111.305 90.1155 111.4 90.0857 111.499C90.0116 111.499 89.9374 111.518 89.8686 111.521H89.856C89.7221 111.181 89.6063 110.816 89.3494 110.568C89.2444 110.585 89.1546 110.654 89.1106 110.753C89.0599 110.85 89.0292 110.955 88.9713 111.044C88.8573 111.214 88.6601 111.297 88.519 111.442C88.3779 111.586 88.2892 111.812 88.1373 111.952C87.9245 112.111 87.6751 112.209 87.4136 112.239C87.0219 112.334 86.6442 112.48 86.2901 112.676C86.1595 112.758 86.0198 112.824 85.874 112.872C85.7136 112.904 85.5494 112.909 85.3873 112.889L84.2693 112.805C84.1698 112.792 84.0688 112.797 83.9707 112.818C83.7339 112.907 83.5853 113.148 83.6089 113.405C83.6364 113.656 83.7641 113.883 83.9617 114.034C84.1558 114.18 84.3706 114.294 84.5985 114.373C85.5701 114.758 86.5717 115.058 87.5927 115.27V115.502C88.3004 115.866 89.0817 116.056 89.8741 116.057C89.9325 116.061 89.991 116.051 90.0441 116.025C90.1174 115.969 90.1682 115.887 90.1871 115.796C90.4243 115.07 90.5743 114.318 90.6339 113.555C90.7736 113.546 90.9105 113.51 91.0374 113.449C91.4227 113.342 91.8045 113.612 92.2007 113.657C92.6891 113.71 93.1433 113.42 93.6046 113.24C93.6715 113.214 93.7385 113.192 93.8054 113.17C93.6738 113.344 93.5184 113.498 93.3441 113.627C93.1523 113.768 92.937 113.871 92.7488 114.018C92.5925 114.164 92.4249 114.297 92.2477 114.415C92.1228 114.475 91.994 114.526 91.8624 114.567C91.6714 114.638 91.4893 114.732 91.3196 114.847C91.1676 114.938 91.0387 115.065 90.9433 115.217C90.8455 115.361 90.8278 115.546 90.8964 115.707C90.965 115.868 91.1101 115.98 91.2798 116.005C91.4309 116.032 91.5852 116.037 91.7375 116.018C92.3418 115.972 92.9442 115.914 93.5467 115.859C93.8018 115.841 94.0552 115.804 94.3047 115.748C94.4368 115.714 94.5671 115.67 94.6991 115.635C94.9245 115.574 95.1556 115.539 95.3884 115.529C95.456 115.524 95.524 115.531 95.5893 115.55C95.7304 115.596 95.8299 115.735 95.9728 115.772C96.0656 115.781 96.1592 115.768 96.246 115.733C96.687 115.635 97.1371 115.586 97.5884 115.587C97.7856 115.576 98.0172 115.537 98.1094 115.35C98.2216 115.119 98.0335 114.859 97.9593 114.61C97.9215 114.451 97.9008 114.288 97.8978 114.125C97.8634 113.722 97.7502 113.33 97.5649 112.972C97.4664 112.805 97.3834 112.629 97.317 112.446C98.1816 112.11 99.0088 111.681 99.7847 111.166C100.23 110.883 100.689 110.578 101.192 110.474C101.778 110.354 102.383 110.513 102.96 110.683C104.335 111.09 105.687 111.572 107.011 112.128C107.644 112.393 108.277 112.674 108.925 112.868C109.114 113.13 109.343 113.358 109.603 113.546C110.037 113.832 110.567 113.916 111.078 113.956C111.767 114.021 112.459 114.047 113.151 114.036C113.679 114.027 114.224 113.99 114.696 113.744C114.811 113.683 114.92 113.61 115.02 113.525C115.382 113.592 115.753 113.394 116.037 113.14C116.412 112.813 116.684 112.378 116.814 111.891C116.981 111.223 116.852 110.444 117.254 109.898C117.361 109.752 117.5 109.634 117.605 109.486C117.734 109.288 117.798 109.052 117.786 108.814L117.804 108.786C117.895 108.572 117.956 108.345 117.985 108.113C118.033 107.931 118.093 107.754 118.166 107.582C118.37 107.065 118.547 106.538 118.698 106.003C118.802 105.648 118.885 105.287 118.944 104.921C118.987 104.628 119.013 104.334 119.036 104.04C119.065 103.579 119.153 103.125 119.297 102.687C119.654 101.643 119.856 100.551 119.896 99.4453C119.896 99.4231 119.896 99.4027 119.896 99.3805C120.984 99.2584 121.803 98.3094 121.786 97.1896C121.787 96.8639 121.72 96.5417 121.591 96.244C121.84 95.796 121.97 95.2886 121.967 94.7729ZM111.736 107.487C111.767 107.6 111.803 107.713 111.839 107.826C111.673 107.658 111.508 107.484 111.34 107.317C111.407 107.337 111.474 107.36 111.539 107.384C111.608 107.412 111.675 107.446 111.738 107.487H111.736ZM110.926 106.932C109.938 106.055 108.794 105.374 107.783 104.527C108.326 104.806 108.869 105.13 109.411 105.441C110.043 105.811 110.683 106.165 111.329 106.503C111.223 106.667 111.088 106.81 110.931 106.925L110.926 106.932ZM111.347 104.723L111.394 104.673C111.394 104.797 111.394 104.913 111.394 105.019C111.306 104.989 111.213 104.96 111.128 104.926C111.206 104.861 111.28 104.791 111.349 104.715L111.347 104.723ZM102.65 107.099C103.057 106.628 103.411 106.112 103.705 105.561C104.096 106.262 104.733 106.767 105.276 107.354C104.404 107.228 103.53 107.13 102.652 107.091L102.65 107.099Z" fill="url(#paint0_linear)"/>
<path d="M104.262 97.3691L104.709 97.5159L106.229 101.157L105.558 101.304L104.262 97.3691Z" fill="#2F2E41"/>
<path d="M89.5083 111.167C89.6312 111.494 89.7826 111.813 89.9615 112.123C90.4758 112.037 90.9818 111.921 91.4755 111.776C91.38 111.656 91.2749 111.541 91.1611 111.433C91.0397 111.324 90.8946 111.234 90.733 111.168C90.5758 111.113 90.3816 111.154 90.2138 111.162C89.9786 111.169 89.7435 111.17 89.5083 111.167Z" fill="#FBBEBE"/>
<path d="M90.3853 111.805C90.0463 111.702 89.8384 111.373 89.7003 111.055C89.5623 110.737 89.4505 110.39 89.1883 110.156C89.087 110.171 89.0004 110.234 88.9577 110.324C88.907 110.408 88.8773 110.504 88.8196 110.585C88.7113 110.737 88.5191 110.811 88.381 110.94C88.243 111.07 88.1574 111.267 88.0088 111.396C87.8028 111.539 87.5621 111.628 87.3099 111.655C86.929 111.738 86.5612 111.87 86.216 112.046C86.0882 112.117 85.9522 112.173 85.8106 112.214C85.6545 112.243 85.4948 112.248 85.3371 112.229L84.2484 112.153C84.1516 112.142 84.0535 112.146 83.9583 112.167C83.7301 112.243 83.5858 112.46 83.6089 112.692C83.6381 112.919 83.7649 113.123 83.9583 113.255C84.1476 113.386 84.3561 113.488 84.5769 113.558C85.5254 113.902 86.5013 114.17 87.4951 114.361V114.568C88.1857 114.897 88.9454 115.07 89.7161 115.073C89.7759 115.078 89.8361 115.068 89.8908 115.044C89.9616 114.994 90.0113 114.921 90.0306 114.839C90.2918 114.104 90.4441 113.337 90.4832 112.561C90.5032 112.364 90.4878 112.166 90.4377 111.975C90.3783 111.787 90.581 111.866 90.3923 111.792" fill="#2F2E41"/>
<path d="M112.004 107.051C108.614 107.239 105.267 106.328 101.871 106.23C101.45 106.207 101.027 106.232 100.613 106.304C100.18 106.41 99.7618 106.559 99.3646 106.748C97.546 107.524 95.6631 108.166 93.782 108.809L91.6238 109.546C91.1907 109.692 90.7448 109.842 90.2841 109.816C90.0786 109.805 89.8272 109.776 89.7097 109.934C89.3592 110.41 89.5262 111.111 89.7574 111.646C89.8327 111.815 89.9593 112.008 90.1612 112.028C90.304 112.019 90.4438 111.987 90.5741 111.932C90.9668 111.836 91.3595 112.079 91.7633 112.117C92.2643 112.166 92.7286 111.905 93.2002 111.746C93.982 111.482 94.8372 111.49 95.6594 111.364C97.0394 111.154 98.3167 110.567 99.5133 109.897C99.9684 109.643 100.431 109.371 100.952 109.278C101.552 109.17 102.171 109.312 102.76 109.465C104.164 109.829 105.547 110.261 106.902 110.758C107.607 111.039 108.33 111.281 109.067 111.482C110.674 111.869 112.373 111.778 113.919 111.222C114.47 111.026 115.05 110.679 115.081 110.143C115.099 109.837 114.841 109.567 114.668 109.302C114.556 109.133 114.446 108.965 114.325 108.805C113.741 108.025 113.033 106.994 112.004 107.051Z" fill="#2F2E41"/>
<path opacity="0.1" d="M112.004 107.051C108.614 107.239 105.267 106.328 101.871 106.23C101.45 106.207 101.027 106.232 100.613 106.304C100.18 106.41 99.7618 106.559 99.3646 106.748C97.546 107.524 95.6631 108.166 93.782 108.809L91.6238 109.546C91.1907 109.692 90.7448 109.842 90.2841 109.816C90.0786 109.805 89.8272 109.776 89.7097 109.934C89.3592 110.41 89.5262 111.111 89.7574 111.646C89.8327 111.815 89.9593 112.008 90.1612 112.028C90.304 112.019 90.4438 111.987 90.5741 111.932C90.9668 111.836 91.3595 112.079 91.7633 112.117C92.2643 112.166 92.7286 111.905 93.2002 111.746C93.982 111.482 94.8372 111.49 95.6594 111.364C97.0394 111.154 98.3167 110.567 99.5133 109.897C99.9684 109.643 100.431 109.371 100.952 109.278C101.552 109.17 102.171 109.312 102.76 109.465C104.164 109.829 105.547 110.261 106.902 110.758C107.607 111.039 108.33 111.281 109.067 111.482C110.674 111.869 112.373 111.778 113.919 111.222C114.47 111.026 115.05 110.679 115.081 110.143C115.099 109.837 114.841 109.567 114.668 109.302C114.556 109.133 114.446 108.965 114.325 108.805C113.741 108.025 113.033 106.994 112.004 107.051Z" fill="black"/>
<path d="M96.3936 111.608C96.7944 111.794 97.198 111.966 97.6044 112.123C97.833 111.61 98.2597 111.255 98.3566 110.67C98.3621 110.645 98.3621 110.618 98.3566 110.592C98.346 110.567 98.3301 110.548 98.3109 110.535C98.0189 110.315 97.6948 110.186 97.3619 110.157C97.0987 110.134 96.9796 110.509 96.8604 110.772C96.8189 110.878 96.5002 111.658 96.3936 111.608Z" fill="#FBBEBE"/>
<path d="M96.3254 110.893C96.0287 110.844 95.7665 110.675 95.6032 110.427C95.5336 110.308 95.4605 110.148 95.3212 110.156C95.1818 110.165 95.1343 110.315 95.1054 110.44C95.0113 110.908 94.8754 111.367 94.6993 111.812C94.5217 112.257 94.221 112.646 93.831 112.932C93.6492 113.056 93.447 113.149 93.2686 113.28C93.1199 113.41 92.9608 113.528 92.7928 113.634C92.6745 113.687 92.5524 113.732 92.4275 113.767C92.2444 113.83 92.0694 113.914 91.9059 114.016C91.7625 114.099 91.6409 114.213 91.5507 114.35C91.4624 114.492 91.451 114.667 91.5201 114.818C91.5942 114.94 91.7178 115.026 91.86 115.054C92.0032 115.077 92.1491 115.08 92.2933 115.064C92.8659 115.022 93.4368 114.972 94.0077 114.922C94.2494 114.907 94.4897 114.875 94.7265 114.825C94.8522 114.795 94.9745 114.755 95.0986 114.723C95.3127 114.669 95.532 114.638 95.7528 114.629C95.8168 114.625 95.8812 114.631 95.9431 114.648C96.0756 114.689 96.1691 114.815 96.305 114.845C96.3925 114.854 96.481 114.842 96.5633 114.811C96.9811 114.724 97.4071 114.681 97.8342 114.681C98.0211 114.671 98.242 114.636 98.327 114.471C98.434 114.265 98.2573 114.035 98.186 113.814C98.1507 113.673 98.1308 113.529 98.1265 113.383C98.0943 113.024 97.9873 112.676 97.8121 112.359C97.666 112.096 97.4723 111.805 97.5692 111.524C97.6212 111.437 97.6542 111.339 97.666 111.239C97.6422 110.786 96.5836 110.953 96.3254 110.893Z" fill="#2F2E41"/>
<path d="M107.173 103.016C106.563 102.776 106.074 102.344 105.801 101.803C105.745 101.686 105.696 101.565 105.642 101.447C105.461 101.058 105.18 100.711 104.822 100.435C104.744 100.359 104.633 100.317 104.518 100.32C104.406 100.35 104.32 100.431 104.294 100.533C104.262 100.641 104.254 100.754 104.27 100.865C104.302 101.122 104.352 101.378 104.419 101.63L104.587 102.307C104.608 102.411 104.643 102.513 104.691 102.609C104.763 102.723 104.858 102.824 104.971 102.907C105.124 103.033 105.279 103.154 105.435 103.272C105.522 103.341 105.616 103.403 105.717 103.454C105.882 103.524 106.059 103.57 106.241 103.59C106.925 103.703 107.621 103.866 108.197 104.254C108.197 104.254 108.197 103.801 108.184 103.756C108.177 103.625 108.126 103.499 108.038 103.393C107.822 103.185 107.449 103.124 107.173 103.016Z" fill="#FBBEBE"/>
<path opacity="0.1" d="M107.173 103.016C106.563 102.776 106.074 102.344 105.801 101.803C105.745 101.686 105.696 101.565 105.642 101.447C105.461 101.058 105.18 100.711 104.822 100.435C104.744 100.359 104.633 100.317 104.518 100.32C104.406 100.35 104.32 100.431 104.294 100.533C104.262 100.641 104.254 100.754 104.27 100.865C104.302 101.122 104.352 101.378 104.419 101.63L104.587 102.307C104.608 102.411 104.643 102.513 104.691 102.609C104.763 102.723 104.858 102.824 104.971 102.907C105.124 103.033 105.279 103.154 105.435 103.272C105.522 103.341 105.616 103.403 105.717 103.454C105.882 103.524 106.059 103.57 106.241 103.59C106.925 103.703 107.621 103.866 108.197 104.254C108.197 104.254 108.197 103.801 108.184 103.756C108.177 103.625 108.126 103.499 108.038 103.393C107.822 103.185 107.449 103.124 107.173 103.016Z" fill="black"/>
<path d="M114.59 96.8938C115.142 96.8938 115.59 96.4461 115.59 95.8938C115.59 95.3415 115.142 94.8938 114.59 94.8938C114.038 94.8938 113.59 95.3415 113.59 95.8938C113.59 96.4461 114.038 96.8938 114.59 96.8938Z" fill="#2F2E41"/>
<path d="M113.765 95.4252C113.55 95.3739 113.323 95.4078 113.13 95.5203C113.037 95.6059 112.964 95.7116 112.914 95.8299C112.733 96.1519 112.592 96.4966 112.495 96.8556C112.424 97.1634 112.411 97.4842 112.316 97.7881C112.152 98.3477 111.73 98.8232 111.681 99.407C111.66 99.6681 111.701 99.9758 111.519 100.153C111.473 100.193 111.425 100.228 111.374 100.259C111.247 100.348 111.139 100.464 111.057 100.599C111.002 100.72 110.927 100.829 110.833 100.921C110.669 101.048 110.399 101.035 110.318 101.231C110.238 101.427 110.445 101.654 110.397 101.867C110.358 102.04 110.172 102.121 110.039 102.24C109.888 102.406 109.783 102.612 109.733 102.835C109.19 102.942 108.628 102.795 108.197 102.434C108.42 103.01 108.426 103.646 108.435 104.267C108.46 104.466 108.41 104.667 108.293 104.827C108.934 104.842 109.556 105.013 110.181 105.168C110.448 105.261 110.736 105.261 111.003 105.168C111.146 105.088 111.274 104.982 111.381 104.855C111.721 104.495 112.077 104.109 112.159 103.607C112.181 103.325 112.185 103.041 112.173 102.758C112.206 102.409 112.275 102.065 112.379 101.731C112.559 101.038 112.678 100.329 112.737 99.614C112.774 99.172 113.139 98.8176 113.332 98.4223C113.69 97.6762 114.066 96.9023 114.094 96.0667C114.119 95.7945 114.03 95.4606 113.765 95.4252Z" fill="#2F2E41"/>
<path opacity="0.1" d="M113.765 95.4252C113.55 95.3739 113.323 95.4078 113.13 95.5203C113.037 95.6059 112.964 95.7116 112.914 95.8299C112.733 96.1519 112.592 96.4966 112.495 96.8556C112.424 97.1634 112.411 97.4842 112.316 97.7881C112.152 98.3477 111.73 98.8232 111.681 99.407C111.66 99.6681 111.701 99.9758 111.519 100.153C111.473 100.193 111.425 100.228 111.374 100.259C111.247 100.348 111.139 100.464 111.057 100.599C111.002 100.72 110.927 100.829 110.833 100.921C110.669 101.048 110.399 101.035 110.318 101.231C110.238 101.427 110.445 101.654 110.397 101.867C110.358 102.04 110.172 102.121 110.039 102.24C109.888 102.406 109.783 102.612 109.733 102.835C109.19 102.942 108.628 102.795 108.197 102.434C108.42 103.01 108.426 103.646 108.435 104.267C108.46 104.466 108.41 104.667 108.293 104.827C108.934 104.842 109.556 105.013 110.181 105.168C110.448 105.261 110.736 105.261 111.003 105.168C111.146 105.088 111.274 104.982 111.381 104.855C111.721 104.495 112.077 104.109 112.159 103.607C112.181 103.325 112.185 103.041 112.173 102.758C112.206 102.409 112.275 102.065 112.379 101.731C112.559 101.038 112.678 100.329 112.737 99.614C112.774 99.172 113.139 98.8176 113.332 98.4223C113.69 97.6762 114.066 96.9023 114.094 96.0667C114.119 95.7945 114.03 95.4606 113.765 95.4252Z" fill="black"/>
<path d="M112.063 109.047C111.369 108.721 110.861 108.115 110.3 107.595C109.228 106.603 107.918 105.902 106.792 104.972C106.047 104.356 105.379 103.64 104.558 103.124C103.835 102.67 103.016 102.387 102.165 102.297C102.067 102.28 101.967 102.285 101.872 102.311C101.765 102.359 101.671 102.432 101.6 102.525C101.236 102.929 100.913 103.366 100.634 103.832C99.2067 106.219 97.18 108.227 95.4998 110.448C95.3881 110.557 95.3794 110.732 95.4799 110.85L95.821 111.51C96.0123 111.878 96.3191 112.309 96.7234 112.236C96.9089 112.183 97.0749 112.079 97.2016 111.935L98.7356 110.489L100.344 108.974C101.286 108.084 102.244 107.177 102.859 106.043C103.339 106.863 104.191 107.4 104.776 108.152C104.998 108.437 105.178 108.751 105.377 109.054C105.696 109.539 106.057 109.995 106.418 110.448L108.265 112.769C108.497 113.1 108.786 113.389 109.118 113.623C109.555 113.895 110.087 113.968 110.602 114.013C111.295 114.075 111.99 114.1 112.686 114.087C113.217 114.078 113.769 114.045 114.238 113.812C114.707 113.579 115.106 113.1 115.081 112.579C115.052 112.306 114.962 112.043 114.816 111.809C114.164 110.617 113.301 109.621 112.063 109.047Z" fill="#2F2E41"/>
<path d="M114.59 96.8938C115.142 96.8938 115.59 96.4461 115.59 95.8938C115.59 95.3415 115.142 94.8938 114.59 94.8938C114.038 94.8938 113.59 95.3415 113.59 95.8938C113.59 96.4461 114.038 96.8938 114.59 96.8938Z" fill="#E8E8F0"/>
<path d="M115.037 96.5869C115.191 96.8974 115.218 97.2568 115.112 97.5873C115.006 97.9123 114.858 98.2218 114.672 98.5076C114.511 98.8027 114.319 99.0792 114.098 99.3319C115.156 99.3839 116.181 98.9657 117.114 98.4576C117.866 98.0574 118.616 97.5473 119.016 96.785C118.775 96.843 118.521 96.7958 118.316 96.655C118.114 96.5132 117.933 96.3434 117.778 96.1508L117.249 95.5506C117.124 95.4189 117.014 95.2732 116.921 95.1164C116.806 94.9034 116.756 94.66 116.781 94.4182C116.57 94.6409 116.334 94.8382 116.078 95.0064C115.699 95.2565 115.285 95.4365 114.902 95.6826C114.767 95.7707 114.467 95.9127 114.545 96.0828C114.622 96.2528 114.93 96.3949 115.037 96.5869Z" fill="#FBBEBE"/>
<path opacity="0.1" d="M115.037 96.5869C115.191 96.8974 115.218 97.2568 115.112 97.5873C115.006 97.9123 114.858 98.2218 114.672 98.5076C114.511 98.8027 114.319 99.0792 114.098 99.3319C115.156 99.3839 116.181 98.9657 117.114 98.4576C117.866 98.0574 118.616 97.5473 119.016 96.785C118.775 96.843 118.521 96.7958 118.316 96.655C118.114 96.5132 117.933 96.3434 117.778 96.1508L117.249 95.5506C117.124 95.4189 117.014 95.2732 116.921 95.1164C116.806 94.9034 116.756 94.66 116.781 94.4182C116.57 94.6409 116.334 94.8382 116.078 95.0064C115.699 95.2565 115.285 95.4365 114.902 95.6826C114.767 95.7707 114.467 95.9127 114.545 96.0828C114.622 96.2528 114.93 96.3949 115.037 96.5869Z" fill="black"/>
<path d="M114.653 95.5062C114.47 95.7825 114.47 96.1522 114.653 96.4285C114.678 96.4622 114.773 96.6728 114.82 96.6746C114.859 96.6711 114.895 96.6514 114.921 96.6197C115.122 96.3962 115.309 96.1597 115.483 95.9116C115.658 95.6602 115.911 95.4833 116.197 95.4123C116.544 95.3539 116.878 95.5504 117.182 95.7381C117.313 95.8073 117.427 95.9079 117.515 96.032C117.579 96.1551 117.617 96.2916 117.626 96.4321C117.713 97.2761 117.747 98.1255 117.726 98.9743C117.742 99.5863 117.704 100.199 117.613 100.803C117.556 101.115 117.472 101.419 117.432 101.734C117.403 102.012 117.391 102.291 117.397 102.57V103.738C117.389 103.952 117.404 104.167 117.44 104.377C117.509 104.629 117.589 104.876 117.681 105.119C117.762 105.408 117.817 105.704 117.847 106.004L117.997 107.214C118.045 107.596 118.08 108.012 117.862 108.318C117.766 108.458 117.636 108.568 117.53 108.706C117.156 109.212 117.28 109.947 117.114 110.575C116.991 111.037 116.74 111.447 116.393 111.753C116.129 111.992 115.787 112.181 115.444 112.107C114.984 112.015 114.707 111.503 114.58 111.02C114.454 110.536 114.414 110.009 114.137 109.604C113.914 109.269 113.57 109.06 113.259 108.821C112.949 108.582 112.643 108.276 112.575 107.872C112.545 107.695 112.563 107.518 112.547 107.341C112.496 106.881 112.215 106.488 111.812 106.314C111.576 106.217 111.284 106.181 111.147 105.96C111.486 105.734 111.732 105.381 111.839 104.97C111.942 104.566 111.998 104.15 112.005 103.731L112.085 102.326C112.12 101.697 112.136 101.074 112.395 100.509C112.512 100.258 112.656 100.021 112.776 99.771C112.936 99.4206 113.073 99.0585 113.185 98.6875C113.372 98.1121 113.562 97.535 113.73 96.9525C113.797 96.6705 113.897 96.3986 114.029 96.1435C114.183 95.8779 114.388 95.5593 114.653 95.5062Z" fill="#E8E8F0"/>
<path d="M111.199 105.225L111.68 105.238L111.783 104.656C111.797 104.54 111.831 104.426 111.884 104.317C111.964 104.202 112.057 104.093 112.161 103.992C112.636 103.456 112.602 102.744 112.718 102.093C112.874 101.225 113.328 100.411 113.778 99.6106L114.713 97.9428C114.796 97.8057 114.863 97.6625 114.912 97.5153C114.953 97.3529 114.972 97.1874 114.97 97.0217C114.97 96.7649 115.075 95.8273 115.082 95.5686C115.082 95.4732 114.821 95.5264 114.766 95.442C114.649 95.2585 114.488 95.7576 114.268 95.8676C114.061 95.9946 113.91 96.1714 113.837 96.3722C113.635 96.7924 113.512 97.2346 113.324 97.6566C113.159 98.0887 112.858 98.4798 112.45 98.7923C112.26 98.9281 112.038 99.0345 111.856 99.1776C111.274 99.6381 111.219 100.365 111.199 101.012C111.185 101.414 111.091 105.225 111.199 105.225Z" fill="#2F2E41"/>
<path d="M116.532 95.4449C116.176 95.5932 115.969 96.001 115.867 96.3978C115.766 96.7945 115.723 97.2135 115.527 97.5657C115.07 98.3926 113.906 98.6336 113.583 99.5271C113.501 99.8289 113.457 100.141 113.453 100.454C113.396 101.094 113.193 101.713 113.132 102.352C113.101 102.85 113.112 103.349 113.166 103.845L113.574 108.893C113.653 109.637 113.612 110.389 113.451 111.118C113.87 111.18 114.297 111.107 114.674 110.908C115.058 110.723 115.407 110.478 115.775 110.267C116.408 109.896 117.106 109.646 117.659 109.154C117.759 109.073 117.846 108.975 117.914 108.863C118.003 108.651 118.063 108.427 118.092 108.198C118.139 108.019 118.199 107.844 118.271 107.675C118.476 107.166 118.654 106.646 118.806 106.118C118.91 105.767 118.991 105.41 119.05 105.048C119.095 104.761 119.118 104.47 119.143 104.18C119.171 103.726 119.258 103.277 119.401 102.846C119.755 101.817 119.955 100.739 119.995 99.6476C120.007 99.49 119.997 99.3313 119.965 99.1768C119.903 98.9894 119.82 98.8102 119.719 98.6428C119.549 98.311 119.448 97.9458 119.287 97.6102C118.93 96.8501 118.29 96.2735 117.622 95.7897C117.279 95.5542 116.903 95.2984 116.532 95.4449Z" fill="#2F2E41"/>
<path d="M108.722 102.888C108.43 102.74 108.166 102.547 107.941 102.315C107.839 102.199 107.762 102.069 107.65 101.955C107.387 101.683 107.044 101.495 106.668 101.414C106.295 101.334 105.913 101.299 105.53 101.308C105.275 101.291 105.018 101.321 104.774 101.397C104.525 101.475 104.336 101.671 104.272 101.917C104.216 102.211 104.415 102.497 104.654 102.685C104.876 102.86 105.137 102.983 105.417 103.044C105.645 103.082 105.875 103.108 106.106 103.122C107.464 103.259 108.675 103.971 109.864 104.621C110.909 105.191 111.974 105.724 113.059 106.221C113.102 105.908 113.12 105.591 113.113 105.275C113.113 105.039 113.095 104.678 112.864 104.54C112.594 104.377 112.146 104.34 111.847 104.243C111.148 104.023 110.465 103.756 109.803 103.446C109.428 103.271 109.068 103.085 108.722 102.888Z" fill="#FBBEBE"/>
<path d="M114.59 95.4019C115.948 95.4019 117.049 94.301 117.049 92.9429C117.049 91.5848 115.948 90.4839 114.59 90.4839C113.232 90.4839 112.131 91.5848 112.131 92.9429C112.131 94.301 113.232 95.4019 114.59 95.4019Z" fill="#FBBEBE"/>
<path d="M117.757 98.6764C117.544 98.9594 117.369 99.2668 117.237 99.5913C116.904 100.236 116.384 100.788 116.125 101.47C115.85 102.178 115.86 103.022 115.328 103.58C115.221 103.664 115.141 103.775 115.095 103.899C115.092 103.977 115.082 104.054 115.067 104.13C114.991 104.333 114.639 104.342 114.573 104.549C114.555 104.609 114.573 104.675 114.541 104.737C114.487 104.87 114.302 104.889 114.176 104.97C113.915 105.137 113.977 105.524 113.778 105.764C113.613 105.946 113.358 106.031 113.108 105.986C112.864 105.938 112.629 105.855 112.411 105.74C112.334 105.699 112.249 105.674 112.162 105.667C112.058 105.669 111.957 105.701 111.873 105.759C111.377 106.056 111.144 106.646 111.148 107.202C111.183 107.758 111.322 108.304 111.56 108.814C111.588 108.902 111.635 108.983 111.698 109.054C111.861 109.217 112.148 109.191 112.367 109.099C112.572 108.984 112.791 108.892 113.019 108.825C113.433 108.753 113.84 109.024 114.26 109.001C114.568 108.957 114.857 108.837 115.099 108.652C115.526 108.408 115.908 108.1 116.231 107.741C116.414 107.513 116.55 107.254 116.711 107.012C116.917 106.714 117.144 106.429 117.389 106.159L118.937 104.372C119.092 104.203 119.232 104.022 119.353 103.829C119.493 103.57 119.602 103.296 119.678 103.014C119.844 102.543 119.952 102.056 119.999 101.562C120.007 101.153 119.969 100.744 119.885 100.343C119.833 99.9434 119.721 99.5531 119.553 99.1836C119.208 98.5261 118.389 97.9813 117.757 98.6764Z" fill="#2F2E41"/>
<path d="M122.951 95.0825C122.954 94.2447 122.55 93.4562 121.865 92.963C121.844 91.449 120.716 90.1724 119.2 89.9463C118.907 88.5127 117.613 87.4949 116.133 87.5343C114.653 87.5738 113.416 88.659 113.202 90.1061C112.227 89.8896 111.336 90.1715 111.174 90.7645C111 91.385 111.696 92.1104 112.726 92.3855C113.049 92.4756 113.386 92.5088 113.72 92.4834C114.205 93.1861 114.967 93.6542 115.819 93.7727C116.071 94.9164 116.958 95.8201 118.107 96.1053C118.263 96.4774 118.505 96.8082 118.814 97.0713C118.814 97.1435 118.802 97.2174 118.802 97.2931C118.771 98.0127 119.143 98.691 119.769 99.0599C120.395 99.4287 121.176 99.4287 121.803 99.0599C122.429 98.691 122.8 98.0127 122.77 97.2931C122.77 96.9964 122.705 96.7033 122.58 96.4336C122.825 96.0245 122.953 95.5576 122.951 95.0825Z" fill="#F86D70"/>
<path opacity="0.1" d="M110.854 89.8868C111.015 89.2985 111.892 89.0188 112.869 89.2337C113.103 87.7755 114.368 86.6957 115.865 86.6758C115.932 86.6758 116 86.6758 116.065 86.6758C115.785 86.5914 115.494 86.5489 115.201 86.5496C113.704 86.5695 112.439 87.6493 112.205 89.1075C111.236 88.8926 110.351 89.1723 110.19 89.7606C110.017 90.3762 110.709 91.0958 111.733 91.3687C111.923 91.4207 112.118 91.4539 112.315 91.4676C111.344 91.1879 110.69 90.4888 110.854 89.8868Z" fill="black"/>
<path opacity="0.1" d="M118.705 97.3858C118.705 97.3084 118.705 97.2329 118.717 97.1573C118.413 96.8891 118.174 96.5514 118.02 96.1715C116.887 95.877 116.013 94.9535 115.762 93.785C114.921 93.6645 114.169 93.1858 113.692 92.467C113.499 92.4826 113.306 92.4773 113.115 92.4512C113.594 93.1126 114.313 93.5495 115.11 93.6637C115.359 94.833 116.234 95.7569 117.368 96.0484C117.522 96.4288 117.76 96.7671 118.065 97.0361C118.065 97.1099 118.053 97.1854 118.053 97.2628C118.035 98.3843 118.904 99.3105 120 99.3364C119.213 99.0259 118.698 98.2486 118.705 97.3858Z" fill="black"/>
<path d="M115.743 94.6882C116.183 94.3541 116.269 93.7268 115.935 93.287C115.601 92.8472 114.973 92.7615 114.534 93.0956C114.094 93.4296 114.008 94.057 114.342 94.4968C114.676 94.9366 115.304 95.0223 115.743 94.6882Z" fill="#FBBEBE"/>
<path d="M57.0078 106.455L59.2596 105.076C58.9553 104.535 58.5662 104.05 58.1083 103.641L53.8616 105.016L57.1887 102.98C55.5125 102.024 53.4764 102.06 51.8324 103.074C50.1883 104.089 49.1802 105.931 49.1804 107.921C49.1804 111.032 51.603 111.14 54.5902 111.14C57.5775 111.14 60.0001 111.032 60.0001 107.921C60.0019 107.133 59.8434 106.353 59.5352 105.633L57.0078 106.455Z" fill="#F8765E"/>
<path opacity="0.1" d="M58.213 109.584C57.9552 109.349 57.6671 109.144 57.355 108.972C56.9169 108.706 56.4607 108.436 55.9426 108.347C55.4882 108.267 55.0192 108.335 54.5556 108.31C53.7508 108.266 52.9931 107.95 52.4306 107.426C52.0998 107.116 51.8399 106.735 51.4418 106.497C50.9968 106.257 50.4718 106.17 49.9621 106.251C49.8143 106.27 49.668 106.297 49.524 106.332C49.2961 106.907 49.1799 107.513 49.1804 108.124C49.1804 111.039 51.7853 111.14 54.9974 111.14C56.557 111.14 57.9713 111.117 59.0165 110.759L58.8347 110.463C58.6696 110.147 58.4607 109.852 58.213 109.584Z" fill="black"/>
<defs>
<linearGradient id="paint0_linear" x1="102.79" y1="116.059" x2="102.79" y2="86.5181" gradientUnits="userSpaceOnUse">
<stop stop-color="#808080" stop-opacity="0.25"/>
<stop offset="0.54" stop-color="#808080" stop-opacity="0.12"/>
<stop offset="1" stop-color="#808080" stop-opacity="0.1"/>
</linearGradient>
</defs>
</svg>
