<svg width="184" height="130" viewBox="0 0 184 130" fill="none" xmlns="http://www.w3.org/2000/svg">
<path opacity="0.1" d="M60.3056 129.305C69.4337 129.305 76.8334 128 76.8334 126.389C76.8334 124.778 69.4337 123.472 60.3056 123.472C51.1776 123.472 43.7778 124.778 43.7778 126.389C43.7778 128 51.1776 129.305 60.3056 129.305Z" fill="#F8765E"/>
<path opacity="0.1" d="M149.264 129.305C160.271 129.305 169.195 128 169.195 126.389C169.195 124.778 160.271 123.472 149.264 123.472C138.257 123.472 129.333 124.778 129.333 126.389C129.333 128 138.257 129.305 149.264 129.305Z" fill="#F8765E"/>
<path opacity="0.1" d="M1.35145 54.4443H18.5V77.7258H2.60688C2.56464 77.9648 2.52409 78.2055 2.48016 78.4461H18.5V97.2221C18.4713 97.2137 18.4459 97.2036 18.4189 97.1935C17.9661 97.0151 17.5166 96.8266 17.0672 96.6246L16.7799 96.495C16.3293 96.283 15.8787 96.0586 15.4282 95.8218C15.271 95.7394 15.1139 95.6535 14.9584 95.566C12.457 94.1703 10.1846 92.4017 8.22 90.3217C8.16255 90.2661 8.10848 90.2072 8.05103 90.1534C7.7773 89.8571 7.50864 89.5576 7.24843 89.2513L6.96119 88.9146C6.65366 88.5393 6.35628 88.1539 6.06735 87.7634C6.0251 87.7062 5.98455 87.649 5.94062 87.5951C4.76553 85.9722 3.78983 84.215 3.03437 82.3609C3.01072 82.3054 2.99044 82.2448 2.96848 82.1926C2.73643 81.5979 2.53085 80.9976 2.35174 80.3917C2.27402 80.1376 2.19967 79.8868 2.13546 79.6226C2.11181 79.5452 2.09153 79.4694 2.07295 79.3937C1.11321 75.6624 1 71.7864 1 67.9373C1 67.4879 1 67.0368 1 66.5908C1 65.034 1.01859 63.4671 1.04562 61.9019C1.04562 61.4963 1.06252 61.0923 1.07097 60.685C1.09462 59.6517 1.12842 58.6183 1.17235 57.5849C1.18249 57.2971 1.196 57.011 1.21121 56.7249C1.21121 56.5599 1.21966 56.395 1.23656 56.23C1.27711 55.6309 1.3109 55.0368 1.35145 54.4443Z" fill="#F8765E"/>
<path opacity="0.1" d="M18.5 29.1667H9.75C11.1724 26.818 12.7265 24.5612 14.404 22.4081C15.7038 20.7234 17.076 19.0819 18.5 17.5V29.1667Z" fill="#F8765E"/>
<path opacity="0.1" d="M18.5 30.1389V54.4445H1C1 54.3743 1.01211 54.3024 1.0173 54.2323C1.03287 54.0401 1.04843 53.8479 1.06573 53.6575C1.08476 53.4336 1.10552 53.208 1.128 52.9891C1.15049 52.7702 1.17471 52.5028 1.20065 52.2605C1.2266 52.0183 1.25082 51.7726 1.28022 51.5303C1.30963 51.2881 1.33557 51.0458 1.36671 50.8052C1.39785 50.5645 1.42552 50.3206 1.45839 50.08C1.48433 49.8795 1.51201 49.6806 1.53969 49.4801C1.57947 49.1977 1.62098 48.9136 1.66596 48.6329C1.66596 48.5912 1.67807 48.5477 1.68499 48.5076C2.0007 46.4526 2.43088 44.4156 2.97366 42.4053C3.54181 40.2966 4.26733 38.2303 5.14451 36.2228C6.07679 34.1227 7.16836 32.092 8.4103 30.1473L18.5 30.1389Z" fill="#F8765E"/>
<path opacity="0.1" d="M23.3613 56.0259V78.9434H59.3793V56.0259H23.3613ZM23.3613 79.6508V99.3313C23.5674 99.3744 23.7717 99.4158 23.9744 99.4506C24.2503 99.5036 24.5244 99.5516 24.8052 99.593C24.8584 99.6013 24.9132 99.6096 24.9714 99.6146C25.0811 99.6328 25.194 99.6477 25.3037 99.6626C25.5812 99.7007 25.857 99.7322 26.1345 99.757C26.2658 99.7703 26.3987 99.7819 26.5316 99.7918L26.8523 99.8167C27.0268 99.8299 27.1996 99.8399 27.3707 99.8448C27.477 99.8448 27.5834 99.8548 27.6931 99.8581C27.7761 99.8581 27.8592 99.8581 27.9456 99.8581C28.032 99.8581 28.155 99.8581 28.2597 99.8581C28.4025 99.8581 28.5454 99.8581 28.6867 99.8581H28.8778C29.0206 99.8581 29.1635 99.8581 29.3048 99.8448H29.3148C29.4128 99.8448 29.5125 99.8448 29.6122 99.8316C29.6398 99.8332 29.6676 99.8332 29.6953 99.8316C29.7783 99.8316 29.8614 99.8316 29.9412 99.82H29.9993L30.5559 99.7769C30.7387 99.7604 30.9232 99.7388 31.1092 99.7189L31.4881 99.6742C33.0293 99.4589 34.5534 99.1356 36.0491 98.7067C39.4088 97.7724 42.6954 96.4654 46.0534 95.5078C50.3951 94.2737 55.1921 93.6673 59.3876 95.1765V79.6508H23.3613ZM59.3793 30.5125V0.00270919C55.4359 -0.0398861 51.5033 0.419955 47.6768 1.37107C38.5564 3.65553 30.3732 8.61045 23.3613 14.9387V30.5108H25.1691V31.2182H23.3613V55.3185H59.3793V31.2198H32.5914V30.5125H59.3793ZM105.642 20.2067C103.386 20.1272 101.143 19.4148 99.1142 18.3149C95.2344 16.211 92.1355 12.9624 88.6728 10.2207C81.4782 4.51034 72.5556 1.0646 63.4019 0.209785V30.5125H114.819L114.947 30.3783L105.642 20.2067ZM110.326 19.3784L115.293 24.8121V17.9537C113.63 18.1591 112.172 18.6478 110.333 19.3718L110.326 19.3784ZM115.293 104.218V79.6508H104.71C104.682 79.5464 104.654 79.4404 104.621 79.3344C104.652 79.4404 104.679 79.5464 104.709 79.6508H63.4086V97.4179C63.8007 97.7078 64.1879 98.0126 64.5717 98.3224C64.9854 98.6537 65.3942 99.0033 65.8046 99.3462L66.2183 99.6875C66.416 99.8531 66.6154 100.019 66.8165 100.175C67.2153 100.497 67.6179 100.815 68.0244 101.129C68.2255 101.294 68.4315 101.443 68.6359 101.599C71.8805 104.072 75.3031 106.304 78.8762 108.277C79.6771 108.719 80.4851 109.15 81.3004 109.571C81.8438 109.847 82.3904 110.122 82.9387 110.389C83.7629 110.79 84.5937 111.177 85.4311 111.549C93.1518 115.004 101.316 117.375 109.69 118.594C111.55 118.868 113.417 119.084 115.291 119.24V104.217H115.457L115.293 104.218ZM63.4086 31.2198V55.3185H115.3V31.2198H63.4086ZM63.4086 56.0259V78.9434H115.3V56.0259H63.4086ZM119.327 17.9239V25.5741L125.666 18.6396C123.566 18.3016 121.453 18.0603 119.327 17.9156V17.9239ZM119.327 56.0342V78.9434H169.798V56.0259L119.327 56.0342ZM169.613 106.037L169.791 79.6508H119.327V119.504C122.578 119.64 125.834 119.601 129.081 119.388H129.137C130.688 119.291 132.232 119.149 133.768 118.964H133.803C141.999 118.013 150.014 115.88 157.597 112.634L169.613 106.037ZM179.529 59.7996C179.34 59.354 179.142 58.9117 178.941 58.4744C178.566 57.646 178.169 56.8409 177.76 56.0358H173.822V78.9434H183.778C183.773 72.4561 182.126 65.8297 179.534 59.7914L179.529 59.7996ZM173.822 79.6591V102.355C176.627 99.6742 178.996 96.6078 180.702 93.1024C182.754 88.8814 183.693 84.3108 183.77 79.6558L173.822 79.6591ZM173.822 49.3564V55.3202H177.391C176.311 53.2672 175.121 51.2736 173.827 49.3481L173.822 49.3564ZM139.593 22.4199C139.331 22.3205 139.068 22.2195 138.804 22.1217C136.018 21.0959 133.171 20.2427 130.279 19.5673L120.578 30.1811L120.392 30.3783L120.517 30.5141H155.041C150.233 27.2142 145.049 24.4944 139.598 22.4116L139.593 22.4199ZM156.053 31.2281H120.035L119.327 31.8742V55.3185H125.532H125.541H169.804V43.9625C165.8 39.1344 161.179 34.8504 156.058 31.2198L156.053 31.2281Z" fill="#F8765E"/>
<path opacity="0.1" d="M18.5 41.8057V53.4723H1C1 53.4044 1.01211 53.3348 1.0173 53.2668C1.03287 53.0807 1.04843 52.8946 1.06573 52.7101C1.08476 52.4932 1.10552 52.2748 1.128 52.0628C1.15049 51.8507 1.17471 51.5918 1.20065 51.3572C1.2266 51.1225 1.25082 50.8846 1.28022 50.6499C1.30963 50.4153 1.33557 50.1806 1.36671 49.9476C1.39785 49.7145 1.42552 49.4783 1.45839 49.2452C1.48433 49.051 1.51201 48.8584 1.53969 48.6642C1.57947 48.3907 1.62098 48.1156 1.66596 47.8437C1.66596 47.8033 1.67807 47.7612 1.68499 47.7223C2.0007 45.732 2.43088 43.7591 2.97366 41.8121L18.5 41.8057Z" fill="#F8765E"/>
<path opacity="0.1" d="M1.35145 54.4443H18.5V77.7258H2.60688C2.56464 77.9648 2.52409 78.2055 2.48016 78.4461H18.5V97.2221C18.4713 97.2137 18.4459 97.2036 18.4189 97.1935C17.9661 97.0151 17.5166 96.8266 17.0672 96.6246L16.7799 96.495C16.3293 96.283 15.8787 96.0586 15.4282 95.8218C15.271 95.7394 15.1139 95.6535 14.9584 95.566C12.457 94.1703 10.1846 92.4017 8.22 90.3217C8.16255 90.2661 8.10848 90.2072 8.05103 90.1534C7.7773 89.8571 7.50864 89.5576 7.24843 89.2513L6.96119 88.9146C6.65366 88.5393 6.35628 88.1539 6.06735 87.7634C6.0251 87.7062 5.98455 87.649 5.94062 87.5951C4.76553 85.9722 3.78983 84.215 3.03437 82.3609C3.01072 82.3054 2.99044 82.2448 2.96848 82.1926C2.73643 81.5979 2.53085 80.9976 2.35174 80.3917C2.27402 80.1376 2.19967 79.8868 2.13546 79.6226C2.11181 79.5452 2.09153 79.4694 2.07295 79.3937C1.11321 75.6624 1 71.7864 1 67.9373C1 67.4879 1 67.0368 1 66.5908C1 65.034 1.01859 63.4671 1.04562 61.9019C1.04562 61.4963 1.06252 61.0923 1.07097 60.685C1.09462 59.6517 1.12842 58.6183 1.17235 57.5849C1.18249 57.2971 1.196 57.011 1.21121 56.7249C1.21121 56.5599 1.21966 56.395 1.23656 56.23C1.27711 55.6309 1.3109 55.0368 1.35145 54.4443Z" fill="#F8765E"/>
<path opacity="0.1" d="M36.0002 34.1077V54.4444H23.3613V34.1077H25.1633V27.2222H32.5602V34.1077H36.0002Z" fill="#F8765E"/>
<path opacity="0.1" d="M36.0002 54.4443H23.3613V77.7777H36.0002V54.4443Z" fill="#F8765E"/>
<path opacity="0.1" d="M23.3613 78.75H36.0002V98.0047C34.5093 98.4378 32.9901 98.7639 31.4538 98.9808L31.0762 99.0277C30.8907 99.0495 30.7068 99.0679 30.5246 99.0863C30.3424 99.1047 30.1536 99.1181 29.9698 99.1298H29.9118C29.8323 99.1298 29.7462 99.1399 29.6684 99.1416H29.5839C29.4845 99.1416 29.3851 99.1516 29.2858 99.1549C29.145 99.1633 29.0042 99.165 28.8601 99.1667C28.7988 99.1667 28.7408 99.1667 28.6796 99.1667C28.5371 99.1667 28.3963 99.1667 28.2539 99.1667H27.9409C27.8564 99.1667 27.7753 99.1667 27.6875 99.1667L27.3678 99.1549C27.2022 99.1549 27.0233 99.1365 26.8511 99.1248L26.5331 99.1014L26.1372 99.0645C25.859 99.0394 25.5824 99.0076 25.3091 98.9691L24.9778 98.9222L24.8122 98.8988C24.5356 98.8552 24.2623 98.8084 23.9841 98.7548C23.7804 98.7196 23.5783 98.6761 23.3729 98.6342L23.3613 78.75Z" fill="#F8765E"/>
<path opacity="0.1" d="M114.75 31.1111H104.056V54.4444H114.75V31.1111Z" fill="#F8765E"/>
<path opacity="0.1" d="M114.75 54.4443V77.7777H63.2222V67.7133H90.6681V73.6504H104.367V54.4443H114.75Z" fill="#F8765E"/>
<path opacity="0.1" d="M114.75 103.6H114.585V118.611C112.732 118.453 110.885 118.239 109.043 117.968C100.75 116.747 92.6653 114.374 85.0207 110.918C82.8136 109.919 80.6514 108.828 78.5341 107.646C74.9975 105.675 71.6091 103.447 68.3963 100.978C67.5893 100.356 66.7928 99.7199 66.0066 99.0693C65.4622 98.6177 64.9211 98.1545 64.3734 97.7046C63.9935 97.3953 63.6103 97.0909 63.2222 96.7998V79.0659H104.101C104.073 78.9601 104.045 78.8542 104.015 78.75C104.046 78.8542 104.076 78.9601 104.104 79.0659H114.585V103.59C114.641 103.592 114.696 103.597 114.75 103.6Z" fill="#F8765E"/>
<path opacity="0.1" d="M141 29.1667H134.194V27.2119H137.245V21.3889C137.51 21.4779 137.773 21.5695 138.035 21.6636V27.2119H141V29.1667Z" fill="#F8765E"/>
<path opacity="0.1" d="M158.5 54.4361H124.879C124.879 54.4361 124.879 54.4361 124.891 54.4445L124.876 54.4361H118.639V31.1595H120.406V48.3643H128.482V38.1751H135.153V30.1389H142.002V38.1818H148.673V48.371H158.5V54.4361Z" fill="#F8765E"/>
<path opacity="0.1" d="M119.611 55.4167V78.2034H159.33V55.4167H119.611ZM170.112 105.026L170.167 86.9893H159.33V78.9182H119.611V118.532C122.868 118.668 126.129 118.629 129.381 118.417H129.438C130.991 118.32 132.537 118.18 134.076 117.995H134.111C142.322 117.049 150.35 114.929 157.945 111.701L170.112 105.026Z" fill="#F8765E"/>
<path opacity="0.1" d="M175.642 79.7222H183.778C183.706 84.1074 182.882 88.4145 181.078 92.3922C179.577 95.6971 177.492 98.5867 175.028 101.111V87.3732H175.642V79.7222Z" fill="#F8765E"/>
<path opacity="0.1" d="M183.778 78.7501H175.028V59.3057H179.763C182.213 65.4362 183.77 72.1638 183.778 78.7501Z" fill="#F8765E"/>
<path opacity="0.1" d="M114.75 38.8889H108.917V45.6945H114.75V38.8889Z" fill="#F8765E"/>
<path opacity="0.1" d="M114.75 52.5H108.917V54.4444H114.75V52.5Z" fill="#F8765E"/>
<path opacity="0.1" d="M114.75 54.4443H108.917V60.2777H114.75V54.4443Z" fill="#F8765E"/>
<path opacity="0.1" d="M114.75 68.0557H108.917V74.8612H114.75V68.0557Z" fill="#F8765E"/>
<path opacity="0.1" d="M114.75 83.6111H108.917V90.4166H114.75V83.6111Z" fill="#F8765E"/>
<path opacity="0.1" d="M114.582 103.411C114.639 103.411 114.694 103.411 114.75 103.421H114.582V105H108.917V98.1943H114.582V103.411Z" fill="#F8765E"/>
<path opacity="0.1" d="M114.75 112.778V118.611C112.8 118.446 110.855 118.222 108.917 117.939V112.778H114.75Z" fill="#F8765E"/>
<path opacity="0.1" d="M86.5556 77.7778H62.25V78.7778H86.5556V77.7778Z" fill="#F8765E"/>
<path opacity="0.1" d="M86.5556 78.75H62.25V80.6944H86.5556V78.75Z" fill="#F8765E"/>
<path opacity="0.1" d="M86.5556 87.5H62.25V91.3889H86.5556V87.5Z" fill="#F8765E"/>
<path opacity="0.1" d="M87.5277 97.2222V101.111H68.3477C67.5149 100.374 66.6923 99.6182 65.8798 98.8422C65.318 98.3055 64.7612 97.755 64.1943 97.2222H87.5277Z" fill="#F8765E"/>
<path opacity="0.1" d="M86.5556 106.95V110.833H84.749C82.7187 109.645 80.7283 108.349 78.7778 106.944L86.5556 106.95Z" fill="#F8765E"/>
<path opacity="0.1" d="M133.222 58.3333H128.361V63.1944H133.222V58.3333Z" fill="#F8765E"/>
<path opacity="0.1" d="M30.1668 35.9722H25.3057V40.8333H30.1668V35.9722Z" fill="#F8765E"/>
<path opacity="0.1" d="M30.1668 46.6667H25.3057V51.5279H30.1668V46.6667Z" fill="#F8765E"/>
<path opacity="0.1" d="M30.1668 58.3333H25.3057V63.1944H30.1668V58.3333Z" fill="#F8765E"/>
<path opacity="0.1" d="M30.1668 68.0557H25.3057V72.9168H30.1668V68.0557Z" fill="#F8765E"/>
<path opacity="0.1" d="M30.1668 78.75H25.3057V83.6111H30.1668V78.75Z" fill="#F8765E"/>
<path opacity="0.1" d="M30.1668 91.3889H25.3057V96.25H30.1668V91.3889Z" fill="#F8765E"/>
<path opacity="0.1" d="M151.695 58.3333H146.833V63.1944H151.695V58.3333Z" fill="#F8765E"/>
<path opacity="0.1" d="M133.222 69.0278H128.361V73.8889H133.222V69.0278Z" fill="#F8765E"/>
<path opacity="0.1" d="M151.695 69.0278H146.833V73.8889H151.695V69.0278Z" fill="#F8765E"/>
<path opacity="0.1" d="M133.222 80.6943H128.361V85.5555H133.222V80.6943Z" fill="#F8765E"/>
<path opacity="0.1" d="M151.695 80.6943H146.833V85.5555H151.695V80.6943Z" fill="#F8765E"/>
<path opacity="0.1" d="M133.222 92.3611H128.361V97.2222H133.222V92.3611Z" fill="#F8765E"/>
<path opacity="0.1" d="M151.695 92.3611H146.833V97.2222H151.695V92.3611Z" fill="#F8765E"/>
<path opacity="0.1" d="M133.222 105H128.361V109.861H133.222V105Z" fill="#F8765E"/>
<path opacity="0.1" d="M151.695 105H146.833V109.861H151.695V105Z" fill="#F8765E"/>
<path opacity="0.1" d="M128.361 119.583V115.694H133.222V119.03L128.361 119.583Z" fill="#F8765E"/>
<path opacity="0.1" d="M2.94434 48.6111V52.5H19.4721V48.6111H2.94434ZM4.59151 52.2562H3.2432V48.8501H4.6017L4.59151 52.2562ZM6.23699 52.2562H4.87849V48.8501H6.23699V52.2562ZM7.87907 52.2562H6.52057V48.8501H7.87907V52.2562ZM9.52454 52.2562H8.16774V48.8501H9.52624L9.52454 52.2562ZM11.1683 52.2562H9.80982V48.8501H11.1683V52.2562ZM12.8138 52.2562H11.4553V48.8501H12.8138V52.2562ZM14.4593 52.2562H13.1008V48.8501H14.4593V52.2562ZM16.103 52.2562H14.7446V48.8501H16.103V52.2562ZM17.7468 52.2562H16.3883V48.8501H17.7468V52.2562ZM19.3906 52.2562H18.0321V48.8501H19.3906V52.2562Z" fill="#F8765E"/>
<path opacity="0.1" d="M2.94434 55.4167V59.3056H19.4721V55.4167H2.94434ZM4.59151 59.0594H3.2432V55.6629H4.6017L4.59151 59.0594ZM6.23699 59.0594H4.87849V55.6629H6.23699V59.0594ZM7.87907 59.0594H6.52057V55.6629H7.87907V59.0594ZM9.52454 59.0594H8.16774V55.6629H9.52624L9.52454 59.0594ZM11.1683 59.0594H9.80982V55.6629H11.1683V59.0594ZM12.8138 59.0594H11.4553V55.6629H12.8138V59.0594ZM14.4593 59.0594H13.1008V55.6629H14.4593V59.0594ZM16.103 59.0594H14.7446V55.6629H16.103V59.0594ZM17.7468 59.0594H16.3883V55.6629H17.7468V59.0594ZM19.3906 59.0594H18.0321V55.6629H19.3906V59.0594Z" fill="#F8765E"/>
<path opacity="0.1" d="M2.94434 65.1389V69.0278H19.4721V65.1389H2.94434ZM4.59151 68.7749H3.2432V65.3823H4.6017L4.59151 68.7749ZM6.23699 68.7749H4.87849V65.3823H6.23699V68.7749ZM7.87907 68.7749H6.52057V65.3823H7.87907V68.7749ZM9.52454 68.7749H8.16774V65.3823H9.52624L9.52454 68.7749ZM11.1683 68.7749H9.80982V65.3823H11.1683V68.7749ZM12.8138 68.7749H11.4553V65.3823H12.8138V68.7749ZM14.4593 68.7749H13.1008V65.3823H14.4593V68.7749ZM16.103 68.7749H14.7446V65.3823H16.103V68.7749ZM17.7468 68.7749H16.3883V65.3823H17.7468V68.7749ZM19.3906 68.7749H18.0321V65.3823H19.3906V68.7749Z" fill="#F8765E"/>
<path opacity="0.1" d="M2.94434 71.9443V75.8332H19.4721V71.9443H2.94434ZM4.59151 75.5915H3.2432V72.1861H4.6017L4.59151 75.5915ZM6.23699 75.5915H4.87849V72.1861H6.23699V75.5915ZM7.87907 75.5915H6.52057V72.1861H7.87907V75.5915ZM9.52454 75.5915H8.16774V72.1861H9.52624L9.52454 75.5915ZM11.1683 75.5915H9.80982V72.1861H11.1683V75.5915ZM12.8138 75.5915H11.4553V72.1861H12.8138V75.5915ZM14.4593 75.5915H13.1008V72.1861H14.4593V75.5915ZM16.103 75.5915H14.7446V72.1861H16.103V75.5915ZM17.7468 75.5915H16.3883V72.1861H17.7468V75.5915ZM19.3906 75.5915H18.0321V72.1861H19.3906V75.5915Z" fill="#F8765E"/>
<path opacity="0.1" d="M2.94434 78.75C3.01085 79.1164 3.08589 79.4828 3.16434 79.8444V78.9943H4.52872V82.3994H3.79878C3.82095 82.4785 3.84312 82.5647 3.86529 82.6389H19.4721V78.75H2.94434ZM6.18474 82.3994H4.82036V78.9943H6.18474V82.3994ZM7.83394 82.3994H6.46956V78.9943H7.83394V82.3994ZM9.48654 82.3994H8.11875V78.9943H9.48313L9.48654 82.3994ZM11.1374 82.3994H9.77306V78.9943H11.1374V82.3994ZM12.7901 82.3994H11.4257V78.9943H12.7901V82.3994ZM14.4427 82.3994H13.0783V78.9943H14.4427V82.3994ZM16.0936 82.3994H14.7292V78.9943H16.0936V82.3994ZM17.7445 82.3994H16.3801V78.9943H17.7445V82.3994ZM19.3954 82.3994H18.031V78.9943H19.3954V82.3994Z" fill="#F8765E"/>
<path opacity="0.1" d="M5.86133 87.5C5.90383 87.5767 5.94464 87.6629 5.98884 87.7396H6.88822V89.3762C6.98513 89.5391 7.08033 89.702 7.17894 89.8554V87.73H8.53906V91.1493H7.98821C8.04262 91.2283 8.09532 91.3122 8.15823 91.3889H18.5002V87.5H5.86133ZM10.1814 91.1493H8.82128V87.7444H10.1814V91.1493ZM11.8288 91.1493H10.4687V87.7444H11.8288V91.1493ZM13.4763 91.1493H12.1162V87.7444H13.4763V91.1493ZM15.122 91.1493H13.7619V87.7444H15.122V91.1493ZM16.7678 91.1493H15.4077V87.7444H16.7678V91.1493ZM18.4135 91.1493H17.0534V87.7444H18.4135V91.1493Z" fill="#F8765E"/>
<path opacity="0.1" d="M15.5835 95.2778C15.7523 95.3805 15.9249 95.4752 16.0993 95.5779V95.4792H17.5836V96.3675L17.899 96.5235V95.4792H19.3833V97.1867C19.4118 97.2018 19.4416 97.2137 19.4724 97.2223V95.2778H15.5835Z" fill="#F8765E"/>
<path opacity="0.1" d="M114.584 104.028H114.75H114.584ZM103.89 78.7601C103.921 78.8678 103.948 78.9754 103.978 79.0814C103.951 78.9754 103.923 78.8678 103.89 78.7601ZM24.3335 29.1667V29.8852H31.7662V29.1667H24.3335ZM114.584 104.028H114.75H114.584ZM103.89 78.7601C103.921 78.8678 103.948 78.9754 103.978 79.0814C103.951 78.9754 103.923 78.8678 103.89 78.7601ZM114.584 104.023H114.75H114.584ZM103.89 78.7601C103.921 78.8678 103.948 78.9754 103.978 79.0814C103.951 78.9754 103.923 78.8678 103.89 78.7601Z" fill="#F8765E"/>
<path d="M77.3557 61.7999C77.3557 61.7999 76.6992 61.7086 76.6992 60.7563C76.6992 59.804 76.2294 58.0256 76.2294 58.0256C76.2294 58.0173 75.8229 54.9282 75.2615 54.4371C74.7001 53.946 73.9787 51.0626 73.9787 51.0626C73.9787 51.0626 73.8554 49.4982 73.6039 49.1614C73.3523 48.8246 73.0124 48.0001 72.511 46.8238C72.0095 45.6476 69.9187 44.833 69.9187 44.833C69.9187 44.833 66.1386 42.6497 65.0673 41.938C64.97 41.8795 64.879 41.8111 64.7958 41.7339C64.6092 41.49 63.7962 41.4851 63.7962 41.4851C63.7112 40.9509 63.6296 40.337 63.6029 39.7812C63.6029 39.7215 63.6029 39.6618 63.5946 39.6021C64.7891 38.8989 65.6888 37.7903 66.1286 36.4798C66.1486 36.4167 66.1652 36.3504 66.1835 36.2873C66.3283 36.2399 66.4462 36.1339 66.5084 35.9953C66.605 35.7813 66.6067 35.5308 66.7267 35.3317C66.8666 35.0961 67.1332 34.9701 67.3431 34.7925C67.8729 34.3446 68.0095 33.5897 67.9845 32.9029C67.9678 32.3471 67.8779 31.7864 67.9128 31.2339L67.9228 31.0946C67.9328 31.0116 67.9445 30.9287 67.9595 30.849C68.0411 30.4376 68.2194 30.0494 68.3193 29.6413C68.4193 29.2331 68.4293 28.7736 68.1961 28.4219C67.8545 27.9059 67.1432 27.8031 66.5184 27.75C65.8104 27.6902 65.1773 27.7682 64.7241 27.1826C64.5121 26.8765 64.2735 26.5895 64.0111 26.3249C63.9178 26.2386 63.0115 25.6878 63.0115 25.6513C62.127 25.2433 61.1243 25.1668 60.1877 25.4356C59.7179 25.5717 59.2747 25.794 58.7982 25.9051C57.7703 26.1473 56.5875 25.8852 55.7145 26.4709C55.228 26.8027 54.9365 27.3302 54.6633 27.8445C54.4411 28.2681 54.2157 28.6912 53.9869 29.1137C53.6187 29.8088 53.2438 30.5156 53.0889 31.2854C53.0563 31.4529 53.0363 31.6226 53.0289 31.793V31.8013C53.0289 31.8627 53.0289 31.9241 53.0289 31.9855V32.0634C53.0289 32.1215 53.0289 32.1779 53.0389 32.2293C53.0489 32.2808 53.0472 32.2974 53.0522 32.3322C53.0572 32.367 53.0656 32.445 53.0756 32.4981C53.0856 32.5512 53.1056 32.6441 53.1255 32.7171C53.1339 32.7486 53.1455 32.7785 53.1555 32.8083C53.1722 32.8648 53.1922 32.9195 53.2138 32.9742C53.2255 33.0025 53.2372 33.0323 53.2505 33.0605C53.2755 33.1186 53.3055 33.175 53.3355 33.2264C53.3488 33.2496 53.3588 33.2712 53.3721 33.2928C53.4186 33.3699 53.4698 33.4442 53.5254 33.5151C53.8819 33.9581 54.4067 34.2401 54.7949 34.6548C54.7949 34.6714 54.7949 34.688 54.7949 34.703C54.7949 34.7494 54.7949 34.7942 54.7949 34.8407C54.8367 36.7187 55.8084 38.4546 57.3905 39.4776C57.3905 39.5407 57.3988 39.6054 57.4021 39.6684C57.4346 40.1609 57.4285 40.6551 57.3838 41.1466C57.2464 40.9854 57.0429 40.8951 56.8307 40.9011C56.7591 40.8976 56.6874 40.9037 56.6175 40.9193L56.6025 40.9077V40.9226C56.2359 41.0122 55.7845 41.3922 55.353 42.4722C55.353 42.4722 54.0402 43.9454 53.0406 43.884C52.041 43.8226 49.5104 45.417 49.5104 45.417C49.5104 45.417 47.0414 47.0129 46.5116 48.6388C46.2155 49.5607 45.8604 50.4629 45.4487 51.3397L42.3966 57.6025L41.8335 62.5713C41.8335 62.5713 42.145 64.7811 42.0834 65.1179C42.0218 65.4547 43.3645 68.4924 43.3645 68.4924C43.3645 68.4924 47.8011 76.255 49.6136 76.6531L49.7436 76.5619C49.8211 76.6022 49.9034 76.6329 49.9885 76.6531L50.3617 76.391C50.3841 76.6832 50.3746 76.9769 50.3334 77.267C50.0835 78.0334 50.4267 83.0354 50.8631 84.0159C51.2996 84.9964 51.1447 97.8522 51.1447 97.8522L51.083 98.987C51.083 98.987 51.083 99.0235 51.098 99.0865L51.083 99.3553L51.128 99.3785C51.1747 99.7384 51.1595 100.104 51.083 100.459C50.9264 100.956 50.8631 102.363 50.8631 102.363C50.8631 102.363 49.6153 110.307 50.2067 111.902C50.7982 113.498 51.3013 115.247 51.3013 115.247C51.3013 115.247 51.926 117.238 51.3313 117.578C50.7365 117.918 49.0455 118.489 49.3937 119.318C49.7103 120.085 50.9115 122.139 51.0897 122.439L51.0747 122.597L50.8298 125.239C50.8695 125.588 50.9645 125.929 51.1114 126.248C51.3796 126.824 51.901 127.421 52.8923 127.356C53.0589 127.345 53.2522 127.325 53.4388 127.3C55.253 127.058 57.4871 126.251 57.4871 126.251C57.3711 126.178 57.2648 126.091 57.1706 125.991C56.9903 125.817 56.8898 125.577 56.8923 125.327C56.919 124.846 56.0144 122.553 55.7895 121.989C55.7545 121.908 55.7361 121.862 55.7361 121.862C55.7361 121.862 57.7986 119.715 57.4554 117.812C57.4554 117.812 55.173 116.485 55.9244 115.756C56.6758 115.028 58.0185 112.936 58.0185 112.936C58.0185 112.936 58.0802 105.114 58.0185 103.946C57.9543 103.135 57.9929 102.32 58.1335 101.519C58.1585 101.398 58.1885 101.28 58.2201 101.164C59.2592 101.318 60.3082 101.397 61.3588 101.401C61.742 101.401 62.1319 101.401 62.525 101.378C62.525 101.488 62.53 101.608 62.54 101.736C62.6267 103.674 62.7883 107.071 62.9199 108.334C63.1065 110.144 64.1377 115.021 64.1377 115.021C64.1377 115.021 62.1702 116.279 64.4809 119.378C64.4809 119.378 64.4809 120.501 64.3276 120.664C64.164 121.195 64.0322 121.736 63.9328 122.283C63.8362 122.867 63.7962 123.458 63.9528 123.765C64.3276 124.498 66.5767 124.438 66.5767 124.438L66.6317 124.428C67.4894 124.34 68.3468 124.597 69.0124 125.143C69.867 125.827 73.1107 125.526 74.8667 125.309C75.5547 125.223 76.0145 125.143 76.0145 125.143C76.0368 125.066 76.0447 124.985 76.0379 124.904C76.0195 124.475 75.6813 123.532 73.3889 122.691C73.3889 122.691 71.2332 121.248 71.2631 119.99H71.2182H70.9683C71.1499 119.98 71.2665 119.99 71.2665 119.99C71.2665 119.99 70.4218 116.921 70.7667 116.672C71.1115 116.423 70.0786 113.022 70.0786 113.022C70.0786 113.022 69.4872 107.315 69.4555 106.915C69.4569 106.572 69.5091 106.231 69.6105 105.903L69.4555 102.775C69.4555 102.775 69.4256 101.734 69.4555 101.396C69.4505 101.102 69.4266 100.809 69.3839 100.518C69.3689 100.402 69.3539 100.281 69.3373 100.162C70.1453 99.9575 70.67 99.7684 70.67 99.7684L70.5768 88.8768C71.2631 87.5496 71.3898 84.638 71.3864 82.5725C71.3864 81.2453 71.3264 80.2632 71.3264 80.2632L72.2644 78.7385C72.2644 78.7385 72.481 76.9136 72.1378 76.5138C71.9862 76.3329 72.0545 76.1455 72.1794 75.9912C72.2443 75.9399 72.3128 75.8934 72.3843 75.8518C72.3843 75.8518 72.3743 75.8369 72.3627 75.8153C72.4282 75.7608 72.4978 75.7115 72.5709 75.6677C72.5709 75.6677 72.2377 75.1534 72.5359 74.936C72.8158 75.1252 73.0657 75.2678 73.2557 75.384C73.2423 75.5051 73.229 75.5748 73.229 75.5748L73.309 75.4089C73.4922 75.5117 73.6039 75.5748 73.6039 75.5748C73.6039 75.5748 75.0732 72.6599 75.0416 72.2302C75.0099 71.8005 76.0412 69.9905 76.0412 69.9905C76.0412 69.9905 76.1661 69.0399 76.7292 68.6417C77.2923 68.2435 77.1657 65.3585 77.1657 65.3585C77.1657 65.3585 77.3223 63.8554 77.6972 63.2416C78.072 62.6277 77.3557 61.7999 77.3557 61.7999ZM49.2405 60.5207L49.2688 61.2159C49.1022 60.9488 48.9822 60.7563 48.9822 60.7563L49.2405 60.5207Z" fill="url(#paint0_linear)"/>
<path d="M72.9446 75.0434L72.4936 76.8056C72.4936 76.8056 68.8809 75.1142 68.2294 72.9651C67.5779 70.816 69.3195 70 69.3195 70L72.6857 71.3083L72.9446 75.0434Z" fill="white"/>
<path opacity="0.1" d="M72.9446 75.0434L72.4936 76.8056C72.4936 76.8056 68.8809 75.1142 68.2294 72.9651C67.5779 70.816 69.3195 70 69.3195 70L72.6857 71.3083L72.9446 75.0434Z" fill="black"/>
<path d="M56.4169 127.283C56.4169 127.283 53.6348 128.212 51.7222 128.329C50.7068 128.39 50.173 127.825 49.8982 127.28C49.7481 126.977 49.6513 126.654 49.6113 126.324L49.86 123.82L49.9921 122.487L54.0556 121.528L54.6312 123.127L54.6851 123.248C54.9163 123.782 55.8431 125.954 55.8153 126.408C55.813 126.642 55.9159 126.868 56.1004 127.032C56.1937 127.127 56.3001 127.212 56.4169 127.283Z" fill="white"/>
<path d="M74.8866 125.696C74.8931 125.78 74.8854 125.864 74.8639 125.946C74.8639 125.946 69.3065 126.943 68.1697 125.946C67.5216 125.356 66.6724 125.089 65.8311 125.208C65.8311 125.208 63.6809 125.271 63.322 124.509C63.1726 124.19 63.2116 123.569 63.3042 122.958C63.3986 122.385 63.5244 121.819 63.6809 121.262L63.767 121.188L64.2786 120.746L70.2679 120.556H70.3134C70.2842 121.873 72.3466 123.384 72.3466 123.384C74.5374 124.258 74.8606 125.245 74.8866 125.696Z" fill="white"/>
<path opacity="0.1" d="M74.8871 125.603C74.8928 125.699 74.8845 125.794 74.8627 125.886C74.8627 125.886 69.3063 127.017 68.1694 125.886C67.5216 125.219 66.673 124.915 65.8322 125.051C65.8322 125.051 63.6801 125.122 63.3228 124.259C63.1734 123.894 63.2107 123.193 63.3033 122.5C64.1316 122.601 65.4391 122.852 65.9524 123.453C66.7287 124.365 68.0443 125.276 68.8516 125.348C69.4834 125.397 73.2629 125.544 74.8871 125.603Z" fill="black"/>
<path opacity="0.1" d="M56.4169 127.544C56.4169 127.544 53.5116 128.242 51.5143 128.33C50.4539 128.376 49.8964 127.951 49.6113 127.54C50.3504 127.703 51.3763 127.874 51.9156 127.717C52.5547 127.532 54.8208 127.412 56.0919 127.361C56.1886 127.43 56.2977 127.492 56.4169 127.544Z" fill="black"/>
<path d="M60.7788 49.3792C58.6143 48.4823 55.8299 45.5188 56.5252 44.134C56.6796 43.7846 56.7714 43.4075 56.7958 43.0221C56.8405 42.4989 56.8471 41.9728 56.8154 41.4485C56.7667 40.5899 56.6698 39.7352 56.5252 38.8889C56.5252 38.8889 63.2827 39.0515 62.8892 40.1128C62.7744 40.424 62.7564 40.9642 62.7875 41.5692C62.8187 42.1741 62.9007 42.8577 62.9859 43.4364C63.104 44.2302 63.2221 44.8351 63.2221 44.8351C63.2221 44.8351 62.8088 45.4523 62.5661 45.4855C62.3235 45.5188 63.8845 50.6572 60.7788 49.3792Z" fill="#CF6F80"/>
<path opacity="0.1" d="M55.4446 122.949L55.3903 122.993C53.2321 121.049 50.622 123.472 50.622 123.472L50.5835 123.421L50.7166 122.32L54.8105 121.528L55.3903 122.848L55.4446 122.949Z" fill="black"/>
<path opacity="0.1" d="M70.0277 121.674C70.0277 121.674 68.5276 121.649 67.7276 122.217C66.9276 122.786 63.0607 122.341 63.2274 122.217C63.2768 122.156 63.3066 122.086 63.3141 122.014L63.8391 121.674L69.986 121.528C70.0094 121.618 70.0277 121.674 70.0277 121.674Z" fill="black"/>
<path d="M56.4014 100.538C56.3037 100.816 56.2295 101.105 56.1799 101.399C56.0583 102.206 56.0245 103.027 56.0793 103.844C56.1332 105.019 56.0793 112.895 56.0793 112.895C56.0793 112.895 54.9264 114.995 54.2836 115.736C53.6408 116.476 55.5954 117.806 55.5954 117.806C55.8869 119.72 54.1203 121.882 54.1203 121.882C52.3246 119.381 50.1529 122.5 50.1529 122.5C50.1529 122.5 48.9722 120.149 48.6778 119.31C48.3834 118.471 49.8307 117.89 50.3394 117.549C50.8481 117.208 50.3146 115.198 50.3146 115.198C50.3146 115.198 49.8847 113.437 49.3745 111.83C48.8644 110.224 49.9371 102.225 49.9371 102.225C49.9371 102.225 49.9925 100.805 50.1252 100.31C50.1921 99.9523 50.2054 99.5843 50.1645 99.2218C50.1558 99.0992 50.1456 98.9968 50.1383 98.9279C50.131 98.8591 50.1252 98.8272 50.1252 98.8272L50.1456 98.7869L50.8743 97.2222C50.8743 97.2222 56.7512 99.5525 56.4014 100.538Z" fill="#9BDBE7"/>
<path d="M69.0556 120.542C69.0556 120.542 67.7001 120.511 66.9771 121.19C66.2542 121.869 62.7599 121.339 62.9105 121.19C63.0611 121.041 63.0491 119.937 63.0491 119.937C60.9992 116.926 62.7478 115.704 62.7478 115.704C62.7478 115.704 61.8321 110.963 61.6664 109.204C61.5504 107.976 61.4074 104.674 61.3306 102.789C61.2974 101.979 61.2778 101.421 61.2778 101.421L62.9527 101.058L63.1681 101.011L67.2076 100.139C67.2076 100.139 67.319 100.949 67.3943 101.612C67.4319 101.895 67.453 102.181 67.4576 102.466C67.4305 102.791 67.4576 103.805 67.4576 103.805L67.5946 106.847C67.5051 107.167 67.4589 107.498 67.4576 107.831C67.4847 108.219 68.0103 113.765 68.0103 113.765C68.0103 113.765 68.9246 117.075 68.6128 117.313C68.301 117.551 69.0556 120.542 69.0556 120.542Z" fill="#9BDBE7"/>
<path opacity="0.1" d="M62.2322 38.2894C62.1098 38.6314 62.0906 39.2251 62.1238 39.8899C60.1537 41.1933 57.6784 41.1425 55.7539 39.7593C55.702 38.815 55.5986 37.875 55.4443 36.9443C55.4443 36.9443 62.652 37.1192 62.2322 38.2894Z" fill="black"/>
<path d="M66.1363 35.0502C66.1376 35.6594 66.041 36.2648 65.8499 36.8437C64.9681 39.5219 62.2689 41.1806 59.458 40.7717C56.6471 40.3628 54.542 38.0053 54.473 35.1888C54.473 35.1415 54.473 35.0975 54.473 35.0502C54.437 32.9603 55.5407 31.0137 57.3601 29.9583C59.1795 28.9029 61.4315 28.9029 63.2509 29.9583C65.0703 31.0137 66.174 32.9603 66.138 35.0502H66.1363Z" fill="#CF6F80"/>
<path opacity="0.1" d="M60.7788 48.3994C58.6143 47.4691 55.8299 44.3953 56.5252 42.959C56.6796 42.5966 56.7714 42.2054 56.7958 41.8057L59.7588 44.4986L61.5921 46.1616L62.9859 42.2373C63.104 43.0606 63.2221 43.688 63.2221 43.688C63.2221 43.688 62.8088 44.3282 62.5661 44.3626C62.3235 44.3971 63.8845 49.725 60.7788 48.3994Z" fill="black"/>
<path d="M68.0833 58.9468L65.5164 100.898L62.1687 101.111L53.5 76.7863L54.9221 47.9072L55.2215 41.8057L59.0761 44.8854L60.9796 46.4029L62.4681 42.7175L65.2357 45.0641L68.0833 58.9468Z" fill="#9BDBE7"/>
<path opacity="0.1" d="M57.3728 101.078C57.2671 101.403 57.1868 101.739 57.1331 102.083C54.8747 101.65 52.6813 100.798 50.6261 99.5567L50.5835 99.5292L50.5977 99.2137L50.6056 99.049L51.3941 97.2222C51.3941 97.2222 57.7513 99.9271 57.3728 101.078Z" fill="black"/>
<path opacity="0.1" d="M63.2223 102.826C62.5984 102.939 61.9692 103.016 61.3375 103.056C61.3 102.145 61.2778 101.519 61.2778 101.519L63.1729 101.111L63.2223 102.826Z" fill="black"/>
<path opacity="0.1" d="M68.0833 100.624C66.8515 100.921 64.9494 101.255 63.2464 101.046L63.2222 100.029L67.8685 99.1667C67.8685 99.1667 67.9967 99.9605 68.0833 100.624Z" fill="black"/>
<path opacity="0.1" d="M63.2223 101.833C56.7663 103.015 50.8536 99.6268 50.8536 99.6268L50.9103 98.479C50.9103 98.479 51.0567 85.4659 50.6505 84.4683C50.2442 83.4707 49.9277 78.4116 50.1576 77.6351C50.3875 76.8586 49.3183 65.2146 49.3183 65.2146L49.1451 60.4881L42.8057 57.7349L45.64 51.4014C46.0228 50.5134 46.3521 49.6 46.6257 48.6668C47.1186 47.0226 49.4065 45.4072 49.4065 45.4072C49.4065 45.4072 51.7527 43.7934 52.6802 43.8542C53.6076 43.915 54.8232 42.4261 54.8232 42.4261C55.7208 39.9734 56.5333 41.0841 56.5333 41.0841C56.5333 41.2006 56.5333 41.0841 56.4892 41.4471C56.1743 44.1395 61.5816 52.6472 61.6587 52.7974L62.1736 66.2443L62.6948 83.2613L63.2223 101.833Z" fill="black"/>
<path d="M63.2223 101.833C56.7678 103.015 50.8549 99.6272 50.8549 99.6272L50.9131 98.4796C50.9131 98.4796 51.0595 85.4687 50.6518 84.4712C50.2441 83.4737 49.9292 78.4155 50.1606 77.6392C50.3921 76.8628 49.3216 65.2207 49.3216 65.2207L49.1468 60.495L42.8057 57.7321L45.6393 51.3996C46.0212 50.5114 46.3504 49.5982 46.6248 48.6655C47.116 47.0216 49.405 45.4064 49.405 45.4064C49.405 45.4064 51.7506 43.7929 52.6763 43.8537C53.602 43.9145 54.8189 42.4259 54.8189 42.4259C55.7178 39.9736 56.708 41.0841 56.708 41.0841C56.708 41.2006 56.6136 41.2529 56.6639 41.447C57.3566 44.0579 61.5819 52.6452 61.6591 52.7954L62.1802 66.2401L62.7012 83.2543L63.2223 101.833Z" fill="white"/>
<path opacity="0.1" d="M61.2777 53.4723C60.4831 53.1693 56.274 48.7763 56.274 48.7763V47.7765C56.1209 47.4471 55.2109 47.6481 54.4722 47.8787L54.7893 41.8057L55.1497 42.0791C55.9389 44.6256 61.1858 53.3257 61.2777 53.4723Z" fill="black"/>
<path d="M61.2777 53.4723C60.4815 53.1693 56.2735 48.7763 56.2735 48.7763V47.7765C56.1204 47.4471 55.2107 47.6481 54.4722 47.8787L54.791 41.8057L55.1513 42.0791C55.9421 44.6256 61.1895 53.3274 61.2777 53.4723Z" fill="white"/>
<path opacity="0.1" d="M50.9119 76.2895C50.9921 76.2895 55.0726 75.8333 55.0726 75.8333C55.0726 75.8333 57.5434 80.9988 57.3814 82.2557C57.2194 83.5126 56.9261 84.6252 55.9322 84.4281C54.9384 84.231 50.5835 84.5833 50.5835 84.5833L50.9119 76.2895Z" fill="black"/>
<path d="M49.9397 76.2895C50.02 76.2895 54.1006 75.8333 54.1006 75.8333C54.1006 75.8333 56.5699 81.0004 56.4094 82.2557C56.2488 83.511 55.9526 84.6252 54.9602 84.4281C53.9677 84.231 49.6113 84.5833 49.6113 84.5833L49.9397 76.2895Z" fill="white"/>
<path d="M53.0899 72.9167C53.0899 72.9167 57.2962 75.6701 57.3864 76.5106C57.4765 77.3512 55.2455 76.1433 54.7636 75.9975C54.4464 75.9044 54.1235 75.843 53.7981 75.8138L50.5835 75.9196L53.0899 72.9167Z" fill="#CF6F80"/>
<path opacity="0.1" d="M60.7915 53.9861C61.3438 53.9861 61.7915 53.5384 61.7915 52.9861C61.7915 52.4338 61.3438 51.9861 60.7915 51.9861C60.2392 51.9861 59.7915 52.4338 59.7915 52.9861C59.7915 53.5384 60.2392 53.9861 60.7915 53.9861Z" fill="black"/>
<path d="M60.7915 53.9861C61.3438 53.9861 61.7915 53.5384 61.7915 52.9861C61.7915 52.4338 61.3438 51.9861 60.7915 51.9861C60.2392 51.9861 59.7915 52.4338 59.7915 52.9861C59.7915 53.5384 60.2392 53.9861 60.7915 53.9861Z" fill="#3F3D56"/>
<path opacity="0.1" d="M60.7915 74.4028C61.3438 74.4028 61.7915 73.9551 61.7915 73.4028C61.7915 72.8505 61.3438 72.4028 60.7915 72.4028C60.2392 72.4028 59.7915 72.8505 59.7915 73.4028C59.7915 73.9551 60.2392 74.4028 60.7915 74.4028Z" fill="black"/>
<path d="M60.7915 73.4307C61.3438 73.4307 61.7915 72.9829 61.7915 72.4307C61.7915 71.8784 61.3438 71.4307 60.7915 71.4307C60.2392 71.4307 59.7915 71.8784 59.7915 72.4307C59.7915 72.9829 60.2392 73.4307 60.7915 73.4307Z" fill="#3F3D56"/>
<path opacity="0.1" d="M60.7915 64.6807C61.3438 64.6807 61.7915 64.2329 61.7915 63.6807C61.7915 63.1284 61.3438 62.6807 60.7915 62.6807C60.2392 62.6807 59.7915 63.1284 59.7915 63.6807C59.7915 64.2329 60.2392 64.6807 60.7915 64.6807Z" fill="black"/>
<path d="M60.7915 64.6807C61.3438 64.6807 61.7915 64.2329 61.7915 63.6807C61.7915 63.1284 61.3438 62.6807 60.7915 62.6807C60.2392 62.6807 59.7915 63.1284 59.7915 63.6807C59.7915 64.2329 60.2392 64.6807 60.7915 64.6807Z" fill="#3F3D56"/>
<path d="M71.3743 74.6171C71.3743 74.6171 71.672 75.0788 71.3743 75.2946C71.0765 75.5104 71.4034 76.0323 71.4034 76.0323C71.4034 76.0323 70.6607 76.4823 70.9875 76.8872C71.3144 77.292 71.1073 79.1204 71.1073 79.1204L70.2141 80.6494C70.2141 80.6494 70.2675 81.6347 70.2707 82.9663C70.2707 85.044 70.1526 87.9648 69.4989 89.2963L69.5895 100.222C69.5895 100.222 66.4617 101.403 63.8435 101.043L63.4552 83.5116C63.4552 83.5116 64.0215 73.5699 64.2303 71.6629C64.3524 70.6728 64.4022 69.6746 64.3791 68.6768C64.3791 68.6768 64.2901 65.6925 63.9908 64.3074C63.9908 64.3074 63.6672 58.3069 63.6348 56.6457C63.6202 55.8511 63.6607 53.5326 63.706 51.3278C63.7561 48.9172 63.8128 46.6438 63.8128 46.6438L63.2222 41.8126C63.2222 41.8126 63.8128 41.7507 63.9908 41.9966C64.0705 42.0736 64.1572 42.1425 64.2497 42.2024C65.2691 42.915 68.871 45.1064 68.871 45.1064C68.871 45.1064 70.8646 45.9261 71.3419 47.1005C71.8193 48.2748 72.151 49.1079 72.3824 49.4425C72.6138 49.777 72.74 51.3495 72.74 51.3495C72.74 51.3495 73.4261 54.2435 73.9617 54.7337C74.4973 55.2238 74.8888 58.342 74.8888 58.342L70.1558 62.1895C70.1558 62.1895 69.74 68.5899 69.651 68.8374C69.562 69.085 71.3743 74.6171 71.3743 74.6171Z" fill="white"/>
<path d="M71.1464 74.6381C71.1464 74.6381 71.4622 75.0994 71.1464 75.315C70.8306 75.5305 71.1757 76.052 71.1757 76.052C71.1757 76.052 70.3889 76.5065 70.734 76.911C71.0791 77.3154 70.8617 79.142 70.8617 79.142L69.9093 80.6695C69.9093 80.6695 69.9662 81.6538 69.9714 82.9841C69.9714 85.0598 69.8454 87.9777 69.1483 89.3079L69.2432 100.223C69.2432 100.223 65.9028 101.402 63.1144 101.043L62.7021 83.5289C62.7021 83.5289 63.306 73.597 63.5286 71.6918C63.659 70.7027 63.7114 69.7055 63.6856 68.7087C63.6856 68.7087 63.5907 65.7273 63.2732 64.3435C63.2732 64.3435 62.9281 58.3489 62.8919 56.6894C62.8763 55.8956 62.9212 53.5793 62.9678 51.3766C63.0213 48.9684 63.0817 46.6973 63.0817 46.6973L62.25 41.8057C62.25 41.8057 63.0817 41.8057 63.2732 42.0547C63.3574 42.1325 63.45 42.2014 63.5493 42.2602C64.6363 42.9722 68.4789 45.1614 68.4789 45.1614C68.4789 45.1614 70.6029 45.9803 71.1119 47.1535C71.6209 48.3267 71.9746 49.159 72.2231 49.4932C72.4715 49.8274 72.6027 51.3984 72.6027 51.3984C72.6027 51.3984 73.3343 54.2896 73.9054 54.7792C74.4765 55.2689 74.8889 58.3773 74.8889 58.3773L69.842 62.2211C69.842 62.2211 69.3985 68.6151 69.3019 68.8624C69.2053 69.1098 71.1464 74.6381 71.1464 74.6381Z" fill="white"/>
<path opacity="0.1" d="M66.3212 48.2124L66.8518 49.3888L64.0582 51.5278C64.1205 49.3277 64.1909 47.2499 64.1909 47.2499L63.2222 42.7778C63.2222 42.7778 64.1909 42.7778 64.414 43.0055C64.5118 43.0764 64.6196 43.139 64.7355 43.1919L67.1111 48.4019L66.3212 48.2124Z" fill="black"/>
<path d="M65.3475 48.2124L65.8798 49.3888L63.0876 51.5278C63.1499 49.3262 63.2202 47.2499 63.2202 47.2499L62.25 42.7778C62.25 42.7778 63.2202 42.7778 63.4412 43.0055C63.5397 43.0762 63.6474 43.1392 63.7626 43.1934L66.1389 48.4019L65.3475 48.2124Z" fill="white"/>
<path opacity="0.1" d="M66.1363 34.1963C66.1376 34.717 66.041 35.2346 65.8499 35.7295C65.7848 35.7381 65.7184 35.7241 65.6658 35.6905C65.6215 34.39 64.8663 33.1689 63.9373 32.1299C63.6764 31.8162 63.3602 31.5383 62.9997 31.3062C62.6352 31.0741 62.1819 30.9654 61.728 31.0013C61.2166 31.0605 60.7649 31.3553 60.2484 31.3929C59.5665 31.4406 58.9563 31.0403 58.2795 31.02C57.7229 31.0245 57.1956 31.232 56.8323 31.5894C56.4767 31.9459 56.2126 32.3613 56.0566 32.809C55.7886 33.488 55.6427 34.1973 55.6237 34.9131C55.6151 35.3177 55.5691 35.8249 55.1259 35.9723C55.1934 35.3707 54.9603 34.7726 54.4833 34.3235L54.473 34.3148C54.473 34.2743 54.473 34.2368 54.473 34.1963C54.437 32.4097 55.5407 30.7456 57.3601 29.8434C59.1795 28.9412 61.4315 28.9412 63.2509 29.8434C65.0703 30.7456 66.174 32.4097 66.138 34.1963H66.1363Z" fill="black"/>
<path d="M62.984 26.636C62.1463 26.215 61.1935 26.1353 60.3048 26.4121C59.8582 26.5533 59.4375 26.7824 58.9845 26.8978C58.0172 27.1476 56.8888 26.8771 56.0586 27.4817C55.5975 27.8262 55.3203 28.3706 55.0623 28.8994L54.4175 30.2119C54.0661 30.9302 53.7114 31.6605 53.5647 32.4512C53.418 33.2418 53.5067 34.1272 53.9758 34.7628C54.3176 35.2261 54.8221 35.5172 55.1929 35.953C55.6419 36.4889 55.8616 37.2005 55.799 37.9167C56.2198 37.7444 56.2601 37.1381 56.2698 36.6558C56.2877 35.8026 56.4258 34.9571 56.6792 34.1478C56.8264 33.614 57.0762 33.1188 57.4127 32.694C57.7566 32.2684 58.2551 32.0212 58.7814 32.0154C59.4262 32.0395 60.0049 32.5149 60.6433 32.4581C61.1269 32.415 61.5557 32.0619 62.0426 31.993C62.4718 31.9496 62.9008 32.0792 63.2452 32.3564C63.586 32.6328 63.8846 32.964 64.1302 33.3383C65.0104 34.5767 65.7245 36.0288 65.7664 37.5825C65.9486 37.7255 66.2114 37.5394 66.3017 37.319C66.3919 37.0985 66.3952 36.8401 66.5096 36.63C66.6418 36.3871 66.8949 36.2579 67.0932 36.0753C67.5961 35.612 67.7219 34.8317 67.7025 34.1237C67.6832 33.4158 67.5542 32.6975 67.68 32.0016C67.7557 31.5744 67.9266 31.1748 68.0201 30.7528C68.1136 30.3308 68.1249 29.8571 67.9041 29.4936C67.5816 28.9597 66.903 28.8546 66.3113 28.8046C65.6391 28.7426 65.0378 28.8219 64.609 28.2173C64.4077 27.9018 64.1812 27.6055 63.9319 27.3319C63.8465 27.2423 62.984 26.6739 62.984 26.636Z" fill="#512E4E"/>
<path opacity="0.1" d="M43.1492 61.6214L41.4117 58.3333L40.8613 63.4067C40.8613 63.4067 41.1673 65.66 41.1058 66.0055C41.0442 66.351 42.3595 69.4485 42.3595 69.4485C42.3595 69.4485 46.7042 77.3692 48.4783 77.7777L54.4724 73.3935L52.8829 71.3274C52.8829 71.3274 52.3325 71.1079 52.1945 71.3274C52.1945 71.3274 49.2432 66.1297 48.9372 65.7536C48.6313 65.3775 48.6911 64.627 48.6911 64.627C48.6911 64.627 48.2322 64.1266 48.3852 63.6569C48.5382 63.1871 47.499 61.5584 47.499 61.5584L48.4467 60.6513L43.1492 61.6214Z" fill="black"/>
<path d="M41.8705 58.3333L41.4116 58.7006L40.8613 63.6782C40.8613 63.6782 41.1672 65.889 41.1057 66.2279C41.0442 66.5669 42.3609 69.6059 42.3609 69.6059C42.3609 69.6059 46.7035 77.377 48.4774 77.7777L54.4724 73.4764L52.8814 71.4493C52.8814 71.4493 52.3311 71.2339 52.1931 71.4493C52.1931 71.4493 49.2421 66.3498 48.9362 65.9808C48.6303 65.6118 48.6918 64.8754 48.6918 64.8754C48.6918 64.8754 48.233 64.3845 48.3859 63.9236C48.5389 63.4628 47.4981 61.8648 47.4981 61.8648L48.4458 60.9748L41.8705 58.3333Z" fill="white"/>
<path opacity="0.1" d="M71.4393 77.5812C71.8542 77.9523 71.5928 79.6186 71.5928 79.6186L70.4477 81.0146C70.4477 81.0146 70.5161 81.9157 70.5203 83.1299L68.5951 83.5728C68.2421 83.654 67.8576 83.6044 67.5631 83.4397C67.2685 83.275 67.1004 83.0156 67.1119 82.7435L67.4438 74.8611L71.9351 76.1257C71.5534 76.3212 71.9724 76.8008 71.9724 76.8008C71.9724 76.8008 71.0202 77.2101 71.4393 77.5812Z" fill="black"/>
<path d="M71.4395 77.5777C71.8542 77.9485 71.593 79.6151 71.593 79.6151L70.4483 81.01C70.4483 81.01 70.5167 81.9089 70.523 83.1237L68.5634 83.574C68.2178 83.653 67.8417 83.6042 67.5535 83.4431C67.2654 83.2819 67.1009 83.0282 67.1118 82.762L67.4457 74.8611L71.9372 76.1247C71.5536 76.3201 71.9724 76.7978 71.9724 76.7978C71.9724 76.7978 71.0248 77.2083 71.4395 77.5777Z" fill="white"/>
<path d="M71.9724 73.3818C71.9724 73.3818 71.6423 75.0581 70.816 75.1563C69.9898 75.2545 69.6193 77.8681 68.7953 77.7753C67.9712 77.6824 68.5168 75.3456 68.546 74.8921C68.5752 74.4387 67.6479 72.5606 68.3417 72.134C69.0355 71.7073 71.2314 72.134 71.2314 72.134L71.9724 73.3818Z" fill="#CF6F80"/>
<path opacity="0.1" d="M73.4171 61.6339L74.4636 59.3057C74.4636 59.3057 74.8797 61.0801 74.8797 62.028C74.8797 62.976 75.4618 63.0691 75.4618 63.0691C75.4618 63.0691 76.0996 63.9006 75.7633 64.5059C75.4271 65.1113 75.2914 66.618 75.2914 66.618C75.2914 66.618 75.4014 69.4933 74.9024 69.8908C74.4033 70.2883 74.2992 71.2379 74.2992 71.2379C74.2992 71.2379 73.3825 73.0422 73.4111 73.4713C73.4398 73.9004 72.1355 76.8057 72.1355 76.8057C72.1355 76.8057 72.7733 73.1952 69.0565 71.6353C69.0565 71.6353 69.0279 70.4097 69.3053 70.0737C69.5827 69.7378 70.0155 69.5848 69.7441 67.8869C69.4727 66.1889 69.6657 64.16 69.6657 63.7526C69.6657 63.3451 70.498 60.804 70.498 60.804L73.4171 61.6339Z" fill="black"/>
<path d="M73.5503 58.3333L74.4633 58.6778C74.4633 58.6778 74.8806 60.5159 74.8806 61.4978C74.8806 62.4797 75.4621 62.5762 75.4621 62.5762C75.4621 62.5762 76.0994 63.4375 75.7634 64.0646C75.4275 64.6916 75.2934 66.2524 75.2934 66.2524C75.2934 66.2524 75.4034 69.2309 74.9047 69.6426C74.406 70.0543 74.2945 71.038 74.2945 71.038C74.2945 71.038 73.3801 72.9071 73.4087 73.3515C73.4373 73.796 72.1327 76.8055 72.1327 76.8055C72.1327 76.8055 72.7715 73.0656 69.0564 71.4497C69.0564 71.4497 69.0293 70.1801 69.3065 69.8321C69.5837 69.4841 70.016 69.3256 69.7449 67.5668C69.4737 65.8079 69.6665 63.7063 69.6665 63.2842C69.6665 62.8622 70.4981 60.2299 70.4981 60.2299L73.5503 58.3333Z" fill="white"/>
<path opacity="0.1" d="M51.5557 118.411C51.5557 118.411 53.7483 116.976 55.1874 118.019C56.6265 119.061 51.5557 118.411 51.5557 118.411Z" fill="black"/>
<path opacity="0.1" d="M64.1943 115.7C64.1943 115.7 66.1362 115.581 67.7668 116.419C69.3975 117.257 64.1943 115.7 64.1943 115.7Z" fill="black"/>
<g opacity="0.1">
<path opacity="0.1" d="M67.0383 34.0246C66.8412 34.1781 66.588 34.2881 66.4566 34.4923C66.3444 34.6675 66.3412 34.8832 66.2515 35.0715C66.1617 35.2597 65.9005 35.4132 65.7194 35.2945C65.6777 33.9913 64.9662 32.7677 64.0928 31.7252C63.8486 31.4105 63.5518 31.1321 63.213 30.8998C62.87 30.6668 62.4431 30.5579 62.0159 30.5943C61.5351 30.6537 61.112 30.949 60.6265 30.9852C59.9854 31.0345 59.4101 30.6334 58.7739 30.6131C58.2508 30.6178 57.7555 30.8263 57.4149 31.1851C57.0804 31.5416 56.832 31.9574 56.6858 32.4057C56.4339 33.0861 56.2967 33.7968 56.2787 34.514C56.2691 34.918 56.2274 35.4219 55.814 35.5725C55.8236 35.6795 55.8236 35.787 55.814 35.8939C56.2306 35.7491 56.2723 35.2394 56.2819 34.834C56.2998 34.1168 56.437 33.4061 56.689 32.7257C56.8352 32.2769 57.0836 31.8607 57.4181 31.5036C57.7594 31.1459 58.2544 30.938 58.7771 30.9331C59.4181 30.9534 59.9951 31.353 60.6297 31.3053C61.1104 31.2691 61.5367 30.9722 62.0191 30.9143C62.4463 30.8779 62.8732 30.9868 63.2162 31.2198C63.555 31.4521 63.8518 31.7305 64.096 32.0452C64.9694 33.0863 65.681 34.3069 65.7226 35.613C65.9037 35.7332 66.1649 35.5768 66.2547 35.3915C66.3444 35.2061 66.3476 34.9889 66.4598 34.8123C66.5912 34.6081 66.8444 34.4995 67.0415 34.346C67.5415 33.9565 67.6665 33.3006 67.6473 32.7055C67.6473 32.6866 67.6473 32.6678 67.6473 32.6504C67.6169 33.1659 67.4646 33.6915 67.0383 34.0246Z" fill="black"/>
<path opacity="0.1" d="M55.2081 33.9218C54.8395 33.5555 54.3363 33.3108 53.9982 32.9227C53.7134 32.5792 53.5508 32.1657 53.5318 31.7368C53.4814 32.2727 53.647 32.807 53.9982 33.2413C54.3363 33.6308 54.8395 33.8755 55.2081 34.2418C55.562 34.6002 55.7745 35.0544 55.8123 35.5334C55.8619 34.9444 55.6437 34.3624 55.2081 33.9218Z" fill="black"/>
<path opacity="0.1" d="M67.9599 29.5504C67.8653 29.9051 67.697 30.2425 67.6201 30.6002C67.5746 30.8392 67.5579 31.0819 67.5704 31.3242C67.5758 31.1862 67.5924 31.0487 67.6201 30.9129C67.697 30.5538 67.8653 30.2179 67.9599 29.8631C68.015 29.6675 68.0329 29.4648 68.0128 29.2637C68.0028 29.3603 67.9851 29.4561 67.9599 29.5504Z" fill="black"/>
</g>
<path opacity="0.1" d="M21.4165 126.389C30.5445 126.389 37.9442 125.083 37.9442 123.472C37.9442 121.862 30.5445 120.556 21.4165 120.556C12.2884 120.556 4.88867 121.862 4.88867 123.472C4.88867 125.083 12.2884 126.389 21.4165 126.389Z" fill="#F8765E"/>
<path d="M22.4165 72.9167H21.4165V96.2501H22.4165V72.9167Z" fill="#535461"/>
<path d="M28.2188 96.8236L28.1564 97.8498L28.0668 99.302L28.03 99.9055L27.942 101.358L27.9036 101.961L27.814 103.413L26.8031 119.883C26.7119 121.354 25.503 122.5 24.042 122.5H18.7856C17.3249 122.499 16.1165 121.353 16.0261 119.883L15.02 103.402L14.9304 101.95L14.8936 101.346L14.804 99.8942L14.7672 99.2907L14.6776 97.8385L14.6136 96.8123C14.5912 96.4131 14.7329 96.0223 15.0054 95.7318C15.2778 95.4414 15.6569 95.2772 16.0533 95.2778H26.8047C27.1996 95.2813 27.5755 95.4493 27.8433 95.7421C28.1112 96.0348 28.2471 96.4263 28.2188 96.8236Z" fill="#3F3D56"/>
<path d="M28.2224 97.2222L28.132 98.1944H14.7017L14.6113 97.2222H28.2224Z" fill="#9D9CB5"/>
<path d="M28.2224 99.1667L28.1319 100.139H14.7035L14.6113 99.1667H28.2224Z" fill="#9D9CB5"/>
<path d="M28.2224 102.083L28.1302 103.055H14.7053L14.6113 102.083H28.2224Z" fill="#9D9CB5"/>
<path d="M14.0193 82.6017C19.9241 87.1665 22.3889 94.3056 22.3889 94.3056C22.3889 94.3056 15.2727 94.0447 9.36633 89.48C3.45992 84.9152 1 77.7778 1 77.7778C1 77.7778 8.11292 78.037 14.0193 82.6017Z" fill="#9BDBE7"/>
<path d="M1 77.7778C1 77.7778 8.38618 82.1577 10.755 85.7843C13.1238 89.4109 22.3889 94.3056 22.3889 94.3056" stroke="#535461" stroke-width="2"/>
<path d="M16.8505 73.2431C20.0701 75.3899 21.4167 78.7499 21.4167 78.7499C21.4167 78.7499 17.5359 78.6274 14.3146 76.4806C11.0933 74.3337 9.75 70.9722 9.75 70.9722C9.75 70.9722 13.6292 71.0947 16.8505 73.2431Z" fill="#9BDBE7"/>
<path d="M9.75 70.9722C9.75 70.9722 13.7782 73.0339 15.0697 74.74C16.3611 76.4462 21.4167 78.7499 21.4167 78.7499" stroke="#535461" stroke-width="2"/>
<path d="M26.9433 80.1565C23.184 84.1827 22.3887 89.4444 22.3887 89.4444C22.3887 89.4444 27.6892 88.1767 31.4452 84.149C35.2012 80.1212 35.9998 74.8611 35.9998 74.8611C35.9998 74.8611 30.7025 76.1304 26.9433 80.1565Z" fill="#9BDBE7"/>
<path d="M35.9998 74.8611C35.9998 74.8611 31.1039 78.9888 29.8593 81.8326C28.6148 84.6764 22.3887 89.4444 22.3887 89.4444" stroke="#535461" stroke-width="2"/>
<path d="M165.272 77.3384C165.272 77.3384 162.557 63.6978 163.596 62.0006C163.596 62.0006 163.634 60.423 163.571 58.4119C163.571 58.3355 163.571 58.2591 163.571 58.1811C163.754 58.3042 163.945 58.4151 164.142 58.5132C165.1 59.01 166.199 59.1533 167.25 58.9184L166.428 57.9934C166.231 57.7726 166.025 57.5334 165.982 57.2411C165.94 56.9489 166.058 56.6881 166.16 56.4274C166.941 54.4346 166.982 51.9287 165.477 50.4076C164.206 49.1288 163.897 47.4782 162.517 46.3107C161.509 45.4555 160.955 44.2017 160.432 42.9894C159.989 41.9648 159.544 40.9319 159.291 39.8458C159.093 38.9972 159.014 38.1187 158.743 37.29C158.472 36.4614 157.963 35.6559 157.169 35.2856C156.886 35.1544 156.572 35.0797 156.314 34.9053C155.975 34.6745 155.771 34.2992 155.526 33.9704C154.281 32.3097 150.112 33.2879 148.139 33.9621C147.602 34.1319 147.105 34.4098 146.678 34.7791L146.697 34.7492C146.711 34.7243 146.729 34.6994 146.746 34.6745C146.53 34.8509 146.343 35.0611 146.193 35.2972C145.905 35.7572 145.785 36.2936 145.545 36.7918C145.256 37.3814 143.646 39.0271 144.338 39.6897C144.387 39.7342 144.442 39.7701 144.503 39.796C144.763 39.9052 145.049 39.9341 145.325 39.879L145.295 39.9504C145.059 40.535 144.938 41.1606 144.938 41.7921C144.938 44.5205 147.167 46.7325 149.918 46.7325C150.435 46.733 150.95 46.6529 151.443 46.495C151.454 46.5582 151.464 46.6213 151.476 46.6844C151.476 46.7093 151.484 46.7342 151.487 46.7591L151.4 46.882C151.396 46.8744 151.391 46.8672 151.385 46.8604L148.803 50.5039C148.409 50.7845 146.136 52.4452 146.007 53.6907C145.873 55.0541 145.738 56.65 145.738 56.65L145.72 56.9921C145.491 57.1847 145.191 57.2667 144.897 57.2162C144.092 57.0834 144.092 60.2054 144.092 60.2054C144.092 60.2054 143.555 60.7036 143.187 60.2718C142.819 59.8401 141.845 61.3031 141.845 61.3031L135.744 61.5688L135.604 61.5771L135.275 60.5492C135.201 60.3235 134.962 60.1998 134.737 60.2718C134.712 60.2803 134.687 60.2909 134.663 60.3034L134.64 60.3167L134.598 60.3466L134.576 60.3665C134.564 60.3773 134.553 60.389 134.543 60.4014L134.523 60.4246L134.514 60.4346C134.437 60.5421 134.415 60.6801 134.454 60.8066L134.737 61.6884C133.56 61.9275 132.356 62.6017 133.338 64.4584L128.361 63.53L129.971 64.8951L138.283 66.6272C138.173 66.8264 138.245 67.1154 138.589 67.5223C140.069 69.2776 142.766 69.7542 143.851 69.8771C144.138 70.5246 144.496 71.1373 144.919 71.7038L144.825 73.4525C144.825 73.4525 142.077 86.7809 141.574 87.4568C141.828 87.1661 142.06 86.8569 142.269 86.5318C141.472 89.2702 140.357 93.0183 140.064 93.5796C139.594 94.4764 139.158 98.1049 139.694 98.3374C139.858 98.4088 140.329 98.3739 141 98.3224V98.623L140.97 110.013C140.97 110.013 141.105 117 140.735 117.666C140.365 118.332 140.266 119.728 140.266 119.728C140.266 119.728 138.786 122.483 137.614 123.591C137.606 123.6 137.597 123.607 137.587 123.614L137.551 123.355C137.551 123.355 136.142 125.152 133.024 125.051C133.024 125.051 131.147 126.283 133.93 126.349C136.712 126.416 140.266 126.25 140.266 126.25C140.266 126.25 142.748 122.43 144.827 122.928V125.823H145.463V122.882C146.06 122.485 146.469 121.859 146.596 121.15C146.707 120.413 146.424 119.673 145.853 119.202C145.598 118.969 145.45 118.639 145.447 118.292L145.424 118.312C145.424 118.254 145.409 118.194 145.402 118.132C145.22 116.638 144.991 113.554 145.799 111.272C146.905 108.144 147.241 103.786 146.435 101.192C146.175 100.363 145.961 99.5196 145.795 98.6662C145.776 98.5582 145.757 98.4553 145.741 98.359C146.292 98.4342 146.837 98.5452 147.374 98.6911C149.241 99.2109 153.324 99.3072 156.811 99.279C156.819 99.3753 156.829 99.4766 156.84 99.5779C156.902 100.282 157.032 100.978 157.228 101.657C157.666 102.986 157.866 108.843 157.866 108.843C157.866 108.843 158.43 113.659 158.123 115.618C157.958 116.708 157.794 117.802 157.7 118.901V118.923C157.7 118.923 156.776 121.58 156.1 123.023C156.084 123.06 156.066 123.096 156.049 123.131C155.869 123.148 155.692 123.187 155.521 123.249C155.521 123.249 154.615 125.076 153.712 125.378C152.809 125.68 153.109 126.675 155.153 126.309C157.197 125.944 160.284 125.645 160.284 125.645L160.417 123.782L161.045 122.988L160.881 124.846L161.55 124.714L161.461 122.453L162.489 121.155C162.489 121.155 163.731 120.039 161.886 117.843V117.892C161.866 117.86 161.848 117.827 161.826 117.795V117.785C161.521 117.307 161.277 116.415 161.723 114.833C162.529 111.973 162.997 109.377 162.997 109.377C162.997 109.377 164.797 102.424 162.634 99.1345H162.729C162.508 98.6716 162.351 98.1797 162.264 97.6731C162.253 97.6133 162.243 97.5519 162.234 97.4888C163.834 97.3958 165.405 97.1035 166.686 96.4725C166.681 96.4658 165.91 79.9656 165.272 77.3384ZM144.957 65.8301V65.8633L144.628 65.8799L144.957 65.8301ZM143.828 65.9878C143.774 65.9999 143.724 66.0243 143.68 66.0592C143.539 66.2613 143.45 66.496 143.422 66.7418L142.909 66.6255C142.909 66.6255 142.549 66.5475 142.031 66.4594L141.786 66.2103C142.46 66.1539 143.161 66.0708 143.828 65.9878Z" fill="url(#paint1_linear)"/>
<path d="M162.679 122.009L162.389 125.417L163.361 125.224L163.215 121.528L162.679 122.009Z" fill="#1D2366"/>
<path d="M147.649 111.785C146.803 114.137 147.042 117.311 147.232 118.853C147.302 119.422 147.367 119.769 147.367 119.769C147.367 119.769 146.103 122.581 145.998 122.688C145.892 122.794 142.278 124.949 142.278 124.949L139.751 126.389C139.751 126.389 137.188 125.292 138.417 124.914C138.668 124.816 138.894 124.665 139.08 124.473C140.31 123.331 141.856 120.494 141.856 120.494C141.856 120.494 141.961 119.053 142.348 118.368C142.735 117.683 142.594 110.485 142.594 110.485L142.624 98.7517V97.2222L147.432 97.2565C147.463 97.7758 147.532 98.2922 147.64 98.8015C147.812 99.6807 148.036 100.55 148.31 101.404C149.157 104.08 148.805 108.563 147.649 111.785Z" fill="#FFB0B1"/>
<path opacity="0.1" d="M145.861 119.436C145.861 119.436 144.802 121.977 144.714 122.073C144.626 122.169 141.597 124.115 141.597 124.115L139.481 125.417C139.481 125.417 137.333 124.426 138.363 124.084C138.573 123.995 138.763 123.859 138.918 123.686L139.009 124.364L139.715 124.333L145.754 118.611C145.807 119.123 145.861 119.436 145.861 119.436Z" fill="black"/>
<path d="M145.718 119.583L139.088 125.551L138.318 125.583L138.157 124.458C138.157 124.458 136.809 126.191 133.815 126.094C133.815 126.094 132.017 127.282 134.682 127.346C137.347 127.41 140.749 127.249 140.749 127.249C140.749 127.249 143.126 123.554 145.115 124.036V126.827H145.726V124.01C146.3 123.624 146.692 123.02 146.81 122.339C146.918 121.633 146.649 120.921 146.101 120.462C145.858 120.234 145.719 119.916 145.718 119.583Z" fill="#1D2366"/>
<path d="M162.467 114.484C162.044 116.018 162.275 116.882 162.564 117.345V117.355C162.936 117.927 163.194 118.566 163.325 119.238L163.351 119.384L160.364 123.799L158.744 124.444C158.744 124.444 156.138 123.542 156.614 123.284C156.733 123.221 156.919 122.885 157.133 122.422C157.769 121.025 158.648 118.449 158.648 118.449V118.428C158.741 117.364 158.887 116.304 159.049 115.248C159.341 113.348 158.806 108.684 158.806 108.684C158.806 108.684 158.615 103.013 158.201 101.724C158.014 101.068 157.89 100.395 157.83 99.7154C157.744 98.9082 157.725 98.2432 157.725 98.2432C157.725 98.2432 159.441 95.8218 162.587 98.4369C162.838 98.6455 163.06 98.8889 163.244 99.1601C165.417 102.295 163.668 109.201 163.668 109.201C163.668 109.201 163.23 111.713 162.467 114.484Z" fill="#FFB0B1"/>
<path opacity="0.1" d="M163.361 119.62L160.37 123.829L158.747 124.444C158.747 124.444 156.137 123.584 156.614 123.338C156.733 123.278 156.92 122.958 157.134 122.516C158.238 122.507 158.811 123.523 158.811 123.523L160.211 123.307C160.211 123.307 162.057 119.804 162.472 119.59C162.886 119.376 162.535 117.991 162.535 117.991V117.639C162.546 117.651 162.556 117.665 162.569 117.677V117.687C162.941 118.232 163.2 118.842 163.331 119.483L163.361 119.62Z" fill="black"/>
<path d="M158.9 123.437C158.9 123.437 158.141 122.045 156.686 122.559C156.686 122.559 155.867 124.227 155.049 124.497C154.23 124.767 154.504 125.677 156.353 125.345C158.203 125.013 160.991 124.738 160.991 124.738L161.113 123.041L162.993 120.65C162.993 120.65 164.114 119.636 162.446 117.639V117.986C162.446 117.986 162.78 119.351 162.385 119.562C161.99 119.772 160.238 123.225 160.238 123.225L158.9 123.437Z" fill="#1D2366"/>
<path opacity="0.1" d="M146.592 97.2433C146.628 97.563 146.708 97.8808 146.833 98.1944C144.533 98.02 142.399 98.1067 141 98.1637V97.2222L146.592 97.2433Z" fill="black"/>
<path opacity="0.1" d="M164.333 99.0483C164.333 99.0483 161.287 99.1465 157.654 99.1666C157.551 98.5371 157.528 98.0184 157.528 98.0184C157.528 98.0184 159.581 96.13 163.343 98.1695C163.644 98.3322 163.909 98.5221 164.13 98.7335C164.189 98.8409 164.257 98.9459 164.333 99.0483Z" fill="black"/>
<path d="M163.361 99.0042C163.361 99.0042 151.566 99.5802 147.971 98.5625C144.375 97.5447 140.812 98.4265 140.275 98.1904C139.738 97.9542 140.174 94.2552 140.646 93.3394C141.117 92.4236 143.702 83.1618 143.702 83.1618L146.19 70.0686L148.81 69.3397L148.996 69.287L153.562 68.0161L156.908 67.0833C156.908 67.0833 163.561 93.3054 162.991 95.239C162.784 95.9794 162.75 96.7584 162.893 97.5141C162.98 98.0302 163.138 98.5317 163.361 99.0042Z" fill="#1D2366"/>
<path d="M136.497 62.2222C136.497 62.2222 133.969 64.8936 135.883 66.3825C137.797 67.8714 139.055 66.525 139.055 66.525L136.497 62.2222Z" fill="#C7DAF5"/>
<path opacity="0.1" d="M136.497 62.2222C136.497 62.2222 133.969 64.8936 135.883 66.3825C137.797 67.8714 139.055 66.525 139.055 66.525L136.497 62.2222Z" fill="black"/>
<path d="M156.555 45.0199C156.555 45.0199 156.236 45.2588 155.755 45.611C155.069 46.1148 154.055 46.8513 153.155 47.4684C151.908 48.3213 150.88 48.9475 151.248 48.4131C151.616 47.8787 151.546 46.9477 151.363 46.0765C151.349 46.0183 151.338 45.9601 151.324 45.9034C151.172 45.2636 150.971 44.6315 150.722 44.0108C150.722 44.0108 152.736 41.9651 153.85 41.1582C154.265 40.8519 154.555 40.7264 154.573 40.9392C154.592 41.2255 154.865 41.8579 155.204 42.5286C155.214 42.55 155.223 42.57 155.235 42.5914C155.461 43.0508 155.716 43.5224 155.94 43.9297C156.283 44.5544 156.555 45.0199 156.555 45.0199Z" fill="#FFB0B1"/>
<path opacity="0.1" d="M155.583 42.7879C155.168 44.602 153.57 46.0884 151.412 46.6666C151.246 45.8887 151.015 45.1206 150.722 44.3677C150.722 44.3677 154.807 40.0817 154.87 40.9492C154.885 41.2781 155.204 42.0074 155.583 42.7879Z" fill="black"/>
<path opacity="0.1" d="M150.932 48.2391L151.339 47.6389C151.339 47.6389 151.608 49.36 152.599 48.6009C153.59 47.8418 153.639 54.3138 153.639 54.3138L152.575 70.9722L144.889 70.4904L145.107 62.441L145.977 58.3833L148.128 52.4845L149.408 50.5351L150.932 48.2391Z" fill="black"/>
<path d="M153.639 54.3198L152.67 69.3768L152.568 70.9722L148.28 70.7035L148.119 70.6934L144.889 70.4906L145.107 62.4424L145.977 58.3862L148.13 52.4895L149.411 50.5408L150.935 48.2372L151.342 47.6389C151.342 47.6389 151.612 49.3594 152.603 48.6006L152.624 48.5854C153.593 47.9431 153.639 54.3198 153.639 54.3198Z" fill="#1D2366"/>
<path d="M147.408 57.3611C147.408 57.3611 147.009 58.0887 146.208 57.9708C145.407 57.8529 145.409 60.5901 145.409 60.5901C145.409 60.5901 144.877 61.0267 144.51 60.6483C144.143 60.27 143.175 61.5491 143.175 61.5491L137.111 61.7819C137.111 61.7819 139.809 62.8573 139.28 66.1111C139.28 66.1111 148.441 65.6163 148.741 64.8611C149.041 64.1058 147.408 57.3611 147.408 57.3611Z" fill="white"/>
<path opacity="0.03" d="M147.408 57.3611C147.408 57.3611 147.009 58.0887 146.208 57.9708C145.407 57.8529 145.409 60.5901 145.409 60.5901C145.409 60.5901 144.877 61.0267 144.51 60.6483C144.143 60.27 143.175 61.5491 143.175 61.5491L137.111 61.7819C137.111 61.7819 139.809 62.8573 139.28 66.1111C139.28 66.1111 148.441 65.6163 148.741 64.8611C149.041 64.1058 147.408 57.3611 147.408 57.3611Z" fill="black"/>
<path d="M129.333 64.1667L130.913 65.7734L143.917 69.0279L142.304 67.0677L129.333 64.1667Z" fill="white"/>
<path d="M151.311 49.1653C151.119 49.4918 150.57 51.1635 150.111 52.623C149.728 53.8392 149.409 54.9085 149.409 54.9085C149.409 54.9085 148.663 60.3187 148.282 61.2965C147.901 62.2744 148.107 66.088 148.107 66.088L146.687 75.5059C146.687 75.5059 146.044 80.3627 145.05 83.2637C144.07 86.1189 142.978 87.4576 142.944 87.5C143.384 86.8372 145.78 73.7869 145.78 73.7869L146.572 57.3279C146.572 57.3279 146.687 55.7639 146.805 54.4269C146.922 53.0899 149.296 51.2647 149.296 51.2647L151.585 47.6389C151.815 47.9817 151.661 48.5792 151.311 49.1653Z" fill="white"/>
<path d="M144.671 70C144.671 70 140.49 69.8241 138.465 67.4713C136.439 65.1185 143.146 66.5323 143.146 66.5323L144.889 66.9192L144.671 70Z" fill="#FFB0B1"/>
<path opacity="0.1" d="M163.328 95.87C163.13 96.5967 163.098 97.3611 163.234 98.1028C159.191 98.3996 154.865 97.2691 154.865 97.2691C154.059 98.0361 151.937 99.1666 151.937 99.1666L150.78 84.3261C150.04 82.3251 149.75 71.8417 149.75 71.8417C149.75 71.8417 149.816 71.2931 149.911 70.471C149.911 70.451 149.911 70.4293 149.919 70.4093C150.208 68.1132 150.78 63.8028 151.06 63.2208C151.447 62.4204 149.871 60.2911 149.871 60.2911L150.588 53.963L150.675 53.1993C152.187 52.5006 153.346 50.2695 153.346 50.2695L154.235 48.6571C155.202 48.0151 155.252 54.3065 155.252 54.3065L154.285 69.1621L157.489 68.2466C157.489 68.2466 163.874 93.9724 163.328 95.87Z" fill="black"/>
<path d="M166.278 96.1624C161.634 98.3914 153.195 96.3265 153.195 96.3265C152.346 97.0815 150.11 98.1944 150.11 98.1944L148.889 83.5863C148.111 81.6167 147.806 71.2974 147.806 71.2974C147.806 71.2974 148.787 63.5978 149.194 62.8116C149.313 62.5818 149.256 62.2404 149.115 61.8727C148.422 60.1228 148.167 58.2392 148.371 56.3758L148.697 53.6988L148.787 52.9487C150.381 52.2593 151.602 50.0632 151.602 50.0632L152.451 48.6253L154.013 45.9762L154.753 44.7222L154.879 44.8321L155.838 45.6725C155.838 45.6725 156.246 46.0008 156.857 46.4932C158.186 47.5765 160.483 49.4837 161.668 50.6508C162.711 51.6782 163.04 55.675 163.135 58.6836C163.198 60.6647 163.161 62.2174 163.161 62.2174C162.11 63.89 164.859 77.3179 164.859 77.3179C165.499 79.9129 166.278 96.1624 166.278 96.1624Z" fill="white"/>
<path opacity="0.03" d="M158.637 49.8175C158.637 49.8175 155.354 55.7515 155.735 58.0068C156.116 60.2622 157.201 62.8148 156.678 63.411C156.314 63.8689 155.745 64.1387 155.14 64.1401C154.616 64.1733 153.216 65.1017 153.216 65.2014C153.216 65.301 151.924 65.301 150.767 65.766C149.611 66.2311 147.904 66.4951 147.904 66.4951C147.904 66.4951 144.581 66.3955 144.271 66.6944C143.962 66.9933 143.643 68.782 144.306 70.2086C144.969 71.6352 145.705 72.6998 146.262 72.8941C146.818 73.0884 150.348 71.9657 153.211 71.7C156.074 71.4343 159.183 69.2803 159.183 69.2803C159.183 69.2803 162.606 68.1177 163.206 66.163C163.806 64.2082 162.473 53.4646 162.473 53.4646C162.473 53.4646 161.465 48.4573 158.637 49.8175Z" fill="black"/>
<path opacity="0.03" d="M158.64 49.817C158.64 49.817 155.355 55.7528 155.74 58.0065C156.125 60.2603 157.207 62.8146 156.682 63.4125C156.319 63.871 155.75 64.141 155.145 64.1416C154.62 64.1748 153.22 65.1032 153.22 65.2029C153.22 65.3025 151.927 65.3025 150.77 65.7659C149.613 66.2293 147.905 66.495 147.905 66.495C147.905 66.495 144.58 66.3953 144.271 66.6943C143.963 66.9932 143.641 68.7836 144.306 70.2086C144.972 71.6336 145.707 72.6998 146.263 72.8941C146.82 73.0884 150.352 71.9657 153.217 71.7017C156.082 71.4376 159.192 69.2802 159.192 69.2802C159.192 69.2802 162.615 68.1176 163.208 66.1645C163.802 64.2114 162.475 53.4642 162.475 53.4642C162.475 53.4642 161.47 48.4585 158.64 49.817Z" fill="black"/>
<path d="M158.633 49.8152C158.633 49.8152 155.35 55.7515 155.735 58.0054C156.119 60.2593 157.2 62.8138 156.677 63.4101C156.314 63.8697 155.745 64.1404 155.14 64.1409C154.615 64.1741 153.216 65.1026 153.216 65.2006C153.216 65.2986 151.925 65.3003 150.767 65.7653C149.609 66.2304 147.904 66.4945 147.904 66.4945C147.904 66.4945 144.581 66.3948 144.271 66.6938C143.962 66.9928 143.643 68.7833 144.306 70.2084C144.969 71.6335 145.705 72.6998 146.262 72.8941C146.818 73.0885 150.347 71.9656 153.211 71.6999C156.074 71.4341 159.182 69.2799 159.182 69.2799C159.182 69.2799 162.605 68.1172 163.205 66.1623C163.805 64.2073 162.481 53.4627 162.481 53.4627C162.481 53.4627 161.459 48.4632 158.633 49.8152Z" fill="white"/>
<path opacity="0.1" d="M157.955 65.2826C157.955 65.2826 156.026 64.7997 156.698 65.6045C157.369 66.4094 157.365 67.1145 158.187 67.0823C159.008 67.0501 157.955 65.2826 157.955 65.2826Z" fill="black"/>
<path opacity="0.1" d="M162.665 83.6111C162.665 83.6111 161.607 84.6184 163.63 86.9402C165.653 89.2619 162.665 83.6111 162.665 83.6111Z" fill="black"/>
<path opacity="0.1" d="M159.531 90.4167C159.531 90.5211 159.048 94.2442 160.855 95.1749C162.662 96.1057 159.531 90.4167 159.531 90.4167Z" fill="black"/>
<path d="M136.152 61.25C134.908 61.2996 132.219 61.7377 133.613 64.737C134.846 67.3915 136.918 65.6172 138.083 64.2712C137.799 63.0162 137.108 61.9349 136.152 61.25Z" fill="#FFB0B1"/>
<path d="M138.058 65.1646L138.108 65.113L138.058 65.1646Z" fill="#FFB0B1"/>
<path opacity="0.1" d="M158.5 46.4517C157.257 47.2916 156.215 48.0004 156.011 48.1476C155.454 48.5556 154.393 50.9507 153.708 52.173C153.163 53.157 151.391 53.4098 150.722 53.4722L150.808 52.741C152.328 52.069 153.491 49.9283 153.491 49.9283L156.495 44.7222L157.529 45.6517C157.529 45.6517 157.917 45.9717 158.5 46.4517Z" fill="black"/>
<path d="M158.5 46.4517C157.257 47.2916 156.215 48.0004 156.011 48.1492C155.454 48.5556 154.393 50.9507 153.708 52.173C153.163 53.157 151.391 53.4098 150.722 53.4722L150.808 52.741C152.328 52.069 153.491 49.9283 153.491 49.9283L156.495 44.7222L157.529 45.6485C157.529 45.6485 157.917 45.9653 158.5 46.4517Z" fill="#DCE7FF"/>
<path d="M154.611 42.2909C154.612 43.1763 154.343 44.041 153.841 44.7703C152.616 46.5522 150.273 47.1715 148.327 46.2275C146.381 45.2836 145.417 43.0596 146.059 40.9944C146.7 38.9292 148.754 37.6424 150.892 37.9665C153.031 38.2907 154.611 40.1284 154.611 42.2909Z" fill="#FFB0B1"/>
<path opacity="0.1" d="M164.334 58.3334C163.645 57.9393 163.084 57.3788 162.711 56.7115C162.427 56.1909 162.239 55.5898 161.756 55.2206C161.32 54.8893 160.738 54.8088 160.196 54.6605C158.412 54.1699 156.916 52.6553 156.86 50.9261C156.833 50.112 157.106 49.2995 156.982 48.4933C156.912 48.037 156.717 47.6052 156.416 47.239C156.266 47.0639 156.103 46.8999 155.926 46.7484C155.688 46.5401 155.439 46.3382 155.222 46.1173C155.085 45.9805 154.966 45.8297 154.866 45.6676C154.785 45.5351 154.72 45.3949 154.671 45.2496C154.332 44.284 154.64 43.1386 154.267 42.162L154.247 42.1084C154.106 41.7613 153.82 41.4142 153.421 41.3874C153.023 41.3605 152.682 41.6682 152.302 41.8054C151.507 42.0926 150.649 41.6035 149.985 41.1049C149.322 40.6064 148.575 40.0368 147.732 40.1473C147.174 40.2214 146.733 40.5748 146.219 40.7579C146.103 40.7996 145.983 40.8318 145.861 40.8541C146.758 38.773 149.116 37.5767 151.482 38.0022C153.848 38.4277 155.557 40.3553 155.556 42.5974C155.557 42.9257 155.52 43.2531 155.446 43.574C155.454 43.5961 155.463 43.6166 155.473 43.6387C155.67 44.112 155.892 44.598 156.087 45.0176L157.045 45.8254C157.045 45.8254 157.452 46.141 158.063 46.6143C159.39 47.6556 161.685 49.4888 162.868 50.6106C163.91 51.6014 164.235 55.4415 164.334 58.3334Z" fill="black"/>
<path d="M146.284 37.6776C146.527 37.2055 146.648 36.6766 146.939 36.2289C147.365 35.5799 148.11 35.1646 148.875 34.9132C150.873 34.2561 155.094 33.3022 156.355 34.9132C156.604 35.2376 156.809 35.5978 157.153 35.8217C157.415 35.992 157.731 36.065 158.018 36.1932C158.822 36.5533 159.336 37.3385 159.609 38.14C159.883 38.9414 159.965 39.8012 160.165 40.627C160.422 41.6864 160.873 42.6906 161.321 43.6884C161.85 44.8662 162.411 46.0878 163.431 46.92C164.824 48.0557 165.131 49.6634 166.423 50.9094C167.953 52.3889 167.904 54.8305 167.115 56.7692C167.012 57.0239 166.894 57.29 166.935 57.5609C166.976 57.8319 167.187 58.0784 167.386 58.2942L168.222 59.1946C166.243 59.6505 164.004 58.6641 163.083 56.9331C162.799 56.3977 162.61 55.7812 162.124 55.4C161.689 55.0593 161.104 54.9782 160.561 54.8257C158.773 54.3195 157.273 52.7604 157.217 50.9824C157.19 50.1469 157.464 49.3114 157.34 48.484C157.271 48.0116 157.074 47.5645 156.77 47.1861C156.303 46.6037 155.597 46.2127 155.216 45.5638C154.572 44.4784 155.062 43.0686 154.597 41.9038C154.455 41.5469 154.169 41.19 153.77 41.1624C153.37 41.1348 153.028 41.4512 152.646 41.5923C151.85 41.8876 150.99 41.3863 150.325 40.872C149.66 40.3577 148.911 39.7737 148.064 39.8889C147.505 39.9635 147.064 40.3269 146.549 40.5167C146.168 40.6562 145.397 40.7811 145.063 40.4745C144.36 39.8564 145.99 38.2552 146.284 37.6776Z" fill="#591D4B"/>
<path opacity="0.1" d="M163.593 56.316C163.307 55.7672 163.12 55.1351 162.634 54.7459C162.198 54.3967 161.614 54.3118 161.07 54.1555C159.283 53.6382 157.783 52.0398 157.725 50.2169C157.698 49.3604 157.972 48.5021 157.849 47.6539C157.778 47.1728 157.582 46.7175 157.28 46.3316C156.811 45.7345 156.105 45.3337 155.726 44.6684C155.082 43.5573 155.571 42.112 155.105 40.9161C154.964 40.5519 154.677 40.186 154.279 40.156C153.881 40.1261 153.536 40.4538 153.155 40.5985C152.36 40.9012 151.498 40.3856 150.835 39.86C150.172 39.3344 149.418 38.734 148.573 38.8504C148.014 38.9286 147.572 39.3011 147.059 39.4941C146.678 39.6371 145.904 39.7668 145.571 39.4525C144.871 38.7872 146.501 37.1489 146.793 36.5601C147.037 36.0745 147.157 35.5339 147.45 35.0748C147.465 35.0499 147.482 35.0249 147.499 35C147.28 35.1773 147.091 35.3872 146.94 35.6221C146.649 36.0811 146.528 36.62 146.285 37.1073C145.991 37.6961 144.361 39.3394 145.063 39.9997C145.403 40.3157 146.168 40.186 146.549 40.0429C147.059 39.8483 147.504 39.4758 148.063 39.3993C148.913 39.2812 149.662 39.8816 150.325 40.4072C150.988 40.9328 151.855 41.4484 152.647 41.1457C153.028 41.001 153.361 40.675 153.769 40.7049C154.177 40.7348 154.449 41.0991 154.597 41.465C155.061 42.6592 154.572 44.1046 155.216 45.2173C155.597 45.8709 156.302 46.2801 156.77 46.8805C157.074 47.2684 157.27 47.7268 157.339 48.2111C157.464 49.0593 157.19 49.9159 157.217 50.7725C157.273 52.602 158.773 54.1937 160.561 54.7127C161.1 54.869 161.688 54.9522 162.124 55.3015C162.612 55.6923 162.804 56.3243 163.082 56.8732C164.004 58.6479 166.243 59.6591 168.222 59.1918L167.828 58.756C166.112 58.7809 164.376 57.8262 163.593 56.316Z" fill="black"/>
<path opacity="0.1" d="M151.076 49.4386C150.765 49.8195 149.875 51.7697 149.132 53.4722C148.437 53.2551 147.806 51.8706 147.806 51.8706L151.513 47.6389C151.893 48.0579 151.643 48.753 151.076 49.4386Z" fill="black"/>
<path d="M151.076 48.4651C150.765 48.8462 149.875 50.7969 149.132 52.5001C148.437 52.2848 147.806 50.8979 147.806 50.8979L151.513 46.6667C151.893 47.084 151.643 47.7812 151.076 48.4651Z" fill="#DCE7FF"/>
<path d="M136.418 65.4182L135.184 60.836C135.154 60.7277 135.163 60.61 135.207 60.5089C135.252 60.4078 135.328 60.3317 135.42 60.2975C135.612 60.2272 135.815 60.3515 135.877 60.576L137.111 65.1531L136.988 66.1112L136.418 65.4182Z" fill="#BE8B87"/>
<path opacity="0.1" d="M135.244 60.4266C135.442 60.3553 135.653 60.4798 135.716 60.7052L136.988 65.2823L136.892 66.0004L136.985 66.1112L137.111 65.1531L135.832 60.576C135.769 60.3515 135.559 60.2272 135.362 60.2975C135.282 60.327 135.213 60.386 135.167 60.4652C135.191 60.4499 135.218 60.437 135.244 60.4266Z" fill="white"/>
<path d="M136.139 66.3733L137.111 66.1111L136.969 66.9079L136.939 67.0833L136.655 66.8313L136.139 66.3733Z" fill="#EFC8C4"/>
<path d="M136.98 66.0204C136.994 66.0026 137.012 65.9879 137.032 65.9771C137.056 65.9621 137.086 65.9621 137.11 65.9771C137.121 65.9908 137.131 66.0059 137.138 66.022C137.161 66.0592 137.199 66.0843 137.242 66.0902L137.217 66.2565L136.98 66.0204Z" fill="#727A9C"/>
<path d="M135.167 64.1668C135.167 64.1668 137.596 64.1543 137.024 65.0772C136.452 66.0001 135.558 66.1112 135.558 66.1112L135.167 64.1668Z" fill="#FFB0B1"/>
<path d="M117.406 7.77783H117.282C112.365 7.77783 108.016 10.3816 105.515 14.2237C103.013 10.3816 98.6644 7.77783 93.7472 7.77783H93.6236C85.9431 7.85107 79.7542 14.1 79.75 21.786C79.75 26.3718 81.7571 32.8787 85.6709 38.2329C93.1275 48.4352 105.515 57.3612 105.515 57.3612C105.515 57.3612 117.902 48.4369 125.357 38.2329C129.272 32.8787 131.278 26.3718 131.278 21.786C131.274 14.1006 125.086 7.85197 117.406 7.77783ZM115.638 39.0179C114.491 39.0135 113.466 38.3047 113.055 37.2337H110.116C109.719 37.2312 109.367 36.9768 109.241 36.6004L108.338 33.878L105.48 43.8692C105.366 44.2642 105.005 44.5364 104.594 44.537H104.536C104.106 44.5162 103.748 44.1973 103.679 43.7719L100.734 26.0486L98.5821 36.5361C98.4805 36.9461 98.1126 37.2339 97.6905 37.2337H93.5494C93.2113 37.248 92.8926 37.0756 92.7193 36.7848C92.546 36.494 92.546 36.1314 92.7193 35.8406C92.8926 35.5498 93.2113 35.3774 93.5494 35.3917H96.9655L100.014 21.2913C100.117 20.8613 100.51 20.5646 100.952 20.5831C101.393 20.6015 101.76 20.9301 101.827 21.3671L104.834 39.4466L107.395 30.5074C107.504 30.1208 107.855 29.8524 108.257 29.8479H108.275C108.672 29.848 109.024 30.1034 109.148 30.4811L110.781 35.3967H113.019C113.461 34.0544 114.843 33.2616 116.224 33.5589C117.604 33.8562 118.538 35.1479 118.389 36.5531C118.24 37.9583 117.055 39.0244 115.643 39.0245L115.638 39.0179Z" fill="#9BDBE7"/>
<defs>
<linearGradient id="paint0_linear" x1="59.8178" y1="127.365" x2="59.8178" y2="25.278" gradientUnits="userSpaceOnUse">
<stop stop-color="#808080" stop-opacity="0.25"/>
<stop offset="0.54" stop-color="#808080" stop-opacity="0.12"/>
<stop offset="1" stop-color="#808080" stop-opacity="0.1"/>
</linearGradient>
<linearGradient id="paint1_linear" x1="147.8" y1="126.389" x2="147.8" y2="33.0603" gradientUnits="userSpaceOnUse">
<stop stop-color="#808080" stop-opacity="0.25"/>
<stop offset="0.54" stop-color="#808080" stop-opacity="0.12"/>
<stop offset="1" stop-color="#808080" stop-opacity="0.1"/>
</linearGradient>
</defs>
</svg>
