<svg width="190" height="141" viewBox="0 0 190 141" fill="none" xmlns="http://www.w3.org/2000/svg">
<path opacity="0.1" d="M105.226 19.3124C93.931 18.9241 83.1734 15.3009 72.901 11.3379C62.6286 7.37493 52.4539 2.98548 41.4223 0.884366C34.3315 -0.466101 26.2214 -0.656796 20.5093 3.1207C15.0101 6.76124 13.2334 13.0264 12.2788 18.8478C11.5597 23.2269 11.1374 27.8365 13.106 31.9364C14.4743 34.783 16.9019 37.1753 18.5791 39.9005C24.4203 49.3885 20.2911 61.085 13.9629 70.3493C10.996 74.6937 7.54922 78.8439 5.25773 83.4639C2.96625 88.084 1.91388 93.3887 3.91914 98.1162C5.90521 102.797 10.64 106.306 15.7692 108.776C26.1865 113.795 38.4572 115.23 50.4312 116.045C76.929 117.844 103.566 117.066 130.134 116.284C139.967 115.995 149.841 115.704 159.513 114.192C164.885 113.354 170.43 112.023 174.33 108.818C179.28 104.739 180.506 97.8319 177.189 92.7161C171.625 84.1366 156.246 82.006 152.352 72.7989C150.213 67.7299 152.41 62.0853 155.522 57.3855C162.196 47.3012 173.381 38.4547 173.971 26.9298C174.374 19.0143 168.997 11.0865 160.682 7.34026C151.969 3.41541 139.883 3.90948 133.457 10.407C126.834 17.0813 115.2 19.6574 105.226 19.3124Z" fill="#F8765E"/>
<path d="M18.0952 119.113C18.0952 119.113 21.6666 118.444 23.8095 121.399C23.8095 121.399 22.2381 122.848 18.8571 120.841L18.0952 119.113Z" fill="#F8765E"/>
<path d="M17.9621 119.048C17.9621 119.048 15.2145 121.757 16.5626 124.762C16.5626 124.762 18.8034 124.045 19.0476 120.394L17.9621 119.048Z" fill="#F8765E"/>
<path d="M15.2383 114.297C15.2383 114.297 16.7621 111.511 22.8573 115.412C22.8573 115.412 22.0446 117.286 19.3526 117.134C16.6605 116.982 15.9494 115.766 15.2383 114.297Z" fill="#F8765E"/>
<path d="M15.4557 113.336C15.4557 113.336 12.6526 112.986 12.3809 119.971C12.3809 119.971 14.1499 120.374 15.4203 118.164C16.6908 115.955 16.1617 114.716 15.4557 113.336Z" fill="#F8765E"/>
<path d="M13.3335 108.871C13.3335 108.871 14.9796 104.82 20.9525 107.702C20.9525 107.702 19.5886 111.418 13.9449 110.249L13.3335 108.871Z" fill="#F8765E"/>
<path d="M11.4287 100.873C11.4287 100.873 14.8647 96.9636 20.9525 100.588C20.9525 100.588 18.8192 104.259 11.949 102.263L11.4287 100.873Z" fill="#F8765E"/>
<path d="M11.4287 94.2154C11.4287 94.2154 15.2294 90.0877 20.9525 94.2154C20.9525 94.2154 17.3509 97.8385 11.4375 95.2702L11.4287 94.2154Z" fill="#F8765E"/>
<path d="M10.4761 87.6617C10.4761 87.6617 14.4076 83.4342 19.9999 87.4368C19.9999 87.4368 15.5664 91.1696 10.4761 88.6511V87.6617Z" fill="#F8765E"/>
<path d="M10.4761 82.2468C10.4761 82.2468 14.6813 76.5131 19.9999 80.3976C19.9999 80.3976 15.4949 85.326 10.4761 83.3363V82.2468Z" fill="#F8765E"/>
<path d="M11.4287 75.3594C11.4287 75.3594 15.837 69.6597 20.9525 74.0294C20.9525 74.0294 15.7357 78.9691 11.4287 76.4043V75.3594Z" fill="#F8765E"/>
<path d="M12.598 70.0306C12.598 70.0306 17.5685 65.1941 21.9047 67.1198C21.9047 67.1198 16.724 72.2566 12.3809 71.3129L12.598 70.0306Z" fill="#F8765E"/>
<path d="M14.6943 63.6008C14.6943 63.6008 20.464 57.4025 23.8095 59.4697C23.8095 59.4697 19.5636 64.2808 14.2856 64.7619L14.6943 63.6008Z" fill="#F8765E"/>
<path d="M17.8286 56.4698C17.8286 56.4698 22.9359 51.2955 26.6669 52.5882C26.6669 52.5882 22.2977 57.9575 17.1431 58.0951L17.8286 56.4698Z" fill="#F8765E"/>
<path d="M19.3 51.1795C19.3 51.1795 25.0983 45.8379 27.6193 46.7776C27.6193 46.7776 23.4344 52.7127 19.0479 52.3665L19.3 51.1795Z" fill="#F8765E"/>
<path d="M21.9048 45.054C21.9048 45.054 26.8348 38.573 29.5238 39.0754C29.5238 39.0754 26.536 44.853 21.9048 45.7143V45.054Z" fill="#F8765E"/>
<path d="M23.9834 37.6398C23.9834 37.6398 28.1995 33.3224 30.4762 33.3333C30.4762 33.3333 27.1481 39.1002 23.8096 39.0472L23.9834 37.6398Z" fill="#F8765E"/>
<path d="M26.1442 31.542L29.5228 21.9048C29.5228 21.9048 29.6928 30.6178 25.7144 33.3334L26.1442 31.542Z" fill="#F8765E"/>
<path d="M26.704 22.1228C26.704 22.1228 27.5676 13.9948 27.0124 13.3333C27.0124 13.3333 30.7402 20.084 26.6665 25.7142L26.704 22.1228Z" fill="#F8765E"/>
<path d="M12.8268 108.125C12.8268 108.125 8.50971 105.624 5.71436 111.743C5.71436 111.743 9.55642 114.125 13.3334 109.686L12.8268 108.125Z" fill="#F8765E"/>
<path d="M11.886 101.308C11.886 101.308 6.44874 99.2342 3.80957 105.1C3.80957 105.1 8.01129 107.508 12.381 102.789L11.886 101.308Z" fill="#F8765E"/>
<path d="M11.4286 95.1678C11.4286 95.1678 7.62613 91.0401 1.90479 95.1678C1.90479 95.1678 5.50972 98.7909 11.4286 96.2226V95.1678Z" fill="#F8765E"/>
<path d="M10.476 87.6617C10.476 87.6617 6.54624 83.4342 0.952148 87.4368C0.952148 87.4368 5.38748 91.1696 10.476 88.6511V87.6617Z" fill="#F8765E"/>
<path d="M11.4284 82.5931C11.4284 82.5931 8.72753 75.9489 2.85693 78.8112C2.85693 78.8112 6.03023 84.6966 11.1904 83.6947L11.4284 82.5931Z" fill="#F8765E"/>
<path d="M12.381 75.8619C12.381 75.8619 9.71861 69.1334 3.80957 72.2546C3.80957 72.2546 7.42706 78.4202 12.1186 76.9023L12.381 75.8619Z" fill="#F8765E"/>
<path d="M13.3334 70.0767C13.3334 70.0767 12.3235 62.5763 7.61914 61.9048C7.61914 61.9048 8.61725 69.8144 12.7056 71.4286L13.3334 70.0767Z" fill="#F8765E"/>
<path d="M14.2856 64.4518C14.2856 64.4518 13.9359 55.5471 10.4761 55.238C10.4761 55.238 10.5926 61.9969 13.8955 65.7142L14.2856 64.4518Z" fill="#F8765E"/>
<path d="M18.0954 57.1692C18.0954 57.1692 16.9608 49.509 13.3335 48.5715C13.3335 48.5715 13.7834 55.9916 17.7374 59.0477L18.0954 57.1692Z" fill="#F8765E"/>
<path d="M20.9524 51.3317C20.9524 51.3317 20.9086 43.1122 18.4467 41.9048C18.4467 41.9048 16.9174 49.3466 20.2388 52.381L20.9524 51.3317Z" fill="#F8765E"/>
<path d="M21.905 45.1972C21.905 45.1972 21.5797 37.3026 19.1444 36.1904C19.1444 36.1904 18.3112 42.4367 21.5397 45.7142L21.905 45.1972Z" fill="#F8765E"/>
<path d="M24.7619 38.6657C24.7619 38.6657 24.7426 32.0308 22.6047 30.4761C22.6047 30.4761 20.4754 37.744 23.6447 39.9999L24.7619 38.6657Z" fill="#F8765E"/>
<path d="M25.6174 31.4338L23.6224 20.9524C23.6224 20.9524 20.9035 29.5411 25.7141 33.3333L25.6174 31.4338Z" fill="#F8765E"/>
<path d="M25.055 21.4212C25.055 21.4212 20.8678 14.142 20.9534 13.3333C20.9534 13.3333 21.3987 20.9623 26.6664 24.7618L25.055 21.4212Z" fill="#F8765E"/>
<path d="M26.3564 20.0001C26.3564 20.0001 22.6354 9.42908 20.9521 8.57153C20.9521 8.57153 26.2678 11.644 26.6664 19.6981L26.3564 20.0001Z" fill="#F8765E"/>
<path d="M24.0963 39.0476L23.8096 38.9629C27.3666 27.9973 28.2536 21.0059 26.3075 19.2543L26.5154 19.0476C28.5779 20.8958 27.7375 27.8126 24.0963 39.0476Z" fill="#444053"/>
<path d="M14.7119 65.7143L14.2856 65.5658C14.6618 64.5178 15.0701 63.4539 15.4964 62.4041C19.2076 53.2797 22.3653 44.7897 24.3929 38.2719L24.7618 38.0952C22.7325 44.6342 19.6303 53.4405 15.9156 62.5773C15.4964 63.6147 15.0916 64.6716 14.7119 65.7143Z" fill="#444053"/>
<path d="M23.3889 127.619C23.3351 127.557 17.9225 121.266 14.1516 110.521C11.9401 104.233 10.7082 97.6218 10.5017 90.9348C10.2444 82.5753 11.9415 73.2396 14.8529 64.762L15.1692 65.1441C8.6364 84.1732 11.2317 100.481 14.6747 110.303C18.4069 120.948 23.7573 127.173 23.8094 127.234L23.3889 127.619Z" fill="#444053"/>
<path opacity="0.1" d="M92.3809 135.238C135.512 135.238 170.476 132.04 170.476 128.095C170.476 124.15 135.512 120.952 92.3809 120.952C49.2501 120.952 14.2856 124.15 14.2856 128.095C14.2856 132.04 49.2501 135.238 92.3809 135.238Z" fill="#F8765E"/>
<path d="M88.0952 131.429C117.813 131.429 141.905 107.55 141.905 78.0953C141.905 48.6401 117.813 24.762 88.0952 24.762C58.377 24.762 34.2856 48.6401 34.2856 78.0953C34.2856 107.55 58.377 131.429 88.0952 131.429Z" fill="#9BDBE7"/>
<path d="M73.3334 74.2857C76.4893 74.2857 79.0477 71.0878 79.0477 67.1429C79.0477 63.198 76.4893 60 73.3334 60C70.1775 60 67.6191 63.198 67.6191 67.1429C67.6191 71.0878 70.1775 74.2857 73.3334 74.2857Z" fill="#444053"/>
<path d="M102.857 74.2857C106.013 74.2857 108.572 71.0878 108.572 67.1429C108.572 63.198 106.013 60 102.857 60C99.7014 60 97.1431 63.198 97.1431 67.1429C97.1431 71.0878 99.7014 74.2857 102.857 74.2857Z" fill="#444053"/>
<path d="M121.905 90.9996C121.905 101.447 104.434 119.048 86.8072 119.048C69.1802 119.048 52.3809 101.051 52.3809 90.6019C52.3809 80.1525 68.8238 89.7091 86.4595 89.7091C104.095 89.7091 121.905 80.5502 121.905 90.9996Z" fill="#444053"/>
<path d="M58.844 92.3809C58.844 92.3809 90.5754 99.3186 117.235 92.5759C117.235 92.5759 120.498 92.5759 118.269 96.2808C117.689 97.2409 116.844 98.0197 115.831 98.5266C110.695 101.106 91.6654 108.73 61.2451 99.0073C59.3347 98.4157 57.8523 96.9242 57.2961 95.0338C56.9444 93.7612 57.0976 92.557 58.844 92.3809Z" fill="#F6F8FB"/>
<path opacity="0.05" d="M60.9522 38.0952C60.9522 38.0952 44.629 48.2162 44.7625 64.0397C44.896 79.8633 60.9522 38.0952 60.9522 38.0952Z" fill="black"/>
<path d="M160.934 126.665C160.657 125.557 159.985 125.538 159.985 125.538L159.974 125.426L159.726 122.689C159.717 122.703 159.705 122.715 159.692 122.725L159.678 122.377C159.676 122.312 159.67 122.246 159.661 122.181C160.056 121.892 160.349 121.482 160.494 121.013C160.392 120.883 160.468 120.909 160.468 120.909C160.468 120.909 158.786 119.179 158.954 118.278C159.122 117.376 157.687 116.396 157.687 116.396C157.687 116.396 157.167 114.785 157.167 114.296C157.167 113.807 155.202 110.596 155.202 110.596C155.202 110.596 153.47 106.512 151.948 104.758C150.427 103.004 150.562 102.048 150.562 102.048C150.429 101.863 150.316 101.664 150.224 101.455C150.157 101.31 150.099 101.162 150.051 101.01C150.363 100.969 150.571 100.963 150.571 100.963C150.571 100.963 151.817 100.748 151.872 100.491C151.941 100.2 152.088 99.9344 152.296 99.7218C152.534 99.466 151.621 94.5934 152.106 93.3335C152.591 92.0736 151.484 86.2926 151.484 86.2926C151.538 85.9382 151.737 85.6227 152.033 85.4225L152.768 85.1319L153.14 85.0414L153.191 85.0292L153.267 85.0101L153.44 84.9666L153.49 84.9527L153.598 84.9231L153.638 84.9127L153.811 84.8587L153.868 84.8396L153.95 84.8117L154.012 84.7874L154.095 84.7543L154.187 84.7108L154.241 84.6829L154.298 84.6499L154.343 84.6203C154.366 84.6037 154.389 84.5857 154.41 84.5664L154.445 84.5316C154.459 84.5173 154.473 84.5022 154.485 84.4863C154.493 84.4754 154.501 84.4637 154.507 84.4515L154.518 84.4376C154.579 84.3111 154.565 84.1606 154.481 84.0478C154.3 83.787 154.077 83.5573 153.823 83.3674L153.423 82.7496C153.422 82.7456 153.422 82.7414 153.423 82.7374C153.423 82.7061 153.435 82.6713 153.444 82.6365C153.472 82.5063 153.479 82.3721 153.463 82.2397C153.464 82.2322 153.464 82.2246 153.463 82.2171C153.468 82.1755 153.471 82.1337 153.471 82.0918V82.0378C153.471 81.9978 153.471 81.9578 153.463 81.9178C153.454 81.8777 153.463 81.8777 153.463 81.8569C153.463 81.836 153.449 81.7803 153.44 81.742C153.431 81.7037 153.43 81.6968 153.423 81.6741C153.416 81.6515 153.404 81.6028 153.392 81.5662L153.366 81.4949C153.353 81.4618 153.34 81.427 153.326 81.394C153.312 81.3609 153.305 81.3435 153.293 81.3191C153.281 81.2948 153.265 81.2565 153.249 81.2252C153.234 81.1938 153.223 81.1747 153.211 81.1503C153.199 81.126 153.18 81.0912 153.163 81.0616L153.121 80.9885L153.073 80.9085L153.026 80.8354L152.979 80.764L152.932 80.6961C152.917 80.6753 152.901 80.6526 152.886 80.6335L152.841 80.5709L152.799 80.5169L152.756 80.4612L152.719 80.416L152.681 80.369L152.652 80.3359L152.62 80.2994L152.6 80.275L152.577 80.2507L152.565 80.2367L152.553 80.2246V80.2037C152.553 80.1932 152.553 80.181 152.553 80.1654V80.148C152.553 80.1323 152.553 80.1149 152.553 80.094V80.0749C152.553 80.0505 152.553 80.0227 152.543 79.9931V79.9827C152.519 79.802 152.504 79.6202 152.499 79.438C152.504 79.2482 152.546 79.0613 152.624 78.8881C152.672 78.802 152.667 78.6964 152.612 78.6149C152.617 78.6024 152.623 78.5902 152.629 78.5783C152.749 78.3469 152.522 78.1485 152.238 78.0006C152.238 77.576 152.064 76.7146 150.664 76.5597C150.664 76.5597 149.845 76.0046 150.637 75.0074C151.428 74.0103 150.17 71.4592 150.17 71.4592C150.17 71.4592 149.77 70.415 149.985 69.9835C150.2 69.5519 149.735 65.713 149.735 65.713C149.735 65.713 149.735 62.1717 148.956 60.6664C148.176 59.1612 147.644 56.4586 146.745 56.0584C145.846 55.6581 145.133 54.6906 145.133 54.6906L144.714 54.8263C144.641 54.7184 144.568 54.6105 144.499 54.5027C144.533 54.4934 144.566 54.4818 144.598 54.4679C144.791 54.3807 144.95 54.2321 145.05 54.045C145.079 53.9925 145.104 53.9378 145.125 53.8814C145.195 53.6767 145.229 53.4611 145.225 53.2445C145.21 53.0286 145.216 52.8117 145.244 52.5971C145.315 52.2491 145.554 51.9707 145.764 51.68C146.185 51.1017 146.452 50.4258 146.542 49.7154C146.627 49.0013 146.452 48.2804 146.048 47.6863C145.844 47.3974 145.579 47.1416 145.45 46.8162C145.392 46.6665 145.366 46.5064 145.32 46.3533C145.04 45.4832 144.272 44.8629 143.366 44.7732C142.63 44.7053 141.904 44.9872 141.165 44.9785C140.309 44.9681 139.433 44.5748 138.63 44.8741C138.271 45.0299 137.954 45.2684 137.703 45.5702C137.509 45.7859 137.327 46.0131 137.159 46.2506C137.061 46.3898 136.967 46.5308 136.879 46.677V46.6892C136.788 46.8371 136.705 46.9885 136.626 47.1433C136.607 47.1786 136.603 47.2198 136.613 47.2582C136.635 47.3026 136.672 47.3378 136.717 47.3574C136.858 47.4068 136.989 47.4824 137.102 47.5801C137.145 47.63 137.192 47.6765 137.242 47.7194C137.218 47.7489 137.192 47.7768 137.168 47.8081C136.335 48.8746 136.037 50.2669 136.36 51.583C136.683 52.8992 137.591 53.9927 138.823 54.5479L138.911 54.7428C139.078 55.1125 139.218 55.494 139.329 55.8844L138.951 55.9192C138.942 56.1646 138.748 56.3627 138.504 56.3768C138.062 56.4238 136.657 56.9459 136.657 56.9459C136.657 56.9459 134.545 58.0266 133.271 58.3694C131.997 58.7122 131.433 58.4198 131.433 58.4198C131.433 58.4198 131.289 59.3491 129.847 58.8375C128.406 58.3259 128.215 58.8653 128.215 58.8653C128.215 58.8653 124.153 58.754 121.196 59.1507C118.238 59.5475 116.949 59.2691 116.949 59.2691C116.949 59.2691 116.935 59.4257 116.919 59.6798L116.619 59.5057C114.655 58.4512 111.031 56.8154 110.515 58.8096C109.794 61.5818 116.124 62.7599 116.124 62.7599L116.592 62.7094L116.898 62.6764C116.957 63.4455 117.092 64.0685 117.375 64.1364C117.477 64.1625 120.506 64.1555 121.303 64.5297C122.1 64.9038 123.817 64.3557 123.817 64.3557C123.817 64.3557 124.259 64.2582 124.926 64.655C125.593 65.0518 129.218 65.0535 129.218 65.0535C129.218 65.0535 129.476 65.1092 130.403 65.3824C131.33 65.6556 132.966 65.4189 132.966 65.4189L136.79 65.9149C136.79 65.9149 137.062 68.607 136.762 69.585C136.463 70.563 136.704 75.3746 136.704 75.3746C136.704 75.3746 137.57 81.2304 137.333 81.9247C137.145 82.4625 138.805 81.8638 139.564 81.5662C139.604 81.7246 139.654 81.9143 139.712 82.1283C139.712 82.1475 139.738 82.1597 139.767 82.1666L139.829 82.2084C139.857 82.3232 139.885 82.4346 139.911 82.539L139.705 82.5947L139.977 82.7774C140.007 82.8879 140.043 82.9965 140.086 83.1028C140.311 83.6249 138.667 84.5803 138.667 84.5803C138.667 84.5803 134.125 87.074 132.762 88.2347C132.762 88.2347 131.696 88.5827 131.613 88.9151C131.53 89.2475 130.573 89.1326 130.573 89.1326C130.573 89.1326 130.438 89.4929 130.329 89.8548C130.22 90.2168 129.636 90.7754 129.636 90.7754C129.636 90.7754 128.286 90.9877 128.095 91.7081C127.96 92.2655 127.856 92.8302 127.785 93.3996L126.269 96.17C126.269 96.17 122.135 99.2641 121.702 100.447L118.775 102.417C118.775 102.417 118.293 103.496 117.439 103.535C116.585 103.573 115.11 105.101 115.11 105.101C115.11 105.101 115.543 105.275 116.179 105.571C116.141 105.63 116.105 105.689 116.074 105.745C115.956 105.968 115.869 106.206 115.815 106.453C115.815 106.453 113.909 107.615 112.492 107.128C111.692 106.853 110.113 106.378 108.971 106.321C108.093 106.277 107.469 106.481 107.651 107.213C107.961 108.478 111.089 111.663 112.631 113.174C112.875 113.412 113.134 113.636 113.405 113.843C113.764 114.121 114.146 114.366 114.547 114.578C114.782 114.702 115.022 114.813 115.268 114.912C115.532 115.019 115.804 115.107 116.081 115.175C116.625 115.302 117.12 115.297 117.399 115.001C118.293 114.082 117.919 113.435 117.919 113.435L118.019 113.36L120.483 111.508L121.041 111.03L121.196 110.897C121.112 111.577 120.821 112.214 120.362 112.721C120.976 112.362 121.622 112.06 122.291 111.82C123.157 111.548 123.691 109.905 123.691 109.905C123.691 109.905 124.164 109.422 125.004 108.555C125.845 107.688 126 105.47 126 105.47C126 105.47 130.313 102.713 132.065 99.5338C132.065 99.5338 132.382 99.0988 132.931 98.4601C133.481 97.8215 133.5 96.7617 133.5 96.7617C133.5 96.7617 133.581 96.4537 134.318 95.6636C135.054 94.8736 134.959 94.3793 134.959 94.3793C134.959 94.3793 135.305 93.8938 136.594 93.9913C137.884 94.0887 140.912 92.5539 140.912 92.5539C140.912 92.5539 140.912 92.6948 140.94 92.9385C140.677 93.5475 140.503 93.9704 140.503 93.9704C140.503 93.9704 143.144 104.556 142.085 106.22C141.536 107.09 143.051 106.428 144.638 105.598C144.719 105.698 144.811 105.802 144.912 105.913C145.287 106.321 145.688 106.704 146.111 107.062L146.163 107.107C146.163 107.107 149.379 112.091 149.888 112.676C150.397 113.261 150.061 114.98 150.061 114.98C150.061 114.98 150.959 120.989 152.186 122.042C152.441 122.236 152.727 122.387 153.031 122.489C153.01 123.237 153.684 123.851 153.684 123.851C153.684 123.851 153.671 125.842 152.634 126.684C152.049 127.163 150.945 128.134 150.364 128.971C149.919 129.617 149.781 130.189 150.422 130.391C151.529 130.751 155.417 129.881 157.29 129.423C158.213 129.204 159.082 128.803 159.849 128.244C160.498 127.765 161.062 127.186 160.934 126.665ZM118.279 106.75C118.387 106.822 118.493 106.895 118.598 106.97L118.425 107.109L118.354 107.165C118.354 107.128 118.344 107.088 118.337 107.048C118.318 106.952 118.3 106.853 118.279 106.75Z" fill="url(#paint0_linear)"/>
<path d="M118.095 63.5563L116.235 63.7599L115.796 63.8095C115.796 63.8095 109.853 62.6613 110.53 59.9678C111.015 58.0188 114.419 59.6136 116.266 60.6523C116.973 61.0476 117.45 61.3591 117.45 61.3591L118.095 63.5563Z" fill="#D17483"/>
<path d="M121.905 108.966L119.911 110.643L119.397 111.075L118.201 111.429L115.238 108.871L117.439 107.154L117.504 107.102L119.285 105.714L121.905 108.966Z" fill="#DCE6F2"/>
<path d="M157.098 120.954L154.286 121.081L155.057 124.41L156.111 124.762L159.048 124.524L158.968 122.613C158.949 122.153 158.74 121.718 158.389 121.407C158.038 121.096 157.573 120.933 157.098 120.954Z" fill="#DCE6F2"/>
<path opacity="0.1" d="M118.095 106.667C117.186 106.027 116.231 105.46 115.238 104.97C115.492 104.4 115.982 103.979 116.57 103.824C117.445 103.634 117.891 105.383 118.095 106.667Z" fill="black"/>
<path opacity="0.1" d="M120.7 111.429C120.832 110.071 119.526 108.887 118.095 108.009L120.021 106.667L122.857 109.808L120.7 111.429Z" fill="black"/>
<path d="M160 120.864C159.115 123.793 153.027 122.913 151.818 121.871C150.609 120.829 149.722 114.879 149.722 114.879C149.722 114.879 150.054 113.168 149.548 112.597C149.043 112.025 145.876 107.091 145.876 107.091C145.876 107.091 145.842 107.062 145.824 107.048C145.407 106.693 145.012 106.313 144.641 105.91C143.666 104.839 143.645 104.321 143.645 104.321C143.645 104.321 143.299 102.293 142.105 99.5382C141.239 97.5062 140.881 94.7448 140.758 93.4335C140.715 92.9663 140.699 92.6833 140.699 92.6833C140.699 92.6833 137.716 94.2012 136.441 94.1056C135.167 94.0101 134.827 94.4912 134.827 94.4912C134.827 94.4912 134.922 94.9792 134.197 95.7625C133.471 96.5458 133.389 96.8497 133.389 96.8497C133.389 96.8497 133.374 97.9004 132.828 98.5309C132.283 99.1613 131.971 99.5938 131.971 99.5938C130.239 102.742 125.988 105.471 125.988 105.471C125.988 105.471 125.83 107.67 124.999 108.528C124.167 109.385 123.703 109.865 123.703 109.865C123.703 109.865 123.17 111.496 122.318 111.765C121.656 112.003 121.018 112.301 120.412 112.658C123.92 108.435 115.238 105.108 115.238 105.108C115.238 105.108 116.69 103.593 117.533 103.555C118.377 103.517 118.852 102.449 118.852 102.449L121.737 100.495C122.163 99.3228 126.241 96.2609 126.241 96.2609L127.736 93.5186C127.806 92.9597 127.908 92.4054 128.042 91.8583C128.229 91.1462 129.561 90.9344 129.561 90.9344C129.561 90.9344 130.131 90.3786 130.237 90.0226C130.343 89.6665 130.478 89.3088 130.478 89.3088C130.478 89.3088 131.42 89.4269 131.501 89.0934C131.583 88.76 132.634 88.4196 132.634 88.4196C133.98 87.2612 138.458 84.7932 138.458 84.7932C138.458 84.7932 140.079 83.845 139.857 83.3292C139.814 83.2244 139.778 83.1171 139.748 83.0079C139.748 82.9975 139.748 82.9888 139.748 82.9801C139.728 82.9141 139.709 82.8446 139.691 82.7717C139.486 81.978 139.261 80.7605 139.261 80.7605C139.261 80.7605 147.141 76.1669 149.727 77.3322C150.482 77.6709 150.922 78.5253 151.152 79.616C151.521 81.3614 151.353 83.7095 151.071 85.5123C150.962 86.2543 150.804 86.9882 150.598 87.7092C149.982 89.6978 149.862 92.6381 149.862 92.6381C149.862 92.6381 149.781 98.2426 149.581 99.6215C149.5 100.263 149.602 100.915 149.876 101.501C149.967 101.708 150.079 101.904 150.21 102.088C150.21 102.088 150.068 103.032 151.575 104.771C153.082 106.509 154.783 110.549 154.783 110.549C154.783 110.549 156.728 113.726 156.721 114.214C156.714 114.702 157.227 116.298 157.227 116.298C157.227 116.298 158.642 117.263 158.476 118.158C158.31 119.052 159.969 120.763 159.969 120.763C159.969 120.763 159.9 120.733 160 120.864Z" fill="#BDD2E8"/>
<path opacity="0.1" d="M139.048 84.762C139.048 84.762 140.802 85.5401 140.945 86.4685C141.089 87.397 139.048 84.762 139.048 84.762Z" fill="black"/>
<path opacity="0.1" d="M133.108 90.414L134.286 91.4287L133.675 89.5854L132.381 89.5239L133.108 90.414Z" fill="black"/>
<path opacity="0.1" d="M131.429 92.3809C131.55 92.4648 132.924 95.206 133.292 95.2377C133.661 95.2695 131.429 92.3809 131.429 92.3809Z" fill="black"/>
<path opacity="0.1" d="M151.145 85.9756C151.04 86.7283 150.888 87.4728 150.69 88.2042C150.096 90.2213 149.981 93.2038 149.981 93.2038C149.981 93.2038 149.903 98.8888 149.711 100.288C149.632 100.939 149.731 101.6 149.994 102.194C149.494 102.245 148.566 102.398 147.932 102.83C147.04 103.439 147.557 105.109 147.557 105.109C147.557 105.109 146.272 105.927 144.955 106.667C144.016 105.58 143.996 105.055 143.996 105.055C143.996 105.055 143.663 102.997 142.514 100.203C141.68 98.1419 141.335 95.3408 141.217 94.0107C141.717 92.7775 142.542 90.8784 143.098 90.0592C143.686 89.1907 142.984 86.5623 142.494 85.0243L142.359 84.9274L140.747 83.7841L140.257 83.4318L140 83.2556L140.195 83.1992L151.23 80C151.578 81.7705 151.416 84.1523 151.145 85.9756Z" fill="black"/>
<path d="M139.048 82.5311L139.806 83.0498L141.44 84.1717L141.579 84.2668C142.077 85.7761 142.789 88.3554 142.19 89.2077C141.325 90.4438 139.821 94.1936 139.821 94.1936C139.821 94.1936 142.359 104.625 141.344 106.266C140.329 107.906 146.719 103.982 146.719 103.982C146.719 103.982 146.197 102.343 147.102 101.745C148.007 101.147 149.53 101.093 149.53 101.093C149.53 101.093 150.73 100.882 150.784 100.628C150.849 100.342 150.991 100.08 151.193 99.8709C151.42 99.6185 150.542 94.8159 151.009 93.5746C151.476 92.3334 150.408 86.6353 150.408 86.6353C150.459 86.2837 150.651 85.97 150.939 85.7709C151.073 85.6767 151.22 85.6044 151.376 85.5565L151.472 85.5288C151.53 85.5116 151.591 85.496 151.642 85.4839C152.369 85.2989 153.164 85.1381 153.334 84.7924L153.164 84.5296L152.273 83.1224C152.254 82.9849 152.263 82.845 152.298 82.7109C152.298 82.6833 152.308 82.6539 152.312 82.6262C152.442 81.729 151.43 80.6398 151.43 80.6398C151.385 80.384 151.359 80.1251 151.352 79.8653V79.8567C151.331 79.5822 151.368 79.3063 151.46 79.0476L139.048 82.5311Z" fill="#653C5B"/>
<path opacity="0.1" d="M141.906 83.8109C141.812 83.7884 147.703 84.0271 149.524 86.6667C149.524 86.6728 149.589 85.712 141.906 83.8109Z" fill="black"/>
<path opacity="0.1" d="M145.714 88.748C145.714 88.748 146.99 96.8465 146.707 98.2577C146.425 99.6689 148.194 98.7591 148.194 98.7591C148.194 98.7591 149.999 87.0042 145.714 88.748Z" fill="black"/>
<path opacity="0.1" d="M153.333 84.6827C153.321 84.6536 153.307 84.6253 153.291 84.5981C152.899 83.9319 152.089 83.7933 152.226 82.9435C152.226 82.9093 152.239 82.8715 152.247 82.8337C152.277 82.7003 152.284 82.5626 152.267 82.4268C152.173 81.5699 151.337 80.6769 151.337 80.6769C151.272 80.3057 151.247 79.9284 151.261 79.5517C151.266 79.3572 151.308 79.1657 151.387 78.9882C151.436 78.9004 151.431 78.792 151.374 78.7091C151.158 78.3365 150.198 78.0952 150.198 78.0952L143.695 79.1412C142.927 79.4077 142.194 79.6813 141.525 79.9424C139.518 80.7201 138.095 81.3664 138.095 81.3664L138.143 81.5591C138.186 81.7391 138.257 82.0182 138.344 82.3404C138.372 82.452 138.91 82.3206 138.943 82.4394L139.142 82.8823L140.578 83.2856C140.578 83.2856 140.695 83.5827 140.856 84.0507C140.856 84.0777 140.876 84.1066 140.884 84.1354L141.002 84.1516C143.715 84.49 147.473 85.0283 150.814 85.7143L153.333 84.6827Z" fill="black"/>
<path d="M151.336 85.6858L151.235 85.7143C147.746 84.9814 143.713 84.4103 140.877 84.0617C140.7 83.5511 140.573 83.2238 140.573 83.2238L138.439 82.6296L138.38 82.4233C138.278 82.0515 138.193 81.7117 138.143 81.516L138.095 81.3257C138.095 81.3257 139.511 80.6871 141.516 79.9204C142.184 79.6624 142.916 79.3867 143.683 79.127L150.167 78.0952C150.404 78.1564 150.635 78.238 150.858 78.3389C151.189 78.4937 151.49 78.7143 151.353 78.9776C151.086 79.497 151.306 80.6533 151.306 80.6533C151.306 80.6533 152.435 81.8487 152.213 82.788C151.992 83.7272 152.849 83.8464 153.256 84.5331C153.663 85.2197 152.382 85.4118 151.336 85.6858Z" fill="#653C5B"/>
<path d="M146.667 57.831C146.667 57.831 138.449 58.4756 139.392 57.7508C139.863 57.3884 139.539 56.3096 139.095 55.3226C138.8 54.6795 138.466 54.0543 138.095 53.4504C138.095 53.4504 144.341 51.6868 143.672 52.6889C143.473 52.9845 143.653 53.554 144.013 54.2103C144.849 55.7768 146.667 57.831 146.667 57.831Z" fill="#D17483"/>
<path opacity="0.1" d="M143.809 54.5165C143.644 54.7478 143.217 54.4718 143.01 54.6623C142.289 55.3271 141.605 56.2076 140.62 56.1901C140.084 56.1805 139.554 56.0485 139.061 55.8014C138.776 55.0529 138.454 54.3253 138.095 53.6223C138.095 53.6223 144.131 51.5736 143.484 52.7398C143.293 53.0897 143.466 53.7526 143.809 54.5165Z" fill="black"/>
<path d="M144.761 51.0141C144.736 52.7473 143.67 54.2949 142.059 54.9351C140.448 55.5752 138.61 55.182 137.402 53.9386C136.194 52.6952 135.854 50.8467 136.541 49.255C137.228 47.6633 138.805 46.6419 140.539 46.6672C141.676 46.6797 142.762 47.1457 143.555 47.9618C144.347 48.7778 144.782 49.8765 144.761 51.0141Z" fill="#D17483"/>
<path opacity="0.1" d="M151.412 78.9861C150.737 78.994 150.064 78.9288 149.406 78.792C148.355 78.5696 147.464 79.4355 147.464 79.4355C147.464 79.4355 145.42 80.1699 144.492 80.0195C143.563 79.8692 139.492 81.8437 139.492 81.8437L139.322 81.9047C139.223 81.5775 139.142 81.2784 139.094 81.1062L139.048 80.9387C139.048 80.9387 140.41 80.3765 142.34 79.7017C142.982 79.4747 143.688 79.232 144.425 79.0034L150.666 78.0952C150.894 78.1491 151.116 78.2209 151.33 78.3097C151.422 78.5246 151.451 78.758 151.412 78.9861Z" fill="black"/>
<path opacity="0.1" d="M118.095 63.5606L116.225 63.8095C116.17 62.5402 116.181 61.2677 116.256 60C116.967 60.4833 117.446 60.864 117.446 60.864L118.095 63.5606Z" fill="black"/>
<path d="M144.355 55.238C144.355 55.238 143.111 55.6348 142.411 55.9116C141.711 56.1884 138.2 56.4987 138.2 56.4987C138.192 56.7452 138 56.9453 137.755 56.9607C137.316 57.0047 135.917 57.5302 135.917 57.5302C135.917 57.5302 133.817 58.6163 132.543 58.9619C131.269 59.3075 130.711 59.013 130.711 59.013C130.711 59.013 130.57 59.9457 129.137 59.4309C127.704 58.916 127.511 59.4591 127.511 59.4591C127.511 59.4591 123.464 59.348 120.512 59.7465C117.561 60.145 116.282 59.8664 116.282 59.8664C116.282 59.8664 115.899 64.5423 116.702 64.7574C116.803 64.7856 119.821 64.7768 120.614 65.1524C121.407 65.5279 123.118 64.9761 123.118 64.9761C123.118 64.9761 123.559 64.8791 124.224 65.2793C124.888 65.6796 128.498 65.6796 128.498 65.6796C128.498 65.6796 128.755 65.7342 129.679 66.0093C130.603 66.2843 132.23 66.0463 132.23 66.0463L136.039 66.5488C136.039 66.5488 136.31 69.2553 136.013 70.2374C135.715 71.2195 135.953 76.0559 135.953 76.0559C135.953 76.0559 136.828 81.9414 136.581 82.6396C136.335 83.3378 139.166 82.1318 139.166 82.1318C139.166 82.1318 143.351 79.9066 144.301 80.0759C145.251 80.2452 147.354 79.42 147.354 79.42C147.354 79.42 148.271 78.445 149.351 78.6953C150.026 78.8476 150.718 78.9187 151.41 78.9069C151.41 78.9069 151.714 77.4311 149.861 77.2213C149.861 77.2213 149.044 76.6642 149.832 75.6627C150.619 74.6612 149.372 72.1063 149.372 72.1063C149.372 72.1063 148.974 71.0608 149.186 70.6218C149.398 70.1827 148.939 66.3319 148.939 66.3319C148.939 66.3319 148.939 62.7721 148.163 61.2522C147.386 59.7324 146.856 57.0206 145.96 56.6221C145.064 56.2237 144.355 55.238 144.355 55.238Z" fill="#DCE6F2"/>
<path opacity="0.1" d="M140 67.6191C140 67.6191 145.127 70.0481 146.505 72.006C147.883 73.9639 140 67.6191 140 67.6191Z" fill="black"/>
<path opacity="0.1" d="M141.905 71.4285C141.905 71.4285 148.017 75.1417 147.599 76.0836C147.18 77.0254 141.905 71.4285 141.905 71.4285Z" fill="black"/>
<path opacity="0.1" d="M142.857 74.2856C142.857 74.2856 145.244 75.4302 145.675 76.0804C146.106 76.7306 142.857 74.2856 142.857 74.2856Z" fill="black"/>
<path opacity="0.1" d="M132.381 60C132.381 60 136.873 62.6002 136.101 63.6554C135.329 64.7107 132.381 60 132.381 60Z" fill="black"/>
<path opacity="0.1" d="M129.685 61.9048C129.685 61.9048 130.456 64.3086 130.476 64.7216C130.496 65.1346 129.051 62.2457 129.685 61.9048Z" fill="black"/>
<path opacity="0.1" d="M126.667 61.9048C126.667 62.0399 129.438 64.146 128.295 64.7001C127.151 65.2541 126.667 61.9048 126.667 61.9048Z" fill="black"/>
<path opacity="0.1" d="M128.571 94.2856C128.677 94.4063 129.05 95.5859 130.198 96.1134C131.346 96.6409 128.571 94.2856 128.571 94.2856Z" fill="black"/>
<path opacity="0.1" d="M120.977 101.905C120.962 102.743 120.785 105.412 121.642 105.7C122.5 105.988 120.977 101.905 120.977 101.905Z" fill="black"/>
<path opacity="0.1" d="M122.111 103.81C122.111 103.81 124.447 106.952 123.64 107.488C122.833 108.024 121.905 106.741 121.905 106.741L122.111 103.81Z" fill="black"/>
<path opacity="0.1" d="M150.476 110.396C151.319 110.519 152.178 110.572 153.037 110.552C154.427 110.516 150.476 110.396 150.476 110.396Z" fill="black"/>
<path opacity="0.1" d="M150.476 109.533C150.476 109.533 152.505 109.894 153.233 109.521C153.961 109.148 150.476 109.533 150.476 109.533Z" fill="black"/>
<path opacity="0.1" d="M149.524 106.645C149.524 106.645 151.86 106.852 152.334 105.981C152.809 105.111 149.524 106.645 149.524 106.645Z" fill="black"/>
<path opacity="0.1" d="M148.571 105.803C148.571 105.803 150.988 106.112 151.393 105.682C151.799 105.252 148.571 105.803 148.571 105.803Z" fill="black"/>
<path opacity="0.1" d="M146.667 101.905C146.667 101.905 149.222 103.047 149.505 103.699C149.789 104.351 146.667 101.905 146.667 101.905Z" fill="black"/>
<path opacity="0.1" d="M144.762 50.9893C144.745 52.2801 144.142 53.4932 143.123 54.2858C143.111 54.2638 143.101 54.2418 143.09 54.2198C142.904 53.8224 142.857 53.3741 142.684 52.9784C142.634 52.8275 142.526 52.7027 142.383 52.6316C142.109 52.5251 141.837 52.7754 141.656 53.0003C141.475 53.2253 141.206 53.479 140.93 53.3792C140.777 53.306 140.656 53.1789 140.591 53.0223C140.309 52.5149 140.016 51.9787 139.997 51.4003C140.018 51.1155 140.021 50.8297 140.008 50.5445C139.935 50.0472 139.561 49.6294 139.131 49.3486C138.682 49.0904 138.216 48.8643 137.735 48.6721C137.518 48.5804 137.317 48.4523 137.143 48.2932C138.274 46.8572 140.194 46.3015 141.917 46.9116C143.64 47.5218 144.783 49.1621 144.757 50.9893H144.762Z" fill="black"/>
<path d="M136.209 48.0374C136.096 48.2803 136.525 48.258 136.711 48.4633C136.913 48.6593 137.158 48.8132 137.429 48.9148C137.953 49.1103 138.462 49.3389 138.952 49.599C139.423 49.8847 139.829 50.3055 139.909 50.8101C139.923 51.0979 139.92 51.3863 139.899 51.6739C139.92 52.2605 140.237 52.7994 140.545 53.3159C140.618 53.4732 140.749 53.6012 140.915 53.6768C141.217 53.776 141.507 53.5212 141.707 53.2937C141.906 53.0662 142.203 52.813 142.502 52.9191C142.657 52.9915 142.774 53.1175 142.829 53.2697C143.014 53.6751 143.069 54.125 143.272 54.5269C143.475 54.9289 143.911 55.2915 144.398 55.2317C144.694 55.1827 144.948 55.0096 145.087 54.763C145.219 54.5223 145.282 54.2545 145.271 53.9847C145.255 53.7742 145.262 53.5628 145.292 53.3535C145.367 53.0115 145.617 52.7412 145.831 52.459C146.271 51.8955 146.551 51.2385 146.645 50.5484C146.733 49.8529 146.549 49.1512 146.126 48.571C145.912 48.2888 145.631 48.0391 145.497 47.7158C145.436 47.5704 145.408 47.4147 145.36 47.2642C145.067 46.4178 144.26 45.8131 143.305 45.7248C142.534 45.6581 141.769 45.9335 140.994 45.9249C140.095 45.9164 139.166 45.5315 138.328 45.824C137.95 45.9775 137.617 46.212 137.355 46.5082C136.902 46.9712 136.518 47.4891 136.215 48.0476" fill="#653C5B"/>
<path d="M117.634 113.322L117.535 113.398C117.535 113.398 117.901 114.056 117.039 114.989C116.635 115.422 115.78 115.224 114.986 114.894C114.038 114.49 113.175 113.894 112.447 113.141C110.962 111.619 107.948 108.409 107.648 107.129C107.479 106.39 108.075 106.185 108.921 106.229C110.021 106.287 111.541 106.76 112.306 107.044C113.671 107.534 115.507 106.363 115.507 106.363C115.56 106.117 115.644 105.88 115.756 105.656C115.95 105.217 116.323 104.892 116.772 104.772C117.432 104.632 117.772 105.982 117.93 106.963C117.93 107.002 117.942 107.043 117.948 107.081C118.023 107.571 118.052 107.944 118.052 107.944C119.225 107.859 119.724 109.638 119.662 110.549C119.599 111.46 120 111.467 120 111.467L117.634 113.322Z" fill="#FFD6DB"/>
<path d="M117.036 113.488C117.036 113.488 117.419 114.113 116.518 115.001C116.095 115.413 115.201 115.226 114.371 114.91C113.378 114.527 112.476 113.96 111.715 113.244C110.161 111.797 107.01 108.745 106.697 107.528C106.52 106.825 107.143 106.63 108.028 106.672C108.104 107.382 108.295 108.353 108.762 108.87C109.559 109.747 111.834 112.703 114.679 112.736C115.552 112.725 116.409 112.959 117.143 113.409L117.036 113.488Z" fill="#C8A9B4"/>
<path opacity="0.1" d="M112.381 110.476C112.381 110.476 114.968 107.615 117.143 108.906C117.143 108.906 115.227 108.686 112.381 110.476Z" fill="black"/>
<path opacity="0.1" d="M115.238 110.505C115.238 110.505 118.359 111.421 118.98 111.428C119.601 111.436 115.771 110.28 115.238 110.505Z" fill="black"/>
<path opacity="0.1" d="M152.381 116.19C152.381 116.19 156.066 116.276 156.184 117.213C156.302 118.15 154.808 118.095 154.808 118.095L152.381 116.19Z" fill="black"/>
<path d="M159.933 124.529L159.944 124.64C159.944 124.64 160.645 124.66 160.933 125.755C161.069 126.275 160.479 126.842 159.812 127.316C159.012 127.868 158.105 128.265 157.142 128.483C155.189 128.934 151.133 129.794 149.979 129.441C149.31 129.234 149.455 128.674 149.92 128.036C150.525 127.207 151.676 126.247 152.288 125.781C153.367 124.948 153.387 122.98 153.387 122.98C153.387 122.98 152.429 122.154 152.778 121.258C153.128 120.361 155.92 121.726 155.92 121.726C156.452 120.775 158.102 121.206 158.786 121.677C159.469 122.149 159.678 121.84 159.678 121.84L159.933 124.529Z" fill="#FFD6DB"/>
<path d="M159.944 125.812C159.944 125.812 160.645 125.832 160.933 126.877C161.069 127.374 160.479 127.916 159.812 128.368C159.012 128.895 158.105 129.274 157.142 129.482C155.189 129.913 151.133 130.735 149.979 130.397C149.31 130.2 149.455 129.665 149.92 129.055C150.543 129.328 151.437 129.643 152.093 129.552C153.205 129.386 156.756 129.148 158.172 127.149C158.59 126.524 159.202 126.025 159.933 125.714L159.944 125.812Z" fill="#C8A9B4"/>
<path opacity="0.1" d="M154.309 127.619C154.309 127.619 153.933 124.947 156.19 123.81C156.19 123.81 154.841 125.088 154.309 127.619Z" fill="black"/>
<path opacity="0.1" d="M155.238 124.762C155.238 124.762 156.901 123.281 157.126 122.907C157.351 122.534 155.289 124.359 155.238 124.762Z" fill="black"/>
<path opacity="0.1" d="M151.429 80.9524C151.429 80.9524 149.383 82.3189 147.895 81.7782C146.407 81.2374 151.429 80.9524 151.429 80.9524Z" fill="black"/>
<path opacity="0.1" d="M152.381 82.8572C152.381 82.8572 151.953 84.0569 149.278 83.7633C146.603 83.4697 152.381 82.8572 152.381 82.8572Z" fill="black"/>
<g opacity="0.1">
<path opacity="0.1" d="M145.347 52.3757L145.446 52.2364C145.518 52.131 145.587 52.0221 145.651 51.9114C145.54 52.0594 145.438 52.2145 145.347 52.3757Z" fill="black"/>
<path opacity="0.1" d="M144.36 54.697C143.896 54.7595 143.478 54.3792 143.284 53.9613C143.09 53.5435 143.04 53.0685 142.861 52.6488C142.808 52.4899 142.696 52.3584 142.548 52.2828C142.263 52.172 141.979 52.4363 141.788 52.6738C141.598 52.9113 141.321 53.1774 141.032 53.0738C140.873 52.9957 140.747 52.8618 140.679 52.697C140.383 52.1613 140.079 51.5953 140.06 50.9845C140.077 50.6836 140.077 50.3819 140.06 50.081C139.986 49.5542 139.596 49.1149 139.146 48.8185C138.696 48.522 138.18 48.3363 137.691 48.1042C137.433 47.998 137.199 47.8373 137.007 47.6328C136.831 47.4185 136.418 47.4417 136.527 47.1881C136.608 47.0238 136.704 46.8649 136.792 46.7078C136.589 46.9977 136.407 47.302 136.247 47.6185C136.139 47.872 136.548 47.8488 136.726 48.0631C136.92 48.2677 137.153 48.4284 137.413 48.5345C137.913 48.7386 138.399 48.9773 138.868 49.2488C139.317 49.547 139.705 49.9863 139.781 50.5131C139.795 50.8136 139.792 51.1147 139.772 51.4149C139.792 52.0274 140.095 52.5899 140.39 53.1292C140.459 53.2934 140.584 53.427 140.742 53.506C141.032 53.6095 141.308 53.3435 141.499 53.106C141.689 52.8685 141.973 52.6042 142.259 52.7149C142.407 52.7905 142.519 52.9221 142.571 53.081C142.748 53.5042 142.801 53.9738 142.995 54.3935C143.189 54.8131 143.605 55.1917 144.07 55.1292C144.353 55.078 144.596 54.8973 144.728 54.6399C144.756 54.5863 144.781 54.5308 144.802 54.4738C144.679 54.5902 144.525 54.6678 144.36 54.697Z" fill="black"/>
</g>
<path opacity="0.1" d="M139.048 57.1428C139.048 57.1428 141.058 57.0557 142.396 57.0954C143.734 57.1352 145.715 56.1904 145.715 56.1904" fill="black"/>
<path d="M55.2247 70.7237C55.0213 69.7059 53.1087 69.8697 51.7185 70.132C51.601 70.1544 51.487 70.1768 51.3783 70.201L51.4783 69.7921L50.8244 69.5264C49.5394 69.0046 48.1949 68.6379 46.8202 68.4344C44.8076 68.1377 41.617 67.5011 39.6552 66.2676C37.8723 65.1463 37.157 64.8219 36.6591 64.52C36.6591 64.4303 36.6591 64.3475 36.6591 64.2561C36.6591 63.7558 36.6293 63.2969 36.5908 62.888C36.5542 62.5121 36.4802 62.1405 36.3699 61.7788C35.9526 60.4176 35.013 59.9812 34.0715 59.1289C33.455 58.5574 32.7561 58.0784 31.9976 57.7074C32.0747 57.2568 32.209 56.8175 32.3973 56.3997C32.4236 56.3359 32.4516 56.2738 32.4779 56.21C32.4779 56.2014 32.4779 56.1944 32.4902 56.1858C32.5183 56.122 32.5463 56.0582 32.5744 55.9978C33.9601 55.2563 34.8251 53.8305 34.8306 52.2783C34.8305 51.1549 34.3734 50.0783 33.5614 49.2887C33.4936 49.2231 33.4235 49.1593 33.351 49.0972L33.5544 49.0316C33.9874 48.8798 34.459 48.4623 34.3327 48.1069H34.2696C34.2665 48.0817 34.2606 48.0568 34.2521 48.0327C34.0598 48.0263 33.875 47.9578 33.7262 47.8378C33.5246 47.5928 33.4632 47.2254 33.0933 46.8821C33.0102 46.7945 32.9179 46.7159 32.8181 46.6474C32.5484 46.4686 32.2449 46.3448 31.9257 46.2834C31.952 46.3007 31.9801 46.3145 32.0064 46.3335L32.0607 46.3749C31.3261 46.2024 30.4969 46.2282 29.7992 45.9332C29.6313 45.8598 29.4701 45.7727 29.3171 45.6727L29.4082 45.6969C29.0313 45.483 28.693 45.2087 28.302 45.0068C28.0853 44.8994 27.8564 44.8177 27.62 44.7636L27.7954 44.8654C26.7584 44.6291 25.6687 44.8013 24.759 45.345C23.6808 45.9695 22.9164 46.9718 22.3484 48.0258C21.3936 49.7953 20.9281 51.7805 20.9985 53.7827C21.0336 54.7488 21.1913 55.7511 20.8232 56.6585C20.5181 57.4176 19.8783 58.0214 19.4961 58.7494C18.0217 61.5649 20.7373 65.2222 19.0736 67.9445C18.4723 68.9295 17.3958 69.5816 16.663 70.4874C15.9302 71.3931 15.6655 72.8577 16.642 73.5374C17.3432 74.0274 18.3408 73.8687 19.177 74.1171C19.0343 74.9655 18.6153 75.7453 17.9831 76.3391L17.8464 76.3132C17.8148 76.3425 17.785 76.3736 17.7517 76.4012L17.8815 76.434L17.8324 76.4805C18.7471 76.7412 19.6874 76.9054 20.6374 76.9705C21.4806 77.0291 22.373 76.9981 23.1058 76.6048C23.477 76.3977 23.8043 76.1225 24.07 75.7939C24.07 75.9664 24.0822 76.1183 24.0928 76.2752C24.1187 76.9101 24.2104 77.5408 24.3663 78.1574C25.1779 81.0539 22.6131 83.3242 22.6131 83.3242C21.9849 84.583 21.6894 85.9774 21.7541 87.3783C21.8016 88.2266 21.9789 89.0629 22.28 89.8591C22.3046 89.9229 22.3274 89.985 22.3519 90.0454C22.3993 90.1662 22.4501 90.2835 22.4992 90.3905C22.5746 90.563 22.6499 90.7131 22.7253 90.8545C22.7744 90.9511 22.8235 91.0408 22.8708 91.1237C23.0353 91.4218 23.224 91.7062 23.4353 91.9742C23.6948 91.8005 23.9543 91.6366 24.2137 91.4825C24.2137 91.5808 24.2137 91.6843 24.2137 91.7913C24.2278 92.8592 24.1191 94.2065 24.1191 94.2065C24.1191 94.2065 23.3056 97.0651 23.225 97.888C23.1443 98.7109 22.8305 103.8 22.8305 103.8C22.8305 103.8 21.7331 107.09 19.703 109.086C17.6728 111.082 18.1251 116.799 18.1251 116.799C18.1251 116.799 16.7034 121.614 17.1907 121.849C17.2695 121.873 17.3533 121.878 17.4344 121.862V122.057C16.5578 122.656 15.8917 123.141 15.8917 123.141C15.8917 123.141 15.648 127.095 15.3219 127.859C14.9958 128.623 15.7286 129.524 15.7286 129.524C15.7286 129.524 22.9602 129.327 23.5896 129.288C23.8789 129.27 24.8431 128.961 25.8406 128.525C26.6979 128.337 29.2855 127.345 30.2234 126.422C30.3624 126.3 30.4746 126.15 30.553 125.984C31.0001 124.887 26.9574 125.71 25.8599 125.71C24.7625 125.71 24.6415 124.887 24.1331 124.26C23.6247 123.634 23.9911 122.597 23.9911 122.597L23.8859 119.665L24.368 119.473C24.368 119.473 25.0184 116.966 26.0738 115.754C27.1292 114.541 28.9998 109.919 29.0401 109.685C29.0804 109.45 29.1207 109.019 29.8921 107.959C30.6635 106.9 31.4208 104.637 31.4208 104.637C31.4208 104.637 33.1739 99.2336 34.5081 96.4544C35.3268 94.7551 35.7826 91.7447 36.0122 89.6573C36.2645 89.725 36.5127 89.8068 36.7556 89.9022C36.7556 89.9022 37.1307 87.5371 37.2815 84.8372C37.371 83.4581 37.3599 82.0744 37.2482 80.6968C37.0343 78.4541 35.7037 74.1119 35.7826 70.0716C36.1034 70.2752 36.4155 70.4684 36.696 70.6409C36.696 70.5391 36.7082 70.4391 36.7152 70.3373C37.434 70.7772 37.9529 71.0791 37.9529 71.0791C37.9529 71.0791 42.2586 73.427 46.0366 73.4667C49.8146 73.5064 50.465 73.9359 50.465 73.9359L50.7034 72.9664L51.0418 72.9043C52.6336 72.6041 55.4579 71.8916 55.2247 70.7237Z" fill="url(#paint1_linear)"/>
<path d="M35.3358 48.6435L35.1401 48.4995C35.1755 48.5396 35.2028 48.5862 35.2205 48.6366L35.3358 48.6435Z" fill="url(#paint2_linear)"/>
<path d="M34.3069 47.7309H34.4239L34.3139 47.6493H34.3436L34.1479 47.5071C34.1825 47.5468 34.2092 47.5928 34.2266 47.6424H34.2702C34.2861 47.6702 34.2985 47.7 34.3069 47.7309Z" fill="url(#paint3_linear)"/>
<path d="M29.5239 55.238H25.7144V59.9999H29.5239V55.238Z" fill="#965D7B"/>
<path opacity="0.1" d="M29.5239 55.238H25.7144V59.9999H29.5239V55.238Z" fill="black"/>
<path d="M18.095 122.857H20.9521V119.048H18.095V122.857Z" fill="#E8F4FF"/>
<path d="M26.7634 55.385C27.4787 55.6717 28.2845 57.1899 28.324 58.4576C28.3404 59.0293 27.7007 59.9999 27.7007 59.9999L28.3585 59.9188C28.6957 59.8721 29.1331 59.81 29.5969 59.7374C29.985 59.6752 30.3911 59.6062 30.7727 59.5319C31.8202 59.3281 32.677 59.0846 32.4418 58.86C32.3284 58.7512 32.2988 58.5422 32.3284 58.2762C32.3996 57.8294 32.5222 57.3933 32.6935 56.9774C32.7444 56.841 32.8003 56.7063 32.8579 56.5785C33.0996 55.9981 33.3332 55.5422 33.3332 55.5422C33.3332 55.5422 31.095 55.3695 29.2219 55.2883C28.5822 55.2589 27.9836 55.2399 27.5264 55.2382H27.3472C26.7798 55.2348 26.5068 55.2831 26.7634 55.385Z" fill="#FFC1C7"/>
<path d="M36.1905 87.6191C36.1905 87.6191 35.8484 94.0191 34.5744 96.8404C33.3003 99.6617 31.6483 105.149 31.6483 105.149C31.6483 105.149 30.9164 107.455 30.1845 108.528C29.4525 109.602 29.4149 110.039 29.3756 110.278C29.3362 110.516 27.5662 115.207 26.5641 116.439C25.562 117.672 24.948 120.216 24.948 120.216C24.948 120.216 20.5581 122.123 20.0964 121.884C19.6346 121.646 20.9822 116.764 20.9822 116.764C20.9822 116.764 20.5581 110.959 22.4837 108.932C24.4093 106.906 25.4491 103.567 25.4491 103.567C25.4491 103.567 25.7569 98.3976 25.8339 97.5643C25.9108 96.731 26.6804 93.8267 26.6804 93.8267C26.6804 93.8267 26.9113 90.7653 26.6428 90.1703C26.3743 89.5753 36.1905 87.6191 36.1905 87.6191Z" fill="#575A89"/>
<path opacity="0.05" d="M36.1905 87.6191C36.1905 87.6191 35.8484 94.0191 34.5744 96.8404C33.3003 99.6617 31.6483 105.149 31.6483 105.149C31.6483 105.149 30.9164 107.455 30.1845 108.528C29.4525 109.602 29.4149 110.039 29.3756 110.278C29.3362 110.516 27.5662 115.207 26.5641 116.439C25.562 117.672 24.948 120.216 24.948 120.216C24.948 120.216 20.5581 122.123 20.0964 121.884C19.6346 121.646 20.9822 116.764 20.9822 116.764C20.9822 116.764 20.5581 110.959 22.4837 108.932C24.4093 106.906 25.4491 103.567 25.4491 103.567C25.4491 103.567 25.7569 98.3976 25.8339 97.5643C25.9108 96.731 26.6804 93.8267 26.6804 93.8267C26.6804 93.8267 26.9113 90.7653 26.6428 90.1703C26.3743 89.5753 36.1905 87.6191 36.1905 87.6191Z" fill="black"/>
<path d="M24.2013 120.141L24.3159 123.467C24.3159 123.467 23.9788 124.492 24.4474 125.101C24.9161 125.711 25.0358 126.524 26.0607 126.524C27.0857 126.524 30.8635 125.716 30.4438 126.794C30.024 127.872 26.4771 129.256 25.8921 129.293C25.3072 129.331 18.5523 129.524 18.5523 129.524C18.5523 129.524 17.8695 128.641 18.173 127.891C18.4764 127.141 18.704 123.255 18.704 123.255C18.704 123.255 23.9737 119.203 24.2013 120.141Z" fill="#444053"/>
<path opacity="0.05" d="M24.2024 120.142L24.3154 123.469C24.3154 123.469 23.9783 124.493 24.4485 125.101C24.9188 125.709 25.0368 126.525 26.0616 126.525C27.0864 126.525 30.862 125.717 30.444 126.793C30.026 127.869 26.4779 129.254 25.893 129.293C25.3082 129.333 18.5491 129.524 18.5491 129.524C18.5491 129.524 17.8749 128.639 18.1699 127.89C18.4648 127.14 18.6941 123.257 18.6941 123.257C18.6941 123.257 23.9749 119.199 24.2024 120.142Z" fill="black"/>
<path d="M18.1897 121.884C18.6516 122.123 23.0378 120.208 23.0378 120.208C23.0378 120.208 23.6537 117.664 24.6562 116.432C25.6586 115.2 27.4292 110.51 27.4668 110.272C27.5045 110.034 27.5438 109.596 28.276 108.523C29.0082 107.45 29.7404 105.144 29.7404 105.144C29.7404 105.144 31.3963 99.6604 32.6674 96.8398C33.5501 94.8806 33.9863 91.1916 34.1728 89.1283C34.2532 88.2175 34.2857 87.6191 34.2857 87.6191C34.2857 87.6191 24.4629 89.5607 24.7331 90.1626C24.8221 90.3603 24.8563 90.828 24.8614 91.3681C24.8751 92.4519 24.7708 93.818 24.7708 93.818C24.7708 93.818 24.001 96.7198 23.924 97.5547C23.847 98.3896 23.5391 103.556 23.5391 103.556C23.5391 103.556 22.499 106.894 20.5727 108.92C18.6465 110.946 19.0707 116.75 19.0707 116.75C19.0707 116.75 17.7347 121.646 18.1897 121.884Z" fill="#575A89"/>
<path opacity="0.1" d="M28.5715 95.6157C28.5715 95.6157 26.5197 94.6831 25.81 95.7489C25.1004 96.8148 28.5715 95.6157 28.5715 95.6157Z" fill="black"/>
<path opacity="0.1" d="M28.5712 97.3832C28.5712 97.3832 24.8069 96.6679 24.7621 97.7051C24.7173 98.7422 28.5712 97.3832 28.5712 97.3832Z" fill="black"/>
<path opacity="0.1" d="M26.6665 100C26.6665 100 25.5723 101.297 24.883 100.864C24.1938 100.431 26.6665 100 26.6665 100Z" fill="black"/>
<path opacity="0.1" d="M23.8096 104.762C23.8096 104.762 26.1742 105.689 25.6342 106.661C25.0942 107.634 24.6795 107.765 24.4731 107.498C24.2666 107.232 23.8096 104.762 23.8096 104.762Z" fill="black"/>
<path d="M22.2975 120.142L22.4121 123.469C22.4121 123.469 22.0751 124.493 22.5452 125.101C23.0154 125.709 23.1333 126.525 24.1579 126.525C25.1825 126.525 28.9571 125.717 28.5392 126.793C28.1213 127.869 24.5741 129.254 23.9894 129.293C23.4046 129.333 16.6473 129.524 16.6473 129.524C16.6473 129.524 15.9648 128.639 16.2681 127.89C16.5715 127.14 16.799 123.257 16.799 123.257C16.799 123.257 22.07 119.199 22.2975 120.142Z" fill="#444053"/>
<path opacity="0.1" d="M20.9524 124.262C20.9524 124.262 20.8519 125.365 18.6902 124.294C16.5285 123.223 20.9524 124.262 20.9524 124.262Z" fill="black"/>
<path opacity="0.1" d="M17.2086 125.714C17.2086 125.714 16.7051 126.339 18.4897 126.623C20.2743 126.907 17.2086 125.714 17.2086 125.714Z" fill="black"/>
<path opacity="0.1" d="M17.1431 124.762C17.1431 124.762 19.3263 126.667 20.0002 126.667Z" fill="black"/>
<path opacity="0.1" d="M27.6191 55.2387C28.2744 56.845 29.4753 56.5674 30.9928 57.9343C31.5102 58.4026 32.2062 57.7351 32.7267 57.3748C33.0011 56.4509 33.3334 55.6117 33.3334 55.6117C33.3334 55.6117 29.2292 55.2196 27.6191 55.2387Z" fill="black"/>
<path d="M26.6665 52.8571C26.6665 55.2238 28.585 57.1424 30.9517 57.1428C33.3184 57.1431 35.2373 55.2249 35.238 52.8582C35.2386 50.4916 33.3207 48.5724 30.954 48.5713C29.8155 48.5658 28.722 49.0155 27.9168 49.8203C27.1116 50.6252 26.6615 51.7186 26.6665 52.8571Z" fill="#FFC1C7"/>
<path opacity="0.1" d="M24.7672 90.2037C24.8558 90.4045 24.8899 90.8798 24.895 91.4287C28.5701 89.0289 31.9673 88.8657 34.173 89.1526C34.2531 88.2272 34.2855 87.6191 34.2855 87.6191C34.2855 87.6191 24.4979 89.5974 24.7672 90.2037Z" fill="black"/>
<path d="M21.9141 87.7222C21.9964 89.4001 22.5638 91.0182 23.5477 92.3809C30.4277 87.6254 36.5774 90.2797 36.5774 90.2797C36.5774 90.2797 36.9426 87.8843 37.0855 85.149C37.1714 83.7532 37.1608 82.3531 37.0537 80.9588C36.8297 78.5441 35.3725 73.7216 35.6513 69.4187C35.7748 67.5253 36.5104 65.7605 36.4839 64.3003C36.4839 63.7948 36.4557 63.3298 36.4187 62.9159C36.383 62.5352 36.3103 62.1589 36.2017 61.7922C35.7959 60.4114 34.8751 59.971 33.9559 59.108C33.3551 58.5299 32.6713 58.0443 31.9272 57.6672C30.4348 56.9398 28.9282 56.9398 27.6334 57.8522C27.3911 58.024 27.1644 58.2167 26.9559 58.4281C26.6897 58.6997 26.4483 58.9944 26.2344 59.3088C26.1974 59.3598 26.1638 59.4127 26.1303 59.4638C25.9398 59.7614 25.7634 60.3004 25.6011 60.9679C25.0031 63.4778 24.6555 67.7912 24.6555 67.7912C24.6555 67.7912 23.9799 73.003 24.1898 76.4727C24.2152 77.1158 24.3044 77.7548 24.4562 78.3803C25.2518 81.3146 22.7485 83.6149 22.7485 83.6149C22.1347 84.8941 21.848 86.3053 21.9141 87.7222Z" fill="#FF6584"/>
<path d="M49.5239 74.2856C49.5239 74.2856 49.9127 74.2141 50.4656 74.0753C51.911 73.7051 54.4866 72.8427 54.2734 71.4313C54.0896 70.2008 52.3506 70.3985 51.0857 70.7161C50.3393 70.9012 49.7585 71.1368 49.7585 71.1368L49.5239 74.2856Z" fill="#FFC1C7"/>
<path opacity="0.1" d="M28.1124 65.4882C28.9835 66.1486 31.1401 67.9667 32.7975 69.2473C33.7312 69.9683 35.0333 70.8195 35.9928 71.4286C36.1217 69.4546 36.2119 67.5759 36.1862 66.0624C35.5342 65.5377 35.3169 64.8553 34.3335 63.7123C32.5913 61.6943 29.4807 60.9861 29.4807 60.9861C27.4126 60.5311 27.2468 64.8204 28.1124 65.4882Z" fill="black"/>
<path opacity="0.1" d="M49.5239 73.3332C49.5239 73.3332 49.9981 73.2761 50.6724 73.1652L51.4287 70.4761C50.5183 70.624 49.81 70.8122 49.81 70.8122L49.5239 73.3332Z" fill="black"/>
<path d="M30.3177 60.9838C30.3177 60.9838 33.2201 61.6378 34.8457 63.5278C36.4713 65.4178 35.8767 64.555 39.2172 66.7274C41.0851 67.9412 44.1232 68.5678 46.0409 68.8588C47.3514 69.061 48.632 69.4226 49.854 69.9356L50.476 70.1959L49.5086 74.2857C49.5086 74.2857 48.89 73.8612 45.2917 73.8235C41.6934 73.7858 37.5916 71.4713 37.5916 71.4713C37.5916 71.4713 34.9608 69.8911 33.4125 68.6962C31.8643 67.5012 29.8538 65.8013 29.0358 65.1849C28.2179 64.5686 28.3829 60.5592 30.3177 60.9838Z" fill="#E8F4FF"/>
<path opacity="0.1" d="M25.7144 61.2308C26.2863 61.5194 26.9785 61.4011 27.8068 60.551C30.0353 58.2505 33.7354 60.5423 36.1905 61.9047C35.7895 60.7747 34.8793 60.4125 33.9708 59.7053C31.3378 57.6574 28.3909 57.4048 26.3386 59.8712C26.302 59.9131 26.2689 59.9564 26.2357 59.9983C26.0439 60.2422 25.8695 60.6838 25.7144 61.2308Z" fill="black"/>
<path d="M25.7144 61.2308C26.2863 61.5194 26.9785 61.4011 27.8068 60.5511C27.8269 60.5285 27.8485 60.5068 27.8713 60.4861C28.1901 60.1608 28.6018 59.9063 29.0692 59.7458C29.4651 59.615 29.8903 59.5565 30.316 59.5741C32.2812 59.626 34.5253 60.9797 36.1905 61.9047C35.7895 60.7733 34.8793 60.4125 33.9708 59.7054C33.3769 59.2317 32.701 58.8339 31.9655 58.5249C30.4904 57.9289 29.0012 57.9289 27.7214 58.6764C27.4819 58.8172 27.2578 58.9751 27.0518 59.1483C26.7887 59.3709 26.55 59.6123 26.3386 59.8699C26.302 59.9118 26.2689 59.9551 26.2357 59.9969C26.0439 60.2422 25.8695 60.6838 25.7144 61.2308Z" fill="#FF6584"/>
<path opacity="0.1" d="M21.9048 87.136C21.9874 88.682 22.5573 90.173 23.5455 91.4286C30.4558 87.0468 36.6326 89.4925 36.6326 89.4925C36.6326 89.4925 36.9994 87.2853 37.1429 84.765C34.5117 84.7439 27.0184 84.8007 24.5041 86.0633C23.6727 86.4882 22.8031 86.8471 21.9048 87.136Z" fill="black"/>
<path d="M21.9048 88.0884C21.9874 89.6344 22.5573 91.1254 23.5455 92.381C30.4558 87.9992 36.6326 90.4449 36.6326 90.4449C36.6326 90.4449 36.9994 88.2377 37.1429 85.7174C34.5117 85.6963 27.0184 85.7531 24.5041 87.0157C23.6727 87.4406 22.8031 87.7994 21.9048 88.0884Z" fill="#E8F4FF"/>
<path opacity="0.1" d="M35.3335 48.6425L35.1431 48.5002C35.1777 48.54 35.2043 48.5859 35.2217 48.6356L35.3335 48.6425Z" fill="black"/>
<path opacity="0.1" d="M24.8034 76.1906C25.045 75.959 25.2622 75.7059 25.4518 75.4348C27.1532 73.0705 27.5017 70.0439 26.8425 67.2822C26.6962 66.6691 26.5048 66.0203 26.7396 65.4292C27.061 64.6174 28.0725 64.1945 28.533 63.4404C29.0947 62.5181 28.7046 61.4022 28.4789 60.3594C28.4789 60.3169 28.4626 60.2779 28.4536 60.2371C28.4138 60.0486 28.3831 59.8566 28.3596 59.6664C28.2193 58.5191 28.3476 57.3568 28.7353 56.261C28.7552 56.205 28.7751 56.1489 28.7967 56.0912C28.9255 55.7478 29.0926 55.4181 29.2952 55.1078C29.7106 54.4777 30.2922 53.9545 31.0616 53.7694C31.2796 53.7442 31.4881 53.6708 31.6703 53.5554C32.1272 53.1801 31.6071 52.5363 31.5041 51.9827C31.3777 51.3338 31.9159 50.7156 32.5517 50.3929C33.0935 50.1195 33.6985 49.9972 34.2855 49.8256C32.6833 48.2852 30.0969 48.1465 28.3189 49.5057C26.5409 50.8648 26.1569 53.274 27.4331 55.0636H27.2362C26.6276 55.0636 26.3332 55.1095 26.6095 55.2097C27.3952 55.4916 27.5866 57.54 27.63 58.7866C27.3574 59.0485 27.1102 59.3327 26.8913 59.6358C26.8533 59.6851 26.819 59.7361 26.7847 59.7853C26.5896 60.0723 26.409 60.5921 26.2429 61.2358C25.6306 63.6561 25.2748 67.8155 25.2748 67.8155C25.2748 67.8155 24.5885 72.8446 24.8034 76.1906Z" fill="black"/>
<path d="M34.0928 47.9836C34.4166 48.3627 33.8875 48.8745 33.4061 49.0457C32.739 49.2851 32.0187 49.3951 31.3958 49.7323C30.7728 50.0694 30.2472 50.7001 30.3676 51.3674C30.472 51.9352 30.9799 52.5903 30.5321 52.9851C30.3534 53.1036 30.1493 53.1795 29.9357 53.2069C28.8102 53.4899 28.097 54.5468 27.7165 55.5932C27.22 56.9581 27.1039 58.4296 27.3803 59.854C27.5944 60.9598 28.0298 62.1634 27.4582 63.1487C27.0069 63.926 26.0159 64.3593 25.7009 65.1943C25.4708 65.8022 25.6584 66.4696 25.8017 67.1002C26.4477 69.9372 26.1061 73.0502 24.4391 75.4854C24.1176 76.0019 23.6775 76.4364 23.1543 76.7537C22.4358 77.1468 21.5615 77.1782 20.7333 77.1206C19.8001 77.0542 18.8768 76.8884 17.9797 76.6262C18.6848 76.0095 19.1514 75.1704 19.2999 74.2521C18.4787 74.0006 17.5036 74.1613 16.8134 73.6686C15.856 72.9873 16.1144 71.5147 16.8329 70.6045C17.5514 69.6944 18.6026 69.0323 19.199 68.0505C20.8289 65.3149 18.1655 61.6393 19.6113 58.8128C19.9865 58.0791 20.6147 57.4729 20.9138 56.7165C21.2678 55.8046 21.1173 54.7949 21.0819 53.8271C21.013 51.8187 21.4695 49.8266 22.4074 48.043C22.9631 46.9844 23.7135 45.9781 24.77 45.351C25.8265 44.7239 27.2316 44.5334 28.3271 45.0959C28.812 45.344 29.2119 45.7213 29.7163 45.938C30.6826 46.3555 31.9072 46.1301 32.7566 46.7328C33.6061 47.3355 33.2185 48.1094 34.2857 48.1304" fill="#965D7B"/>
<path opacity="0.1" d="M29.5239 78.0952C29.0772 78.3106 28.1877 80.2524 26.1682 81.655C24.1486 83.0575 29.5239 78.0952 29.5239 78.0952Z" fill="black"/>
<path opacity="0.1" d="M30.476 74.2856C30.476 74.2856 28.1178 79.2236 25.3502 79.9433C22.5826 80.663 30.476 74.2856 30.476 74.2856Z" fill="black"/>
<path opacity="0.1" d="M35.238 86.6667C35.238 86.6667 34.0856 89.2893 34.3161 89.5123C34.5466 89.7353 35.238 86.6667 35.238 86.6667Z" fill="black"/>
<path opacity="0.1" d="M34.2859 86.6667C34.2859 86.6667 33.1335 89.2893 33.364 89.5123C33.5944 89.7353 34.2859 86.6667 34.2859 86.6667Z" fill="black"/>
<path opacity="0.1" d="M32.3811 86.6667C32.3811 86.6667 31.2292 89.2893 31.459 89.5123C31.6889 89.7353 32.3811 86.6667 32.3811 86.6667Z" fill="black"/>
<path opacity="0.1" d="M23.8096 87.6191C23.8096 87.6191 24.4246 90.3561 24.7162 90.4729C25.0078 90.5898 23.8096 87.6191 23.8096 87.6191Z" fill="black"/>
<path opacity="0.1" d="M26.6665 87.6191C26.6665 87.6191 27.2816 90.358 27.5732 90.473C27.8647 90.588 26.6665 87.6191 26.6665 87.6191Z" fill="black"/>
<path opacity="0.1" d="M24.7617 87.6191C24.7617 87.6191 25.3768 90.3561 25.6684 90.4729C25.9599 90.5898 24.7617 87.6191 24.7617 87.6191Z" fill="black"/>
<path opacity="0.1" d="M40 67.6191C39.8406 67.6557 40.478 69.4099 38.6595 69.5196C36.8409 69.6292 40 67.6191 40 67.6191Z" fill="black"/>
<path opacity="0.1" d="M49.5239 71.4285C49.5239 71.4285 48.8918 72.9968 47.8556 73.3036C46.8194 73.6105 49.5239 71.4285 49.5239 71.4285Z" fill="black"/>
<path opacity="0.1" d="M45.1957 70.4761C45.1957 70.4761 46.6905 72.0086 44.6048 72.3458C42.5191 72.683 45.1957 70.4761 45.1957 70.4761Z" fill="black"/>
<path opacity="0.1" d="M35.2382 65.5119C35.2382 65.5119 31.9781 64.1129 31.4706 65.1365C30.963 66.1602 35.2382 65.5119 35.2382 65.5119Z" fill="black"/>
<path opacity="0.1" d="M30.476 68.5715C30.0277 68.7869 29.1407 70.7288 27.1205 72.1313C25.1004 73.5339 30.476 68.5715 30.476 68.5715Z" fill="black"/>
<g opacity="0.1">
<path opacity="0.1" d="M29.6359 45.5627C29.169 45.366 28.7836 45.0404 28.3457 44.7932C28.5832 44.8473 28.8129 44.9292 29.0297 45.0369C29.4206 45.2319 29.7626 45.507 30.1389 45.7211C29.9668 45.6825 29.7985 45.6295 29.6359 45.5627Z" fill="black"/>
<path opacity="0.1" d="M35.1259 48.0644L35.0083 48.0557C34.9906 48.0067 34.9636 47.9612 34.9287 47.9216L35.1259 48.0644Z" fill="black"/>
<path opacity="0.1" d="M18.9852 73.7846C18.9761 73.8385 18.9616 73.8925 18.9508 73.9482C18.3482 73.8838 17.742 73.849 17.2661 73.5234C17.8234 73.6314 18.4369 73.6209 18.9852 73.7846Z" fill="black"/>
<path opacity="0.1" d="M20.4508 76.6397C21.2958 76.6989 22.1915 76.6676 22.9262 76.2741C23.4611 75.9586 23.9112 75.5262 24.2399 75.012C25.9445 72.5869 26.2937 69.4846 25.6333 66.6556C25.4867 66.0271 25.2949 65.3604 25.5283 64.7563C25.8522 63.9241 26.8655 63.4906 27.327 62.7177C27.9114 61.7358 27.4663 60.5363 27.2455 59.4343C26.9637 58.0148 27.0824 56.5486 27.5894 55.1882C27.9784 54.1437 28.7076 53.0991 29.8603 52.8084C30.0784 52.7814 30.2871 52.7063 30.4701 52.589C30.9261 52.2026 30.4068 51.5445 30.3018 50.977C30.177 50.3119 30.7162 49.6765 31.3514 49.3475C31.9865 49.0184 32.7248 48.9018 33.407 48.6633C33.8431 48.5118 34.3117 48.094 34.1905 47.7389L34.3063 47.7476L34.1109 47.6048C34.1459 47.6443 34.1729 47.6898 34.1905 47.7389C33.2495 47.6605 33.5843 46.9328 32.7429 46.3461L32.6614 46.2957C32.9854 46.3572 33.2931 46.481 33.5662 46.6595C34.4058 47.241 34.0711 47.9704 35.0138 48.0522C35.1405 48.4004 34.6664 48.8252 34.2321 48.9767C33.5499 49.2152 32.8134 49.3248 32.1765 49.6608C31.5395 49.9968 31.0021 50.6253 31.1252 51.2903C31.2319 51.8561 31.7513 52.509 31.2934 52.9024C31.1107 53.0205 30.902 53.0962 30.6836 53.1235C29.5328 53.4055 28.8035 54.4588 28.4145 55.5016C27.9064 56.8629 27.7871 58.3304 28.0689 59.7512C28.2896 60.8532 28.7348 62.0526 28.1503 63.0345C27.6889 63.8092 26.6755 64.241 26.3534 65.0731C26.1182 65.679 26.31 66.344 26.4566 66.9725C27.1171 69.7997 26.7678 72.902 25.0633 75.3288C24.7341 75.8431 24.2841 76.276 23.7495 76.5927C23.0149 76.9844 22.121 77.0158 21.2741 76.9583C20.3199 76.8922 19.3758 76.727 18.4585 76.4656C18.4929 76.4378 18.5218 76.4065 18.5544 76.3769C19.1789 76.5094 19.8128 76.5972 20.4508 76.6397Z" fill="black"/>
</g>
<path d="M141.627 11.4465C141.627 11.4465 126.988 10.6091 128.713 20.3533C128.713 20.3533 128.365 22.0759 130.013 22.857C130.013 22.857 130.039 22.1353 131.516 22.3797C132.04 22.4633 132.574 22.4877 133.105 22.4524C133.824 22.4064 134.507 22.1384 135.051 21.6894C135.051 21.6894 139.166 20.0758 140.766 13.686C140.766 13.686 141.95 12.2937 141.903 11.9353L139.432 12.9362C139.432 12.9362 140.277 14.6307 139.606 16.0361C139.606 16.0361 139.526 12.9989 139.052 13.0633C138.954 13.0782 137.767 13.6496 137.767 13.6496C137.767 13.6496 139.22 16.5993 138.114 18.743C138.114 18.743 138.532 15.1096 137.306 13.8627L135.567 14.8272C135.567 14.8272 137.266 17.8743 136.115 20.3582C136.115 20.3582 136.41 16.5465 135.202 15.0634L133.626 16.231C133.626 16.231 135.24 19.2451 134.263 21.2996C134.263 21.2996 134.136 16.8619 133.298 16.5266C133.298 16.5266 131.921 17.6827 131.71 18.1567C131.71 18.1567 132.802 20.3351 132.124 21.4863C132.124 21.4863 131.709 18.5283 131.368 18.5135C131.368 18.5135 129.994 20.4722 129.852 21.8166C129.852 21.8166 129.911 19.8198 131.036 18.3268C131.036 18.3268 129.707 18.5432 128.932 19.3624C128.932 19.3624 129.146 17.9767 131.366 17.8561C131.366 17.8561 132.5 16.3697 132.804 16.2806C132.804 16.2806 130.587 16.1038 129.243 16.6703C129.243 16.6703 130.427 15.364 133.211 15.9569L134.776 14.7512C134.776 14.7512 131.856 14.3714 130.62 14.7909C130.62 14.7909 132.044 13.6348 135.195 14.4771L136.889 13.5142C136.889 13.5142 134.4 13.0055 132.919 13.1839C132.919 13.1839 134.484 12.3829 137.384 13.2516L138.601 12.7347C138.601 12.7347 136.779 12.3945 136.245 12.3416C135.711 12.2888 135.682 12.1484 135.682 12.1484C136.837 11.9645 138.023 12.0898 139.107 12.5101C139.107 12.5101 141.674 11.6017 141.627 11.4465Z" fill="#F8765E"/>
<path d="M126.549 6.67433C126.549 6.67433 120.279 6.32397 121.012 10.3852C121.012 10.3852 120.865 11.1027 121.569 11.4287C121.569 11.4287 121.581 11.124 122.213 11.2306C122.438 11.2656 122.668 11.2758 122.896 11.2611C123.201 11.2395 123.49 11.1279 123.721 10.9427C123.721 10.9427 125.485 10.2694 126.171 7.60661C126.171 7.60661 126.679 7.02622 126.666 6.87694L125.607 7.29433C125.607 7.29433 125.968 8.00116 125.684 8.58612C125.684 8.58612 125.65 7.32023 125.447 7.35069C125.404 7.35069 124.896 7.59443 124.896 7.59443C124.896 7.59443 125.518 8.82376 125.049 9.71643C125.049 9.71643 125.227 8.20224 124.701 7.6843L123.955 8.08494C123.955 8.08494 124.683 9.3554 124.19 10.3913C124.19 10.3913 124.317 8.80243 123.799 8.18396L123.124 8.6699C123.124 8.6699 123.807 9.92056 123.389 10.7797C123.389 10.7797 123.335 8.93039 122.977 8.79938C122.977 8.79938 122.386 9.27923 122.295 9.47726C122.295 9.47726 122.764 10.3913 122.474 10.865C122.474 10.865 122.295 9.63265 122.144 9.62808C122.144 9.62808 121.555 10.4446 121.493 10.9991C121.522 10.4814 121.697 9.97977 122.002 9.54429C121.662 9.6034 121.348 9.75328 121.099 9.97539C121.099 9.97539 121.192 9.39805 122.147 9.34778C122.147 9.34778 122.634 8.72931 122.764 8.69123C122.764 8.69123 121.814 8.61811 121.236 8.85422C121.236 8.85422 121.744 8.30887 122.937 8.54956L123.605 8.04686C123.605 8.04686 122.353 7.89452 121.823 8.06361C121.823 8.06361 122.434 7.58072 123.784 7.93261L124.511 7.53045C124.511 7.53045 123.444 7.3187 122.809 7.39487C122.809 7.39487 123.478 7.06126 124.724 7.42381L125.242 7.2075C125.242 7.2075 124.462 7.06583 124.232 7.0445C124.003 7.02318 123.992 6.96377 123.992 6.96377C124.487 6.88769 124.995 6.94044 125.46 7.1161C125.46 7.1161 126.569 6.74288 126.549 6.67433Z" fill="#F8765E"/>
<path opacity="0.1" d="M184.762 125.762C187.392 125.762 189.524 125.314 189.524 124.762C189.524 124.21 187.392 123.762 184.762 123.762C182.132 123.762 180 124.21 180 124.762C180 125.314 182.132 125.762 184.762 125.762Z" fill="#F8765E"/>
<path opacity="0.1" d="M5.71405 139.095C8.34398 139.095 10.476 138.647 10.476 138.095C10.476 137.543 8.34398 137.095 5.71405 137.095C3.08413 137.095 0.952148 137.543 0.952148 138.095C0.952148 138.647 3.08413 139.095 5.71405 139.095Z" fill="#F8765E"/>
<path opacity="0.1" d="M32.381 140.048C35.011 140.048 37.143 139.6 37.143 139.048C37.143 138.495 35.011 138.048 32.381 138.048C29.7511 138.048 27.6191 138.495 27.6191 139.048C27.6191 139.6 29.7511 140.048 32.381 140.048Z" fill="#F8765E"/>
<path d="M174.762 135.238C178.707 135.238 181.905 134.598 181.905 133.809C181.905 133.02 178.707 132.381 174.762 132.381C170.817 132.381 167.619 133.02 167.619 133.809C167.619 134.598 170.817 135.238 174.762 135.238Z" fill="#F8765E"/>
<path d="M176.501 131.425C176.798 131.194 177.014 130.884 177.122 130.535C177.203 130.181 177.044 129.756 176.688 129.626C176.289 129.482 175.863 129.745 175.541 130.01C175.218 130.275 174.847 130.578 174.424 130.521C174.867 130.14 175.067 129.567 174.951 129.01C174.932 128.897 174.881 128.791 174.803 128.702C174.583 128.478 174.181 128.575 173.917 128.752C173.074 129.314 172.839 130.402 172.835 131.38C172.75 131.028 172.822 130.66 172.818 130.302C172.815 129.945 172.713 129.532 172.391 129.345C172.192 129.24 171.969 129.187 171.742 129.191C171.363 129.177 170.942 129.214 170.684 129.477C170.36 129.803 170.446 130.352 170.725 130.709C171.004 131.066 171.43 131.295 171.822 131.543C172.135 131.721 172.403 131.964 172.604 132.253C172.629 132.294 172.648 132.337 172.663 132.381H175.038C175.569 132.126 176.061 131.804 176.501 131.425Z" fill="#F8765E"/>
<path d="M8.33649 117.143C8.33649 117.143 9.28839 118.365 7.89782 120.207C6.50724 122.049 5.35768 123.611 5.81716 124.762C5.81716 124.762 7.91862 121.334 9.6317 121.286C11.3448 121.238 10.2178 119.204 8.33649 117.143Z" fill="#F8765E"/>
<path opacity="0.1" d="M8.30965 117.143C8.39402 117.26 8.46019 117.389 8.50605 117.526C10.193 119.448 11.0926 121.242 9.47051 121.288C7.96069 121.329 6.14749 123.95 5.71436 124.612C5.72838 124.662 5.74592 124.713 5.76521 124.762C5.76521 124.762 7.89054 121.336 9.62307 121.288C11.3556 121.241 10.2123 119.203 8.30965 117.143Z" fill="black"/>
<path d="M9.63367 119.298C9.63367 119.686 9.58476 120 9.52362 120C9.46248 120 9.41357 119.693 9.41357 119.298C9.41357 118.902 9.47471 119.094 9.53585 119.094C9.59698 119.094 9.63367 118.904 9.63367 119.298Z" fill="#FFD037"/>
<path d="M10.2511 119.527C9.87927 119.862 9.55439 120.064 9.52592 119.981C9.49745 119.898 9.77712 119.554 10.1489 119.219C10.5207 118.884 10.375 119.128 10.4018 119.219C10.4286 119.311 10.6228 119.186 10.2511 119.527Z" fill="#FFD037"/>
<path d="M2.13845 117.143C2.13845 117.143 1.18674 118.365 2.57877 120.207C3.9708 122.049 5.11841 123.611 4.65902 124.762C4.65902 124.762 2.5597 121.334 0.845233 121.286C-0.869237 121.238 0.259297 119.204 2.13845 117.143Z" fill="#F8765E"/>
<path opacity="0.1" d="M2.16602 117.143C2.08246 117.261 2.01637 117.39 1.9697 117.526C0.283516 119.448 -0.613914 121.242 1.00567 121.288C2.51658 121.329 4.33598 123.95 4.7619 124.612C4.74613 124.662 4.73035 124.713 4.70932 124.762C4.70932 124.762 2.58669 121.336 0.853174 121.288C-0.880339 121.241 0.265988 119.203 2.16602 117.143Z" fill="black"/>
<path d="M0.841309 119.298C0.841309 119.686 0.890218 120 0.953101 120C1.01598 120 1.06315 119.693 1.06315 119.298C1.06315 118.902 1.00026 119.094 0.939127 119.094C0.877991 119.094 0.841309 118.904 0.841309 119.298Z" fill="#FFD037"/>
<path d="M0.228199 119.527C0.599325 119.862 0.92197 120.064 0.95039 119.981C0.978809 119.898 0.699629 119.554 0.328503 119.219C-0.0426228 118.884 0.10449 119.128 0.0760706 119.219C0.0476511 119.311 -0.147942 119.186 0.228199 119.527Z" fill="#FFD037"/>
<path d="M0.952148 124.215C0.952148 124.215 3.76663 124.138 4.61684 123.597C5.46705 123.056 8.94484 122.412 9.15739 123.287C9.36994 124.162 13.3883 127.595 10.2092 127.618C7.03004 127.641 2.82664 127.176 1.98009 126.714C1.13355 126.252 0.952148 124.215 0.952148 124.215Z" fill="#A8A8A8"/>
<path opacity="0.2" d="M10.2671 128.236C7.08819 128.262 2.88078 127.74 2.03379 127.221C1.38847 126.828 1.13181 125.414 1.04565 124.762H0.952148C0.952148 124.762 1.13548 127.039 1.97696 127.556C2.81844 128.072 7.03136 128.596 10.2103 128.571C11.1269 128.571 11.4459 128.236 11.4276 127.751C11.3066 128.047 10.9564 128.231 10.2671 128.236Z" fill="black"/>
<defs>
<linearGradient id="paint0_linear" x1="134.286" y1="130.468" x2="134.286" y2="44.7349" gradientUnits="userSpaceOnUse">
<stop stop-color="#808080" stop-opacity="0.25"/>
<stop offset="0.54" stop-color="#808080" stop-opacity="0.12"/>
<stop offset="1" stop-color="#808080" stop-opacity="0.1"/>
</linearGradient>
<linearGradient id="paint1_linear" x1="35.2303" y1="129.524" x2="35.2303" y2="44.7601" gradientUnits="userSpaceOnUse">
<stop stop-color="#808080" stop-opacity="0.25"/>
<stop offset="0.54" stop-color="#808080" stop-opacity="0.12"/>
<stop offset="1" stop-color="#808080" stop-opacity="0.1"/>
</linearGradient>
<linearGradient id="paint2_linear" x1="35.238" y1="48.6313" x2="35.238" y2="48.5118" gradientUnits="userSpaceOnUse">
<stop stop-color="#808080" stop-opacity="0.25"/>
<stop offset="0.54" stop-color="#808080" stop-opacity="0.12"/>
<stop offset="1" stop-color="#808080" stop-opacity="0.1"/>
</linearGradient>
<linearGradient id="paint3_linear" x1="34.2859" y1="47.7395" x2="34.2859" y2="47.5175" gradientUnits="userSpaceOnUse">
<stop stop-color="#808080" stop-opacity="0.25"/>
<stop offset="0.54" stop-color="#808080" stop-opacity="0.12"/>
<stop offset="1" stop-color="#808080" stop-opacity="0.1"/>
</linearGradient>
</defs>
</svg>
